<svg id="Capa_1" enable-background="new 0 0 512 512" height="512" viewBox="0 0 512 512" width="512" xmlns="http://www.w3.org/2000/svg"><g><path d="m233.107 60.038c-54.087 0-98.091 44-98.091 98.084v195.755c0 54.083 44.004 98.084 98.091 98.084h45.786c54.088 0 98.092-44 98.092-98.084 0-30.115 0-175.191 0-195.755 0-54.083-44.004-98.084-98.092-98.084zm45.785 361.924h-45.786c-37.544 0-68.089-30.542-68.089-68.084v-121.627c8.574 4.862 18.469 7.653 29.01 7.653h123.944c10.541 0 20.436-2.791 29.01-7.653v121.626c.001 37.542-30.544 68.085-68.089 68.085zm68.09-263.84v22.774c0 15.995-13.014 29.008-29.01 29.008h-123.944c-15.996 0-29.01-13.013-29.01-29.008v-22.774c0-37.542 30.545-68.084 68.089-68.084h45.786c37.544 0 68.089 30.543 68.089 68.084z"/><path d="m255.999 120.038c-8.285 0-15.001 6.716-15.001 15v29.866c0 8.284 6.716 15 15.001 15s15.001-6.716 15.001-15v-29.866c0-8.284-6.716-15-15.001-15z"/><path d="m4.444 271.561 75.03 74.042c5.9 5.822 15.397 5.754 21.214-.14 5.82-5.896 5.757-15.394-.14-21.213l-64.212-63.366 64.212-63.367c5.896-5.819 5.959-15.316.14-21.213-5.82-5.896-15.318-5.958-21.214-.14l-75.03 74.043c-5.85 5.776-6 15.446 0 21.354z"/><path d="m507.554 250.208-75.03-74.043c-5.896-5.819-15.394-5.757-21.214.14-5.82 5.896-5.757 15.394.14 21.213l64.211 63.367-64.211 63.366c-5.896 5.819-5.959 15.316-.14 21.213 5.821 5.897 15.318 5.958 21.214.14l75.03-74.042c5.9-5.809 5.956-15.475 0-21.354z"/></g></svg>