<svg width="15" height="13" viewBox="0 0 15 13" fill="none" xmlns="http://www.w3.org/2000/svg">
<path d="M10.9371 7.04042C10.8688 6.97685 10.7876 6.92641 10.6982 6.892C10.6088 6.85759 10.513 6.83987 10.4163 6.83987C10.3196 6.83987 10.2238 6.85759 10.1344 6.892C10.045 6.92641 9.96385 6.97685 9.8955 7.04042L8.72131 8.1307C8.17694 7.98022 7.16112 7.63822 6.51731 7.04042C5.87349 6.44261 5.50518 5.4994 5.34312 4.99393L6.51731 3.90365C6.58577 3.84019 6.64009 3.76481 6.67715 3.68183C6.71421 3.59885 6.73329 3.5099 6.73329 3.42007C6.73329 3.33024 6.71421 3.24129 6.67715 3.15832C6.64009 3.07534 6.58577 2.99996 6.51731 2.9365L3.57078 0.200546C3.50243 0.136972 3.42125 0.0865364 3.33188 0.0521245C3.24252 0.0177126 3.14673 0 3.04998 0C2.95324 0 2.85744 0.0177126 2.76808 0.0521245C2.67871 0.0865364 2.59753 0.136972 2.52918 0.200546L0.531435 2.05552C0.251515 2.31543 0.0938758 2.67248 0.0997689 3.03704C0.116711 4.01104 0.394422 7.39404 3.26581 10.0602C6.13721 12.7264 9.78059 12.9836 10.8303 13H10.8509C11.2399 13 11.6074 12.8577 11.8859 12.5992L13.8836 10.7442C13.9521 10.6807 14.0064 10.6054 14.0435 10.5224C14.0805 10.4394 14.0996 10.3505 14.0996 10.2606C14.0996 10.1708 14.0805 10.0819 14.0435 9.99887C14.0064 9.9159 13.9521 9.84052 13.8836 9.77705L10.9371 7.04042ZM10.8435 11.6313C9.92423 11.617 6.77881 11.3878 4.30741 9.09238C1.82791 6.79008 1.58777 3.85919 1.57303 3.02268L3.04998 1.65128L4.95491 3.42007L4.00245 4.30447C3.91586 4.3848 3.8522 4.48391 3.81722 4.59282C3.78224 4.70173 3.77704 4.81702 3.80208 4.92827C3.81976 5.00692 4.25216 6.87216 5.47497 8.00758C6.69778 9.143 8.70658 9.5445 8.79129 9.56091C8.91103 9.58482 9.03532 9.58038 9.15272 9.54799C9.27012 9.51559 9.37685 9.4563 9.4631 9.37555L10.4163 8.49116L12.3212 10.2599L10.8435 11.6313Z" fill="#4A4A4A"/>
</svg>
