<svg width="81" height="80" viewBox="0 0 81 80" fill="none" xmlns="http://www.w3.org/2000/svg">
<path d="M76.1199 22.7898L58.7099 14.7998L56.2986 32.7898L60.6736 30.9836C62.5302 35.2238 63.0328 39.9338 62.1129 44.4703C61.1929 49.0069 58.8953 53.149 55.5336 56.3311C52.172 59.5132 47.9101 61.5803 43.33 62.2501C38.7498 62.9199 34.0745 62.1598 29.9424 60.0736L24.2961 71.2498C30.8326 74.5513 38.2403 75.7187 45.4753 74.5875C52.7104 73.4564 59.4082 70.0836 64.625 64.9445C69.8418 59.8054 73.3147 53.159 74.5544 45.9417C75.794 38.7244 74.7379 31.3001 71.5349 24.7148L76.1199 22.7898Z" fill="#9BC9FF"/>
<path d="M22.5619 9.68834C14.8987 14.1128 9.19649 21.2766 6.60365 29.737C4.01081 38.1974 4.71992 47.3261 8.58817 55.2846L4.00317 57.2096L21.4132 65.1996L23.8244 47.2096L19.4494 49.0158C17.5908 44.7749 17.0869 40.0635 18.0066 35.5253C18.9262 30.9872 21.2246 26.8437 24.5876 23.6609C27.9507 20.4781 32.2144 18.4112 36.7963 17.7427C41.3781 17.0742 46.0547 17.8366 50.1869 19.9258L55.8332 8.75584C50.6468 6.13385 44.8887 4.84603 39.0795 5.00884C33.2703 5.17166 27.5933 6.77997 22.5619 9.68834Z" fill="#9BC9FF"/>
<path d="M40.0624 25C37.0957 25 34.1956 25.8797 31.7288 27.528C29.2621 29.1762 27.3395 31.5189 26.2042 34.2597C25.0689 37.0006 24.7718 40.0166 25.3506 42.9264C25.9294 45.8361 27.358 48.5088 29.4558 50.6066C31.5536 52.7044 34.2263 54.133 37.136 54.7118C40.0457 55.2906 43.0617 54.9935 45.8026 53.8582C48.5435 52.7229 50.8862 50.8003 52.5344 48.3336C54.1826 45.8668 55.0624 42.9667 55.0624 40C55.0581 36.0231 53.4763 32.2103 50.6642 29.3981C47.8521 26.586 44.0393 25.0043 40.0624 25ZM40.0624 52.5C37.5901 52.5 35.1734 51.7669 33.1178 50.3934C31.0621 49.0199 29.46 47.0676 28.5139 44.7835C27.5678 42.4995 27.3203 39.9861 27.8026 37.5614C28.2849 35.1366 29.4754 32.9093 31.2235 31.1612C32.9717 29.413 35.199 28.2225 37.6238 27.7402C40.0485 27.2579 42.5619 27.5054 44.8459 28.4515C47.13 29.3976 49.0822 30.9998 50.4558 33.0554C51.8293 35.111 52.5624 37.5277 52.5624 40C52.5587 43.3141 51.2406 46.4914 48.8972 48.8348C46.5538 51.1782 43.3765 52.4964 40.0624 52.5Z" fill="#1E81CE"/>
<path d="M40.0625 36.25C41.5887 36.25 42.5625 36.99 42.5625 37.5C42.5625 37.8315 42.6942 38.1495 42.9286 38.3839C43.163 38.6183 43.481 38.75 43.8125 38.75C44.144 38.75 44.462 38.6183 44.6964 38.3839C44.9308 38.1495 45.0625 37.8315 45.0625 37.5C45.0625 35.7238 43.4888 34.2863 41.3125 33.875V32.5C41.3125 32.1685 41.1808 31.8505 40.9464 31.6161C40.712 31.3817 40.394 31.25 40.0625 31.25C39.731 31.25 39.413 31.3817 39.1786 31.6161C38.9442 31.8505 38.8125 32.1685 38.8125 32.5V33.875C36.6362 34.2838 35.0625 35.7213 35.0625 37.5C35.0625 39.6025 37.2587 41.25 40.0625 41.25C41.5887 41.25 42.5625 41.99 42.5625 42.5C42.5625 43.01 41.5887 43.75 40.0625 43.75C38.5363 43.75 37.5625 43.01 37.5625 42.5C37.5625 42.1685 37.4308 41.8505 37.1964 41.6161C36.962 41.3817 36.644 41.25 36.3125 41.25C35.981 41.25 35.663 41.3817 35.4286 41.6161C35.1942 41.8505 35.0625 42.1685 35.0625 42.5C35.0625 44.2762 36.6362 45.7138 38.8125 46.125V47.5C38.8125 47.8315 38.9442 48.1495 39.1786 48.3839C39.413 48.6183 39.731 48.75 40.0625 48.75C40.394 48.75 40.712 48.6183 40.9464 48.3839C41.1808 48.1495 41.3125 47.8315 41.3125 47.5V46.125C43.4888 45.7163 45.0625 44.2788 45.0625 42.5C45.0625 40.3975 42.8663 38.75 40.0625 38.75C38.5363 38.75 37.5625 38.01 37.5625 37.5C37.5625 36.99 38.5363 36.25 40.0625 36.25Z" fill="#1E81CE"/>
<path d="M76.642 21.6536L59.232 13.6636C59.0543 13.5821 58.8601 13.5435 58.6648 13.5507C58.4695 13.5579 58.2787 13.6107 58.1075 13.7051C57.9364 13.7994 57.7897 13.9325 57.6794 14.0938C57.569 14.255 57.4979 14.4399 57.472 14.6336L55.062 32.6249C55.0329 32.8423 55.0616 33.0636 55.1452 33.2665C55.2288 33.4693 55.3643 33.6466 55.5381 33.7805C55.7119 33.9144 55.9179 34.0002 56.1353 34.0293C56.3528 34.0583 56.5741 34.0296 56.777 33.9461L59.992 32.6249C61.4743 36.6262 61.7169 40.9813 60.6881 45.1225C59.6592 49.2638 57.4067 52.999 54.224 55.8414C51.0414 58.6837 47.0763 60.5014 42.8456 61.0574C38.6148 61.6135 34.3147 60.8821 30.5057 58.9586C30.2101 58.8096 29.8675 58.784 29.553 58.8874C29.2385 58.9907 28.9779 59.2146 28.8282 59.5099L23.187 70.6786C23.1127 70.8252 23.068 70.9851 23.0556 71.149C23.0431 71.3129 23.0632 71.4777 23.1145 71.6338C23.1658 71.79 23.2474 71.9345 23.3547 72.0591C23.4619 72.1837 23.5927 72.2859 23.7395 72.3599C30.409 75.7275 37.9564 76.9515 45.3483 75.8642C52.7403 74.7769 59.6156 71.4316 65.033 66.2861C70.4503 61.1407 74.145 54.4466 75.6111 47.1204C77.0773 39.7941 76.2432 32.1938 73.2232 25.3599L76.6107 23.9374C76.8345 23.8434 77.0262 23.6863 77.1622 23.4853C77.2983 23.2842 77.3728 23.0479 77.3768 22.8052C77.3808 22.5625 77.314 22.3239 77.1846 22.1185C77.0552 21.9131 76.8689 21.7498 76.6482 21.6486L76.642 21.6536ZM56.937 69.2274C52.2705 71.9283 47.0237 73.4691 41.6377 73.7201C36.2518 73.9712 30.8844 72.9251 25.987 70.6699L30.5095 61.7236C34.8838 63.6523 39.7387 64.215 44.4382 63.338C49.1378 62.4611 53.463 60.1853 56.8473 56.8088C60.2317 53.4322 62.5175 49.1123 63.4054 44.4148C64.2932 39.7173 63.7418 34.8612 61.8232 30.4824C61.692 30.1822 61.4483 29.9455 61.1444 29.8233C60.8405 29.701 60.5007 29.7029 60.1982 29.8286L57.8232 30.8074L59.7245 16.6399L73.012 22.7386L71.052 23.5624C70.8954 23.6283 70.7538 23.7255 70.6361 23.848C70.5183 23.9705 70.4267 24.1158 70.367 24.2749C70.3065 24.4338 70.2795 24.6035 70.2874 24.7734C70.2954 24.9433 70.3382 25.1097 70.4132 25.2624C74.1211 32.9401 74.7929 41.7349 72.2941 49.8868C69.7954 58.0386 64.3105 64.9463 56.937 69.2274Z" fill="#1E81CE"/>
<path d="M42.4128 69.911C41.6466 69.971 40.8691 70.001 40.1066 70.001C39.775 70.001 39.4571 70.1327 39.2227 70.3672C38.9883 70.6016 38.8566 70.9195 38.8566 71.251C38.8566 71.5826 38.9883 71.9005 39.2227 72.1349C39.4571 72.3693 39.775 72.501 40.1066 72.501C40.9341 72.501 41.7753 72.4685 42.6066 72.4035C42.9371 72.3777 43.2438 72.2216 43.4592 71.9696C43.6747 71.7176 43.7812 71.3903 43.7553 71.0598C43.7295 70.7293 43.5734 70.4225 43.3214 70.2071C43.0694 69.9917 42.7421 69.8852 42.4116 69.911H42.4128Z" fill="#1E81CE"/>
<path d="M70.0444 40.0772C70.0306 46.7607 67.7846 53.248 63.6629 58.5092C59.5413 63.7704 53.7802 67.504 47.2944 69.1172C46.9977 69.1903 46.7381 69.3695 46.5645 69.621C46.3909 69.8724 46.3155 70.1788 46.3524 70.4821C46.3894 70.7854 46.5361 71.0647 46.765 71.2672C46.9938 71.4696 47.2889 71.5813 47.5944 71.581C47.6968 71.5807 47.7988 71.5681 47.8982 71.5435C54.9239 69.7968 61.1647 65.7532 65.6299 60.0547C70.0951 54.3561 72.5287 47.3293 72.5444 40.0897C72.5452 39.9256 72.5137 39.7629 72.4517 39.6109C72.3896 39.4589 72.2982 39.3207 72.1827 39.204C72.0672 39.0874 71.9299 38.9946 71.7786 38.931C71.6272 38.8675 71.4648 38.8343 71.3007 38.8335H71.2944C70.964 38.8335 70.647 38.9643 70.4127 39.1974C70.1785 39.4305 70.0461 39.7468 70.0444 40.0772Z" fill="#1E81CE"/>
<path d="M37.5972 10.0937H37.6972C38.4647 10.0287 39.2447 10 40.0172 10C40.3487 10 40.6667 9.8683 40.9011 9.63388C41.1355 9.39946 41.2672 9.08152 41.2672 8.75C41.2672 8.41848 41.1355 8.10054 40.9011 7.86612C40.6667 7.6317 40.3487 7.5 40.0172 7.5C39.1797 7.5 38.3322 7.5325 37.4997 7.59875C37.1682 7.61168 36.8554 7.75578 36.6301 7.99934C36.4048 8.2429 36.2855 8.56598 36.2984 8.8975C36.3114 9.22902 36.4555 9.54183 36.699 9.76711C36.9426 9.99238 37.2657 10.1117 37.5972 10.0988V10.0937Z" fill="#1E81CE"/>
<path d="M25.0614 14.0184C27.4757 12.6242 30.0723 11.5725 32.7764 10.8934C33.0959 10.811 33.3698 10.6055 33.5384 10.3219C33.707 10.0382 33.7567 9.69944 33.6765 9.37935C33.5963 9.05927 33.3928 8.78388 33.1104 8.61323C32.8279 8.44259 32.4895 8.39054 32.1689 8.46844C25.1557 10.2253 18.929 14.2717 14.475 19.9667C10.021 25.6617 7.59417 32.6798 7.57886 39.9097C7.57886 40.2412 7.71055 40.5592 7.94497 40.7936C8.17939 41.028 8.49734 41.1597 8.82886 41.1597C9.16038 41.1597 9.47832 41.028 9.71274 40.7936C9.94716 40.5592 10.0789 40.2412 10.0789 39.9097C10.1092 34.6638 11.5072 29.5166 14.1346 24.9761C16.7621 20.4355 20.5283 16.6587 25.0614 14.0184Z" fill="#1E81CE"/>
<path d="M24.5868 46.2198C24.413 46.086 24.207 46.0004 23.9895 45.9714C23.7721 45.9424 23.5509 45.9712 23.3481 46.0548L20.1318 47.3811C18.6476 43.3794 18.4035 39.0233 19.4316 34.8809C20.4596 30.7384 22.712 27.0019 25.895 24.1585C29.0781 21.3151 33.044 19.4968 37.2757 18.9407C41.5074 18.3846 45.8085 19.1166 49.6181 21.0411C49.9137 21.19 50.2563 21.2156 50.5708 21.1123C50.8853 21.009 51.1459 20.7851 51.2956 20.4898L56.9431 9.32106C57.0173 9.17435 57.0619 9.01443 57.0743 8.85047C57.0866 8.6865 57.0665 8.52171 57.015 8.36553C56.9636 8.20936 56.8819 8.06486 56.7745 7.94033C56.6671 7.8158 56.5362 7.71367 56.3893 7.63981C49.7199 4.27181 42.1724 3.04759 34.7803 4.13473C27.3882 5.22188 20.5128 8.56727 15.0954 13.7129C9.67804 18.8584 5.98351 25.5527 4.51765 32.8791C3.0518 40.2055 3.88627 47.806 6.90682 54.6398L3.51932 56.0623C3.29549 56.1562 3.10385 56.3133 2.9678 56.5144C2.83176 56.7154 2.7572 56.9517 2.75322 57.1944C2.74924 57.4371 2.81602 57.6758 2.94541 57.8812C3.07479 58.0866 3.26118 58.2498 3.48182 58.3511L20.8918 66.3411C21.0694 66.4225 21.2637 66.4612 21.459 66.454C21.6543 66.4468 21.8451 66.3939 22.0163 66.2996C22.1874 66.2053 22.3341 66.0721 22.4444 65.9109C22.5548 65.7496 22.6258 65.5647 22.6518 65.3711L25.0618 47.3748C25.0909 47.1575 25.0623 46.9365 24.9789 46.7337C24.8955 46.531 24.7603 46.3538 24.5868 46.2198ZM20.3993 63.3598L7.11182 57.2611L9.07182 56.4373C9.22844 56.3713 9.36996 56.2741 9.48773 56.1516C9.60551 56.0291 9.69707 55.8839 9.75682 55.7248C9.81724 55.5658 9.84432 55.3961 9.83636 55.2262C9.8284 55.0564 9.78559 54.8899 9.71057 54.7373C6.67189 48.4834 5.63957 41.4433 6.75483 34.5803C7.87009 27.7172 11.0785 21.3663 15.941 16.3963C20.8036 11.4263 27.0829 8.07997 33.92 6.81507C40.7571 5.55016 47.818 6.42846 54.1368 9.32981L49.6143 18.2761C45.24 16.3474 40.3851 15.7846 35.6855 16.6616C30.986 17.5386 26.6608 19.8144 23.2764 23.1909C19.8921 26.5674 17.6063 30.8873 16.7184 35.5848C15.8306 40.2823 16.382 45.1385 18.3006 49.5173C18.4318 49.8175 18.6755 50.0541 18.9794 50.1764C19.2833 50.2987 19.6231 50.2967 19.9256 50.1711L22.3006 49.1923L20.3993 63.3598Z" fill="#1E81CE"/>
</svg>
