<svg width="81" height="80" viewBox="0 0 81 80" fill="none" xmlns="http://www.w3.org/2000/svg">
<path d="M26.925 44.2227L23.2813 45.1327C20.5766 45.8087 18.1756 47.3695 16.4599 49.567C14.7442 51.7644 13.8124 54.4723 13.8125 57.2602V77.5002H33.8125L26.925 44.2227Z" fill="#9BC9FF"/>
<path d="M40.0625 46.25L37.2725 48.4825L35.0625 77.5H45.0625L42.8525 48.4825L40.0625 46.25ZM40.0625 52.5L37.2125 51.55L40.0625 52.5L42.9125 51.55L40.0625 52.5Z" fill="#9BC9FF"/>
<path d="M56.8437 45.1327L53.2 44.2227L46.3125 77.5002H66.3125V57.2602C66.3126 54.4723 65.3808 51.7644 63.6651 49.567C61.9494 47.3695 59.5484 45.8087 56.8437 45.1327Z" fill="#9BC9FF"/>
<path d="M40.0625 46.25L33.8125 42.5L28.8125 43.75L33.8125 51.25L40.0625 46.25Z" fill="#9BC9FF"/>
<path d="M46.3125 51.25L51.3125 43.75L46.3125 42.5L40.0625 46.25L46.3125 51.25Z" fill="#9BC9FF"/>
<path d="M57.5625 5H22.5625C21.8995 5 21.2636 5.26339 20.7947 5.73223C20.3259 6.20107 20.0625 6.83696 20.0625 7.5V12.5H60.0625V7.5C60.0625 6.83696 59.7991 6.20107 59.3303 5.73223C58.8614 5.26339 58.2255 5 57.5625 5Z" fill="#9BC9FF"/>
<path d="M57.1499 43.925L51.6124 42.5375L47.5624 41.525V38.75H57.5624C58.556 38.747 59.5081 38.351 60.2108 37.6484C60.9134 36.9458 61.3094 35.9936 61.3124 35V7.5C61.3094 6.50635 60.9134 5.55425 60.2108 4.85163C59.5081 4.14901 58.556 3.75297 57.5624 3.75H22.5624C21.5687 3.75297 20.6166 4.14901 19.914 4.85163C19.2114 5.55425 18.8154 6.50635 18.8124 7.5V35C18.8154 35.9936 19.2114 36.9458 19.914 37.6484C20.6166 38.351 21.5687 38.747 22.5624 38.75H32.5624V41.525L28.5124 42.5375L22.9749 43.925C19.9986 44.665 17.3559 46.3806 15.4686 48.7981C13.5812 51.2156 12.5581 54.1956 12.5624 57.2625V77.5C12.5624 77.8315 12.6941 78.1495 12.9285 78.3839C13.1629 78.6183 13.4809 78.75 13.8124 78.75H66.3124C66.6439 78.75 66.9619 78.6183 67.1963 78.3839C67.4307 78.1495 67.5624 77.8315 67.5624 77.5V57.2625C67.5667 54.1956 66.5435 51.2156 64.6562 48.7981C62.7689 46.3806 60.1262 44.665 57.1499 43.925ZM49.2874 44.5375L46.0249 49.425L42.2499 46.4L46.5124 43.8375L49.2874 44.5375ZM40.0624 44.7875L35.0624 41.7875V38.75H45.0624V41.7875L40.0624 44.7875ZM41.5874 50.675L40.0624 51.1875L38.5374 50.675L38.6749 48.9625L40.0624 47.85L41.4499 48.9625L41.5874 50.675ZM21.3124 7.5C21.3124 7.16848 21.4441 6.85054 21.6785 6.61612C21.9129 6.3817 22.2309 6.25 22.5624 6.25H57.5624C57.8939 6.25 58.2119 6.3817 58.4463 6.61612C58.6807 6.85054 58.8124 7.16848 58.8124 7.5V11.25H21.3124V7.5ZM22.5624 36.25C22.2309 36.25 21.9129 36.1183 21.6785 35.8839C21.4441 35.6495 21.3124 35.3315 21.3124 35V13.75H58.8124V35C58.8124 35.3315 58.6807 35.6495 58.4463 35.8839C58.2119 36.1183 57.8939 36.25 57.5624 36.25H22.5624ZM33.6124 43.8375L37.8749 46.4L34.0999 49.425L30.8374 44.5375L33.6124 43.8375ZM25.0624 76.25V62.5C25.0624 62.1685 24.9307 61.8505 24.6963 61.6161C24.4619 61.3817 24.1439 61.25 23.8124 61.25C23.4809 61.25 23.1629 61.3817 22.9285 61.6161C22.6941 61.8505 22.5624 62.1685 22.5624 62.5V76.25H15.0624V57.2625C15.0577 54.752 15.8951 52.3125 17.4406 50.3342C18.9861 48.3559 21.1504 46.953 23.5874 46.35L25.9624 45.75L32.2749 76.25H25.0624ZM34.1749 73.075L28.4624 45.475L32.7749 51.9375C32.868 52.0855 32.9923 52.2114 33.1391 52.3064C33.2859 52.4014 33.4517 52.4632 33.6249 52.4875C33.6868 52.4979 33.7496 52.5021 33.8124 52.5C34.0947 52.5007 34.3686 52.4035 34.5874 52.225L35.9874 51.1125L34.1749 73.075ZM36.4249 76.25L38.3249 53.2375L39.6624 53.6875C39.9225 53.7708 40.2022 53.7708 40.4624 53.6875L41.7999 53.2375L43.6999 76.25H36.4249ZM44.1374 51.1125L45.5374 52.225C45.7562 52.4035 46.03 52.5007 46.3124 52.5C46.3752 52.5021 46.438 52.4979 46.4999 52.4875C46.6731 52.4632 46.8389 52.4014 46.9857 52.3064C47.1325 52.2114 47.2568 52.0855 47.3499 51.9375L51.6624 45.475L45.9499 73.075L44.1374 51.1125ZM65.0624 76.25H57.5624V62.5C57.5624 62.1685 57.4307 61.8505 57.1963 61.6161C56.9619 61.3817 56.6439 61.25 56.3124 61.25C55.9809 61.25 55.6629 61.3817 55.4285 61.6161C55.1941 61.8505 55.0624 62.1685 55.0624 62.5V76.25H47.8499L54.1624 45.75L56.5374 46.35C58.9744 46.953 61.1387 48.3559 62.6842 50.3342C64.2297 52.3125 65.0671 54.752 65.0624 57.2625V76.25Z" fill="#1E81CE"/>
<path d="M40.0625 21.25C41.5887 21.25 42.5625 21.99 42.5625 22.5C42.5625 22.8315 42.6942 23.1495 42.9286 23.3839C43.163 23.6183 43.481 23.75 43.8125 23.75C44.144 23.75 44.462 23.6183 44.6964 23.3839C44.9308 23.1495 45.0625 22.8315 45.0625 22.5C45.0625 20.7238 43.4888 19.2863 41.3125 18.875V17.5C41.3125 17.1685 41.1808 16.8505 40.9464 16.6161C40.712 16.3817 40.394 16.25 40.0625 16.25C39.731 16.25 39.413 16.3817 39.1786 16.6161C38.9442 16.8505 38.8125 17.1685 38.8125 17.5V18.875C36.6362 19.2838 35.0625 20.7213 35.0625 22.5C35.0625 24.6025 37.2587 26.25 40.0625 26.25C41.5887 26.25 42.5625 26.99 42.5625 27.5C42.5625 28.01 41.5887 28.75 40.0625 28.75C38.5363 28.75 37.5625 28.01 37.5625 27.5C37.5625 27.1685 37.4308 26.8505 37.1964 26.6161C36.962 26.3817 36.644 26.25 36.3125 26.25C35.981 26.25 35.663 26.3817 35.4286 26.6161C35.1942 26.8505 35.0625 27.1685 35.0625 27.5C35.0625 29.2762 36.6362 30.7137 38.8125 31.125V32.5C38.8125 32.8315 38.9442 33.1495 39.1786 33.3839C39.413 33.6183 39.731 33.75 40.0625 33.75C40.394 33.75 40.712 33.6183 40.9464 33.3839C41.1808 33.1495 41.3125 32.8315 41.3125 32.5V31.125C43.4888 30.7162 45.0625 29.2788 45.0625 27.5C45.0625 25.3975 42.8663 23.75 40.0625 23.75C38.5363 23.75 37.5625 23.01 37.5625 22.5C37.5625 21.99 38.5363 21.25 40.0625 21.25Z" fill="#1E81CE"/>
<path d="M48.8125 23.75H47.5625C47.231 23.75 46.913 23.8817 46.6786 24.1161C46.4442 24.3505 46.3125 24.6685 46.3125 25C46.3125 25.3315 46.4442 25.6495 46.6786 25.8839C46.913 26.1183 47.231 26.25 47.5625 26.25H48.8125C49.144 26.25 49.462 26.1183 49.6964 25.8839C49.9308 25.6495 50.0625 25.3315 50.0625 25C50.0625 24.6685 49.9308 24.3505 49.6964 24.1161C49.462 23.8817 49.144 23.75 48.8125 23.75Z" fill="#1E81CE"/>
<path d="M32.5625 23.75H31.3125C30.981 23.75 30.663 23.8817 30.4286 24.1161C30.1942 24.3505 30.0625 24.6685 30.0625 25C30.0625 25.3315 30.1942 25.6495 30.4286 25.8839C30.663 26.1183 30.981 26.25 31.3125 26.25H32.5625C32.894 26.25 33.212 26.1183 33.4464 25.8839C33.6808 25.6495 33.8125 25.3315 33.8125 25C33.8125 24.6685 33.6808 24.3505 33.4464 24.1161C33.212 23.8817 32.894 23.75 32.5625 23.75Z" fill="#1E81CE"/>
<path d="M23.8125 7.5H26.3125V10H23.8125V7.5Z" fill="#1E81CE"/>
<path d="M28.8125 7.5H31.3125V10H28.8125V7.5Z" fill="#1E81CE"/>
<path d="M33.8125 7.5H36.3125V10H33.8125V7.5Z" fill="#1E81CE"/>
</svg>
