<svg width="81" height="80" viewBox="0 0 81 80" fill="none" xmlns="http://www.w3.org/2000/svg">
<path d="M56.2975 55C53.055 63.965 47.0013 70 40.0625 70C48.019 70 55.6496 66.8393 61.2757 61.2132C66.9018 55.5871 70.0625 47.9565 70.0625 40H58.8125C58.8437 45.1075 57.9928 50.182 56.2975 55Z" fill="#9BC9FF"/>
<path d="M23.8275 55C22.1322 50.182 21.2813 45.1075 21.3125 40H10.0625C10.0625 47.9565 13.2232 55.5871 18.8493 61.2132C24.4754 66.8393 32.106 70 40.0625 70C33.1238 70 27.07 63.965 23.8275 55Z" fill="#9BC9FF"/>
<path d="M40.0625 10C47.0013 10 53.055 16.035 56.2975 25C57.9928 29.818 58.8437 34.8925 58.8125 40H70.0625C70.0625 32.0435 66.9018 24.4129 61.2757 18.7868C55.6496 13.1607 48.019 10 40.0625 10Z" fill="#9BC9FF"/>
<path d="M23.8275 25C27.07 16.035 33.1238 10 40.0625 10C32.106 10 24.4754 13.1607 18.8493 18.7868C13.2232 24.4129 10.0625 32.0435 10.0625 40H21.3125C21.2813 34.8925 22.1322 29.818 23.8275 25Z" fill="#9BC9FF"/>
<path d="M23.8278 25H40.0628V10C33.124 10 27.0703 16.035 23.8278 25Z" fill="#9BC9FF"/>
<path d="M56.2975 55H40.0625V70C47.0013 70 53.055 63.965 56.2975 55Z" fill="#9BC9FF"/>
<path d="M40.063 28.75V25H23.828C22.1326 29.818 21.2818 34.8925 21.313 40H28.813C28.813 37.0163 29.9982 34.1548 32.108 32.045C34.2178 29.9353 37.0793 28.75 40.063 28.75Z" fill="#9BC9FF"/>
<path d="M23.8278 55C27.0703 63.965 33.124 70 40.0628 70V55H23.8278Z" fill="#9BC9FF"/>
<path d="M28.813 40H21.313C21.2818 45.1075 22.1326 50.182 23.828 55H40.063V51.25C37.0793 51.25 34.2178 50.0647 32.108 47.955C29.9982 45.8452 28.813 42.9837 28.813 40Z" fill="#9BC9FF"/>
<path d="M40.0625 28.75C43.0462 28.75 45.9077 29.9353 48.0175 32.045C50.1272 34.1548 51.3125 37.0163 51.3125 40H58.8125C58.8437 34.8925 57.9928 29.818 56.2975 25H40.0625V28.75Z" fill="#9BC9FF"/>
<path d="M40.0625 51.25V55H56.2975C57.9928 50.182 58.8437 45.1075 58.8125 40H51.3125C51.3125 42.9837 50.1272 45.8452 48.0175 47.955C45.9077 50.0647 43.0462 51.25 40.0625 51.25Z" fill="#9BC9FF"/>
<path d="M56.2975 25C53.055 16.035 47.0013 10 40.0625 10V25H56.2975Z" fill="#9BC9FF"/>
<path d="M40.0625 36.25C41.5887 36.25 42.5625 36.99 42.5625 37.5C42.5625 37.8315 42.6942 38.1495 42.9286 38.3839C43.163 38.6183 43.481 38.75 43.8125 38.75C44.144 38.75 44.462 38.6183 44.6964 38.3839C44.9308 38.1495 45.0625 37.8315 45.0625 37.5C45.0625 35.7238 43.4888 34.2863 41.3125 33.875V32.5C41.3125 32.1685 41.1808 31.8505 40.9464 31.6161C40.712 31.3817 40.394 31.25 40.0625 31.25C39.731 31.25 39.413 31.3817 39.1786 31.6161C38.9442 31.8505 38.8125 32.1685 38.8125 32.5V33.875C36.6362 34.2838 35.0625 35.7213 35.0625 37.5C35.0625 39.6025 37.2587 41.25 40.0625 41.25C41.5887 41.25 42.5625 41.99 42.5625 42.5C42.5625 43.01 41.5887 43.75 40.0625 43.75C38.5363 43.75 37.5625 43.01 37.5625 42.5C37.5625 42.1685 37.4308 41.8505 37.1964 41.6161C36.962 41.3817 36.644 41.25 36.3125 41.25C35.981 41.25 35.663 41.3817 35.4286 41.6161C35.1942 41.8505 35.0625 42.1685 35.0625 42.5C35.0625 44.2762 36.6362 45.7138 38.8125 46.125V47.5C38.8125 47.8315 38.9442 48.1495 39.1786 48.3839C39.413 48.6183 39.731 48.75 40.0625 48.75C40.394 48.75 40.712 48.6183 40.9464 48.3839C41.1808 48.1495 41.3125 47.8315 41.3125 47.5V46.125C43.4888 45.7163 45.0625 44.2788 45.0625 42.5C45.0625 40.3975 42.8663 38.75 40.0625 38.75C38.5363 38.75 37.5625 38.01 37.5625 37.5C37.5625 36.99 38.5363 36.25 40.0625 36.25Z" fill="#1E81CE"/>
<path d="M36.1625 5.20773C36.2076 5.20773 36.2527 5.20522 36.2975 5.20023C37.1088 5.11273 37.9225 5.05398 38.7312 5.02648C38.8955 5.02084 39.0571 4.98284 39.2067 4.91467C39.3563 4.8465 39.491 4.7495 39.603 4.62921C39.7151 4.50892 39.8023 4.36771 39.8597 4.21366C39.9171 4.05962 39.9435 3.89576 39.9375 3.73148C39.9219 3.40146 39.7778 3.09063 39.5361 2.86545C39.2943 2.64027 38.974 2.51861 38.6437 2.52648C37.7813 2.55773 36.9038 2.62148 36.0338 2.71398C35.7022 2.73139 35.3912 2.87978 35.1691 3.1265C34.947 3.37323 34.832 3.69809 34.8494 4.02961C34.8668 4.36113 35.0152 4.67216 35.2619 4.89427C35.5086 5.11638 35.8335 5.23139 36.165 5.21398L36.1625 5.20773Z" fill="#1E81CE"/>
<path d="M21.854 9.89898C22.0737 9.89821 22.2892 9.83958 22.479 9.72898C23.179 9.32148 23.9028 8.93273 24.6265 8.57648C24.7744 8.50445 24.9067 8.40393 25.0157 8.28068C25.1247 8.15742 25.2082 8.01387 25.2616 7.85824C25.315 7.70262 25.3372 7.53798 25.3268 7.37378C25.3164 7.20958 25.2737 7.04905 25.2011 6.90138C25.1286 6.75372 25.0276 6.62183 24.904 6.51328C24.7803 6.40474 24.6365 6.32166 24.4806 6.26883C24.3248 6.216 24.1601 6.19445 23.996 6.20542C23.8318 6.21638 23.6714 6.25965 23.524 6.33273C22.7465 6.71523 21.9715 7.13148 21.2203 7.56898C20.9832 7.70712 20.7982 7.91941 20.6937 8.17312C20.5893 8.42682 20.5712 8.70784 20.6423 8.97284C20.7134 9.23784 20.8697 9.47208 21.0871 9.63946C21.3045 9.80683 21.5709 9.89802 21.8453 9.89898H21.854Z" fill="#1E81CE"/>
<path d="M28.7606 6.79769C28.8931 6.7971 29.0246 6.77601 29.1506 6.73519C29.9156 6.48519 30.7044 6.25519 31.4956 6.05644C31.8172 5.97538 32.0934 5.7699 32.2635 5.48519C32.4335 5.20049 32.4835 4.85989 32.4025 4.53831C32.3214 4.21674 32.1159 3.94053 31.8312 3.77046C31.5465 3.60039 31.2059 3.55038 30.8844 3.63143C30.0369 3.84518 29.1919 4.09018 28.3706 4.35893C28.0873 4.45104 27.8462 4.64131 27.6907 4.89545C27.5353 5.1496 27.4757 5.4509 27.5228 5.74508C27.5698 6.03926 27.7204 6.30696 27.9473 6.49995C28.1743 6.69294 28.4627 6.79853 28.7606 6.79769Z" fill="#1E81CE"/>
<path d="M15.7412 14.3751C16.0513 14.375 16.3502 14.2596 16.58 14.0514C17.1775 13.5101 17.805 12.9801 18.445 12.4776C18.5748 12.3762 18.6834 12.2502 18.7646 12.1067C18.8457 11.9633 18.8978 11.8053 18.9179 11.6418C18.938 11.4782 18.9256 11.3123 18.8816 11.1536C18.8376 10.9948 18.7627 10.8462 18.6612 10.7164C18.5598 10.5865 18.4338 10.4779 18.2904 10.3968C18.1469 10.3157 17.989 10.2636 17.8254 10.2435C17.6619 10.2234 17.496 10.2357 17.3372 10.2798C17.1784 10.3238 17.0298 10.3987 16.9 10.5001C16.2137 11.0389 15.5412 11.6076 14.9 12.1876C14.7129 12.3572 14.5815 12.5794 14.5232 12.8251C14.4649 13.0708 14.4823 13.3284 14.5732 13.564C14.6642 13.7996 14.8243 14.0021 15.0326 14.1449C15.2409 14.2876 15.4875 14.364 15.74 14.3639L15.7412 14.3751Z" fill="#1E81CE"/>
<path d="M4.32536 33.7651C4.4101 33.7824 4.49636 33.7912 4.58286 33.7913C4.87059 33.7908 5.14934 33.691 5.37205 33.5089C5.59477 33.3267 5.74781 33.0732 5.80536 32.7913C5.97036 32.0026 6.16536 31.2051 6.38786 30.4163C6.45762 30.1035 6.40452 29.7758 6.23954 29.5009C6.07455 29.2261 5.8103 29.0251 5.50137 28.9396C5.19245 28.8541 4.86247 28.8905 4.57963 29.0413C4.29679 29.1922 4.0827 29.4459 3.98161 29.7501C3.74411 30.5901 3.53411 31.4451 3.35661 32.2901C3.29008 32.6141 3.35467 32.9512 3.53625 33.2277C3.71783 33.5042 4.00159 33.6974 4.32536 33.7651Z" fill="#1E81CE"/>
<path d="M6.39735 26.4714C6.55652 26.543 6.72906 26.5801 6.9036 26.5802C7.14629 26.5796 7.38355 26.5083 7.58643 26.3751C7.78931 26.242 7.94903 26.0526 8.0461 25.8302C8.3736 25.0927 8.7336 24.3527 9.11485 23.6327C9.27 23.3396 9.30238 22.9969 9.20486 22.68C9.10734 22.363 8.88792 22.0978 8.59485 21.9427C8.30179 21.7875 7.95909 21.7551 7.64216 21.8527C7.32522 21.9502 7.06 22.1696 6.90485 22.4627C6.4961 23.2339 6.11235 24.0264 5.7611 24.8177C5.6939 24.968 5.65704 25.1301 5.65266 25.2947C5.64828 25.4593 5.67646 25.6231 5.73559 25.7768C5.79471 25.9304 5.8836 26.0709 5.99717 26.1901C6.11073 26.3093 6.24673 26.4049 6.39735 26.4714Z" fill="#1E81CE"/>
<path d="M10.6881 20.0104C10.8858 20.0106 11.0808 19.964 11.2571 19.8742C11.4333 19.7845 11.5857 19.6542 11.7018 19.4941C12.1781 18.8354 12.6831 18.1866 13.2018 17.5654C13.4143 17.3104 13.5168 16.9815 13.4868 16.651C13.4568 16.3204 13.2968 16.0154 13.0418 15.8028C12.7869 15.5903 12.458 15.4878 12.1274 15.5178C11.7969 15.5478 11.4918 15.7079 11.2793 15.9629C10.7231 16.6279 10.1831 17.3229 9.67181 18.0279C9.57488 18.161 9.50522 18.312 9.46682 18.4721C9.42843 18.6323 9.42205 18.7984 9.44807 18.9611C9.47409 19.1237 9.53199 19.2795 9.61844 19.4197C9.70489 19.5599 9.81818 19.6816 9.95181 19.7779C10.1661 19.932 10.4241 20.0134 10.6881 20.0104Z" fill="#1E81CE"/>
<path d="M65.1566 15.6016C65.2705 15.7212 65.4071 15.8171 65.5583 15.8836C65.7095 15.9501 65.8724 15.986 66.0376 15.9892C66.2028 15.9923 66.367 15.9627 66.5207 15.9021C66.6743 15.8414 66.8144 15.7508 66.9329 15.6357C67.0514 15.5205 67.1458 15.383 67.2108 15.2311C67.2758 15.0792 67.3101 14.916 67.3116 14.7508C67.3131 14.5855 67.2818 14.4217 67.2196 14.2686C67.1574 14.1156 67.0654 13.9764 66.9491 13.8591C66.3466 13.2341 65.7128 12.6303 65.0616 12.0478C64.814 11.8303 64.4906 11.7194 64.1617 11.7391C63.8328 11.7588 63.525 11.9075 63.3052 12.153C63.0854 12.3985 62.9714 12.7209 62.988 13.05C63.0047 13.3791 63.1506 13.6883 63.3941 13.9103C64.0016 14.4541 64.5941 15.0241 65.1566 15.6016Z" fill="#1E81CE"/>
<path d="M43.6155 5.1776C44.4168 5.25885 45.2305 5.36885 46.033 5.50635C46.1959 5.53684 46.3633 5.53461 46.5253 5.49982C46.6874 5.46502 46.8409 5.39834 46.9769 5.30366C47.113 5.20899 47.2288 5.0882 47.3178 4.94833C47.4067 4.80846 47.4669 4.65231 47.4949 4.48895C47.5229 4.32559 47.5182 4.15829 47.4809 3.99679C47.4437 3.83528 47.3747 3.6828 47.278 3.5482C47.1813 3.41361 47.0587 3.2996 46.9175 3.2128C46.7763 3.126 46.6193 3.06814 46.4555 3.0426C45.5968 2.8951 44.7243 2.77635 43.8643 2.6901C43.7009 2.67369 43.536 2.6896 43.3788 2.73694C43.2216 2.78428 43.0753 2.86212 42.9482 2.966C42.8211 3.06989 42.7157 3.19779 42.638 3.34241C42.5604 3.48702 42.5119 3.64552 42.4955 3.80885C42.4791 3.97219 42.495 4.13715 42.5424 4.29433C42.5897 4.45151 42.6675 4.59783 42.7714 4.72493C42.8753 4.85203 43.0032 4.95742 43.1478 5.03509C43.2924 5.11276 43.4509 5.16119 43.6143 5.1776H43.6155Z" fill="#1E81CE"/>
<path d="M74.2742 32.5826C74.4442 33.3701 74.5892 34.1789 74.7054 34.9864C74.7481 35.2839 74.8966 35.5561 75.1236 35.7531C75.3507 35.9501 75.6411 36.0586 75.9417 36.0589C76.0019 36.0586 76.0621 36.054 76.1217 36.0451C76.2851 36.0225 76.4425 35.9677 76.5846 35.8839C76.7268 35.8001 76.851 35.689 76.95 35.557C77.049 35.425 77.1209 35.2747 77.1615 35.1147C77.2021 34.9548 77.2107 34.7884 77.1867 34.6251C77.0617 33.7601 76.9067 32.8939 76.7242 32.0514C76.6506 31.7311 76.454 31.4527 76.1767 31.2763C75.8995 31.1 75.5639 31.0399 75.2427 31.1091C74.9215 31.1782 74.6404 31.3711 74.4603 31.646C74.2802 31.9208 74.2156 32.2555 74.2804 32.5776L74.2742 32.5826Z" fill="#1E81CE"/>
<path d="M69.6795 21.3453C69.8562 21.6261 70.1372 21.8252 70.4607 21.8988C70.7842 21.9724 71.1237 21.9145 71.4045 21.7378C71.6853 21.5611 71.8844 21.2801 71.958 20.9566C72.0316 20.6331 71.9737 20.2936 71.797 20.0128C71.3357 19.2815 70.8395 18.554 70.3245 17.8503C70.2308 17.7097 70.1095 17.5895 69.9681 17.4971C69.8266 17.4046 69.6679 17.3418 69.5015 17.3125C69.3351 17.2831 69.1645 17.2878 68.9999 17.3262C68.8354 17.3647 68.6803 17.4361 68.5441 17.5361C68.408 17.6362 68.2935 17.7628 68.2077 17.9084C68.1218 18.0539 68.0664 18.2154 68.0447 18.3829C68.023 18.5505 68.0355 18.7208 68.0814 18.8834C68.1274 19.046 68.2058 19.1976 68.312 19.329C68.7895 19.9853 69.252 20.6628 69.6795 21.3453Z" fill="#1E81CE"/>
<path d="M71.9915 25.6415C72.3228 26.3752 72.6328 27.1352 72.9153 27.899C72.9691 28.0569 73.054 28.2026 73.165 28.3272C73.276 28.4518 73.4108 28.553 73.5616 28.6247C73.7123 28.6964 73.8758 28.7372 74.0426 28.7446C74.2093 28.7521 74.3759 28.7261 74.5324 28.6682C74.6889 28.6102 74.8323 28.5215 74.954 28.4073C75.0757 28.2931 75.1732 28.1556 75.241 28.0031C75.3087 27.8505 75.3452 27.686 75.3483 27.5191C75.3514 27.3522 75.321 27.1864 75.259 27.0315C74.9578 26.214 74.624 25.4065 74.2715 24.6152C74.2041 24.4655 74.1079 24.3305 73.9884 24.218C73.8688 24.1055 73.7283 24.0176 73.5748 23.9594C73.4213 23.9012 73.2578 23.8738 73.0937 23.8787C72.9296 23.8837 72.7681 23.9209 72.6184 23.9883C72.4687 24.0557 72.3337 24.1519 72.2212 24.2715C72.1087 24.391 72.0208 24.5316 71.9626 24.6851C71.9044 24.8386 71.877 25.002 71.8819 25.1661C71.8869 25.3302 71.9241 25.4918 71.9915 25.6415Z" fill="#1E81CE"/>
<path d="M5.0625 40C5.0625 39.2033 5.08875 38.4142 5.14125 37.6325C5.1632 37.3018 5.05294 36.976 4.83472 36.7266C4.61649 36.4772 4.30816 36.3246 3.9775 36.3025C3.81341 36.2894 3.64836 36.3093 3.49207 36.361C3.33578 36.4126 3.19142 36.4951 3.06747 36.6034C2.94353 36.7117 2.84253 36.8438 2.7704 36.9917C2.69827 37.1397 2.65649 37.3006 2.6475 37.465C2.59125 38.3025 2.5625 39.155 2.5625 39.965V40.0712C2.56327 40.2334 2.59642 40.3937 2.66 40.5429C2.72358 40.692 2.81631 40.8269 2.93274 40.9398C3.04918 41.0526 3.18697 41.141 3.33805 41.1999C3.48912 41.2587 3.65043 41.2868 3.8125 41.2825C4.14698 41.274 4.4649 41.1352 4.69843 40.8956C4.93196 40.656 5.06261 40.3346 5.0625 40Z" fill="#1E81CE"/>
<path d="M50.7715 6.6677C51.5465 6.9177 52.3215 7.1952 53.0715 7.49645C53.2246 7.56154 53.3891 7.59542 53.5554 7.59611C53.7218 7.5968 53.8866 7.56428 54.0402 7.50047C54.1938 7.43665 54.3331 7.34281 54.45 7.22446C54.5669 7.10611 54.659 6.96562 54.7209 6.81122C54.7828 6.65683 54.8132 6.49163 54.8105 6.32531C54.8077 6.159 54.7717 5.99491 54.7047 5.84266C54.6378 5.69041 54.541 5.55306 54.4203 5.43866C54.2995 5.32427 54.1572 5.23512 54.0015 5.17645C53.1965 4.8527 52.3665 4.55145 51.5365 4.2877C51.2283 4.20919 50.9017 4.25114 50.6233 4.40499C50.3449 4.55884 50.1357 4.81303 50.0382 5.11579C49.9406 5.41854 49.9622 5.74708 50.0985 6.03449C50.2347 6.3219 50.4754 6.54656 50.7715 6.6627V6.6677Z" fill="#1E81CE"/>
<path d="M57.4642 9.62511C58.1667 10.0276 58.8642 10.4626 59.538 10.9139C59.6742 11.0058 59.8272 11.07 59.9883 11.1028C60.1493 11.1355 60.3153 11.1363 60.4766 11.105C60.638 11.0736 60.7916 11.0108 60.9286 10.9201C61.0657 10.8294 61.1836 10.7126 61.2755 10.5764C61.3674 10.4401 61.4316 10.2871 61.4644 10.126C61.4972 9.96498 61.4979 9.79905 61.4666 9.63771C61.4352 9.47637 61.3724 9.32278 61.2817 9.18571C61.191 9.04864 61.0742 8.93078 60.938 8.83886C60.2155 8.35511 59.4692 7.89011 58.7155 7.46386C58.4279 7.2981 58.0862 7.25337 57.7656 7.33952C57.4451 7.42567 57.1719 7.63564 57.0061 7.92323C56.8403 8.21082 56.7956 8.55249 56.8818 8.87306C56.9679 9.19363 57.1779 9.46685 57.4655 9.63261L57.4642 9.62511Z" fill="#1E81CE"/>
<path d="M50.9064 73.2879C50.1314 73.5379 49.3413 73.7667 48.5613 73.9604C48.401 73.999 48.25 74.069 48.1168 74.1663C47.9837 74.2635 47.8711 74.3862 47.7855 74.5271C47.7 74.6681 47.6432 74.8246 47.6184 74.9876C47.5935 75.1506 47.6012 75.3169 47.641 75.4769C47.6807 75.6369 47.7517 75.7875 47.8499 75.92C47.9481 76.0524 48.0715 76.1642 48.2131 76.2487C48.3546 76.3333 48.5115 76.389 48.6747 76.4127C48.8379 76.4364 49.0041 76.4275 49.1638 76.3867C50.0013 76.1792 50.8489 75.9367 51.6801 75.6654C51.8423 75.6199 51.9937 75.542 52.1251 75.4365C52.2565 75.331 52.3652 75.2 52.4446 75.0514C52.5241 74.9029 52.5727 74.7397 52.5875 74.5719C52.6024 74.404 52.5831 74.2349 52.5309 74.0747C52.4787 73.9145 52.3946 73.7665 52.2838 73.6396C52.1729 73.5127 52.0376 73.4095 51.8858 73.3362C51.7341 73.263 51.5691 73.2212 51.4008 73.2133C51.2324 73.2054 51.0643 73.2316 50.9064 73.2904V73.2879Z" fill="#1E81CE"/>
<path d="M68.3864 60.5665C67.9126 61.2178 67.4064 61.8653 66.8864 62.4928C66.7775 62.6181 66.6947 62.7639 66.6429 62.9216C66.591 63.0793 66.571 63.2458 66.5842 63.4113C66.5973 63.5768 66.6433 63.738 66.7195 63.8855C66.7956 64.033 66.9004 64.1639 67.0276 64.2705C67.1549 64.3771 67.3021 64.4573 67.4607 64.5064C67.6193 64.5555 67.7861 64.5725 67.9513 64.5564C68.1166 64.5403 68.277 64.4915 68.4231 64.4127C68.5693 64.334 68.6983 64.2269 68.8026 64.0978C69.3639 63.4265 69.9064 62.734 70.4126 62.0365C70.5139 61.9041 70.5876 61.7528 70.6296 61.5915C70.6715 61.4301 70.6807 61.262 70.6567 61.0971C70.6327 60.9321 70.5759 60.7736 70.4898 60.6309C70.4036 60.4882 70.2898 60.3642 70.155 60.2662C70.0201 60.1681 69.8671 60.098 69.7048 60.06C69.5425 60.022 69.3742 60.0169 69.2099 60.0448C69.0456 60.0728 68.8885 60.1334 68.7479 60.223C68.6073 60.3126 68.4861 60.4294 68.3913 60.5665H68.3864Z" fill="#1E81CE"/>
<path d="M73.6998 53.5991C73.397 53.4644 73.053 53.4555 72.7436 53.5743C72.4342 53.6932 72.1846 53.93 72.0498 54.2329C71.7211 54.9679 71.3598 55.7066 70.9761 56.4291C70.8207 56.7219 70.7879 57.0643 70.8849 57.3813C70.982 57.6982 71.2009 57.9636 71.4936 58.1191C71.6735 58.2155 71.8745 58.2657 72.0786 58.2654C72.3056 58.2657 72.5284 58.2042 72.723 58.0874C72.9177 57.9707 73.0769 57.8032 73.1836 57.6029C73.5948 56.8304 73.9823 56.0391 74.3323 55.2491C74.4671 54.9464 74.4762 54.6026 74.3576 54.2932C74.239 53.9838 74.0024 53.7341 73.6998 53.5991Z" fill="#1E81CE"/>
<path d="M75.7864 46.3102C75.4622 46.242 75.1242 46.3054 74.8467 46.4864C74.5692 46.6673 74.3749 46.951 74.3064 47.2752C74.1401 48.0627 73.9426 48.8589 73.7176 49.6502C73.6266 49.9687 73.6658 50.3104 73.8266 50.6001C73.9874 50.8898 74.2566 51.1039 74.5751 51.1952C74.6877 51.2278 74.8042 51.2442 74.9214 51.2439C75.1929 51.2438 75.4569 51.1553 75.6737 50.9918C75.8904 50.8283 76.048 50.5987 76.1226 50.3377C76.3626 49.4964 76.5739 48.6414 76.7476 47.7964C76.7823 47.6357 76.785 47.4697 76.7554 47.308C76.7258 47.1462 76.6647 46.9919 76.5754 46.8538C76.4861 46.7158 76.3704 46.5967 76.235 46.5034C76.0997 46.4101 75.9472 46.3444 75.7864 46.3102Z" fill="#1E81CE"/>
<path d="M63.491 66.0002C62.8885 66.544 62.2585 67.0727 61.616 67.5727C61.4805 67.6715 61.3662 67.7966 61.28 67.9405C61.1938 68.0844 61.1374 68.2442 61.1143 68.4104C61.0911 68.5765 61.1016 68.7457 61.1452 68.9077C61.1888 69.0696 61.2646 69.2212 61.368 69.3533C61.4714 69.4854 61.6003 69.5954 61.7471 69.6766C61.8939 69.7578 62.0555 69.8087 62.2224 69.8261C62.3892 69.8435 62.5579 69.8272 62.7183 69.7781C62.8787 69.729 63.0275 69.6481 63.156 69.5402C63.8398 69.0052 64.5135 68.439 65.156 67.859C65.3799 67.6325 65.509 67.3292 65.5169 67.0108C65.5247 66.6925 65.4108 66.3832 65.1983 66.146C64.9859 65.9088 64.6909 65.7616 64.3736 65.7345C64.0563 65.7074 63.7406 65.8025 63.491 66.0002Z" fill="#1E81CE"/>
<path d="M43.7545 74.8077C42.947 74.8927 42.1295 74.9489 41.3207 74.9764C40.9892 74.9819 40.6734 75.1189 40.4429 75.3571C40.2123 75.5954 40.0859 75.9155 40.0914 76.2471C40.0968 76.5786 40.2338 76.8944 40.4721 77.1249C40.7103 77.3555 41.0305 77.4819 41.362 77.4764H41.4057C42.272 77.4477 43.1495 77.3864 44.0157 77.2952C44.3437 77.2584 44.6438 77.0934 44.8505 76.8362C45.0573 76.5791 45.154 76.2505 45.1195 75.9224C45.085 75.5942 44.9222 75.2929 44.6664 75.0843C44.4107 74.8758 44.0829 74.7768 43.7545 74.8089V74.8077Z" fill="#1E81CE"/>
<path d="M76.312 38.5991C75.9805 38.5991 75.6625 38.7308 75.4281 38.9652C75.1937 39.1997 75.062 39.5176 75.062 39.8491V40.0004C75.062 40.8116 75.0345 41.6341 74.9782 42.4404C74.9668 42.6042 74.9878 42.7687 75.0401 42.9244C75.0923 43.0801 75.1746 43.224 75.2825 43.3479C75.3903 43.4717 75.5215 43.5731 75.6686 43.6463C75.8156 43.7194 75.9756 43.7628 76.1395 43.7741H76.227C76.5441 43.7749 76.8496 43.6551 77.0817 43.439C77.3138 43.2229 77.4551 42.9267 77.477 42.6104C77.532 41.7504 77.562 40.8754 77.562 40.0004V39.8491C77.562 39.5176 77.4303 39.1997 77.1959 38.9652C76.9615 38.7308 76.6435 38.5991 76.312 38.5991Z" fill="#1E81CE"/>
<path d="M57.5818 70.3076C56.8793 70.7138 56.1555 71.1001 55.4293 71.4563C55.1742 71.5798 54.9687 71.7864 54.8465 72.042C54.7242 72.2977 54.6924 72.5873 54.7563 72.8633C54.8203 73.1394 54.9761 73.3856 55.1983 73.5615C55.4205 73.7373 55.6959 73.8325 55.9793 73.8313C56.1694 73.8325 56.3572 73.7897 56.528 73.7063C57.3068 73.3313 58.0818 72.9126 58.8343 72.4776C59.1107 72.3066 59.3096 72.0347 59.3889 71.7195C59.4681 71.4043 59.4216 71.0707 59.259 70.7893C59.0964 70.5079 58.8306 70.3008 58.518 70.2121C58.2054 70.1233 57.8705 70.1598 57.5843 70.3138L57.5818 70.3076Z" fill="#1E81CE"/>
<path d="M29.2835 73.309C28.511 73.059 27.7385 72.7803 26.986 72.4765C26.8332 72.4122 26.6691 72.379 26.5033 72.3787C26.3375 72.3784 26.1734 72.4111 26.0203 72.4748C25.8673 72.5386 25.7285 72.6322 25.6119 72.7501C25.4954 72.868 25.4035 73.0079 25.3416 73.1617C25.2797 73.3155 25.2489 73.4801 25.2512 73.6459C25.2535 73.8116 25.2887 73.9753 25.3549 74.1273C25.421 74.2793 25.5167 74.4167 25.6364 74.5314C25.7562 74.646 25.8975 74.7358 26.0522 74.7953C26.8585 75.1203 27.6872 75.4203 28.5147 75.689C28.6392 75.7288 28.769 75.7495 28.8997 75.7503C29.1985 75.7515 29.4878 75.6457 29.7152 75.452C29.9427 75.2583 30.0933 74.9895 30.1396 74.6944C30.186 74.3993 30.1252 74.0973 29.9681 73.8432C29.8111 73.589 29.5682 73.3996 29.2835 73.309Z" fill="#1E81CE"/>
<path d="M36.4373 74.8154C35.6373 74.7329 34.8236 74.6204 34.0186 74.4817C33.6919 74.4252 33.3561 74.5007 33.0851 74.6918C32.8141 74.8828 32.6301 75.1737 32.5736 75.5004C32.5171 75.8271 32.5927 76.1629 32.7837 76.4339C32.9748 76.7049 33.2656 76.8889 33.5924 76.9454C34.4536 77.0942 35.3248 77.2142 36.1823 77.3017C36.2238 77.3065 36.2656 77.309 36.3073 77.3092C36.6389 77.3258 36.9634 77.21 37.2095 76.9873C37.4557 76.7646 37.6033 76.4532 37.6198 76.1217C37.6364 75.7902 37.5206 75.4656 37.2979 75.2195C37.0752 74.9734 36.7639 74.8258 36.4323 74.8092L36.4373 74.8154Z" fill="#1E81CE"/>
<path d="M14.9181 64.3466C14.687 64.1107 14.3719 63.9759 14.0418 63.9715C13.7116 63.9672 13.3931 64.0936 13.1559 64.3233C12.9186 64.5529 12.7819 64.8671 12.7755 65.1973C12.7691 65.5274 12.8936 65.8467 13.1218 66.0853C13.7281 66.7103 14.3606 67.3203 15.0056 67.9003C15.2531 68.115 15.575 68.224 15.9021 68.2037C16.2291 68.1834 16.5351 68.0355 16.7542 67.7918C16.9733 67.5482 17.0879 67.2282 17.0735 66.9009C17.059 66.5735 16.9166 66.2649 16.6768 66.0416C16.0756 65.5003 15.4831 64.9291 14.9181 64.3466Z" fill="#1E81CE"/>
<path d="M8.10328 54.2927C7.77078 53.5527 7.46203 52.7927 7.18453 52.0339C7.12806 51.8798 7.04178 51.7383 6.93063 51.6175C6.81947 51.4967 6.68561 51.3989 6.53669 51.3299C6.38777 51.2608 6.2267 51.2218 6.06268 51.2149C5.89867 51.2081 5.73492 51.2337 5.58078 51.2902C5.42664 51.3466 5.28513 51.4329 5.16433 51.5441C5.04354 51.6552 4.94582 51.7891 4.87676 51.938C4.80769 52.0869 4.76864 52.248 4.76182 52.412C4.755 52.576 4.78056 52.7398 4.83703 52.8939C5.13578 53.7064 5.46203 54.5189 5.82078 55.3139C5.91934 55.5345 6.0797 55.7217 6.28247 55.8531C6.48523 55.9844 6.7217 56.0541 6.96328 56.0539C7.17182 56.0538 7.37701 56.0015 7.56018 55.9018C7.74334 55.8021 7.89866 55.6582 8.01197 55.4831C8.12529 55.3081 8.193 55.1074 8.20895 54.8995C8.2249 54.6916 8.18857 54.4829 8.10328 54.2927Z" fill="#1E81CE"/>
<path d="M10.4042 58.5925C10.2246 58.3192 9.9449 58.1271 9.62525 58.0576C9.30561 57.9881 8.97145 58.0467 8.69449 58.2207C8.41752 58.3948 8.21983 58.6705 8.14383 58.9886C8.06783 59.3068 8.11958 59.6421 8.28797 59.9225C8.74922 60.6575 9.24297 61.3863 9.75422 62.0863C9.84985 62.2216 9.97143 62.3365 10.1119 62.4244C10.2523 62.5123 10.4089 62.5714 10.5724 62.5983C10.7359 62.6252 10.9031 62.6193 11.0643 62.5809C11.2255 62.5426 11.3774 62.4726 11.5113 62.3749C11.6452 62.2773 11.7584 62.1541 11.8442 62.0124C11.9301 61.8706 11.9869 61.7133 12.0113 61.5494C12.0358 61.3855 12.0274 61.2184 11.9867 61.0578C11.946 60.8972 11.8738 60.7462 11.7742 60.6138C11.2967 59.9588 10.8355 59.2788 10.4042 58.5925Z" fill="#1E81CE"/>
<path d="M5.83406 47.3451C5.66531 46.5588 5.52281 45.7501 5.40781 44.9426C5.38663 44.7784 5.33308 44.6202 5.25025 44.4769C5.16742 44.3336 5.05697 44.2082 4.92531 44.108C4.79365 44.0077 4.64339 43.9346 4.48325 43.8929C4.32312 43.8512 4.15629 43.8417 3.99245 43.8649C3.82861 43.8882 3.67102 43.9437 3.52882 44.0284C3.38661 44.113 3.26263 44.225 3.16406 44.358C3.06548 44.4909 2.99428 44.642 2.95459 44.8027C2.91489 44.9633 2.90749 45.1303 2.93281 45.2938C3.05781 46.1588 3.20906 47.0251 3.38906 47.8676C3.44882 48.1472 3.60266 48.3979 3.8249 48.5778C4.04714 48.7577 4.32436 48.856 4.61031 48.8563C4.69857 48.8571 4.78663 48.8478 4.87281 48.8288C5.03336 48.7945 5.18558 48.7289 5.32078 48.6358C5.45598 48.5427 5.57151 48.4238 5.66077 48.286C5.75003 48.1483 5.81128 47.9942 5.84101 47.8328C5.87075 47.6713 5.86838 47.5056 5.83406 47.3451Z" fill="#1E81CE"/>
<path d="M22.597 70.339C21.897 69.934 21.1995 69.499 20.5245 69.044C20.3884 68.9523 20.2355 68.8882 20.0746 68.8556C19.9136 68.8229 19.7479 68.8222 19.5867 68.8536C19.4255 68.885 19.2721 68.9479 19.1352 69.0386C18.9984 69.1292 18.8807 69.246 18.7889 69.3822C18.6971 69.5183 18.6331 69.6712 18.6004 69.8321C18.5678 69.9931 18.5671 70.1588 18.5985 70.32C18.6299 70.4812 18.6927 70.6346 18.7834 70.7715C18.8741 70.9083 18.9909 71.026 19.127 71.1178C19.8508 71.6053 20.5983 72.0715 21.347 72.504C21.4893 72.5874 21.6466 72.6418 21.8099 72.6642C21.9732 72.6865 22.1393 72.6763 22.2987 72.6342C22.4581 72.592 22.6076 72.5188 22.7385 72.4186C22.8695 72.3185 22.9793 72.1935 23.0617 72.0507C23.1442 71.9079 23.1975 71.7503 23.2188 71.5868C23.24 71.4233 23.2287 71.2573 23.1856 71.0982C23.1424 70.9391 23.0681 70.7901 22.9671 70.6598C22.8661 70.5295 22.7403 70.4205 22.597 70.339Z" fill="#1E81CE"/>
<path d="M71.3124 40.0005C71.3124 33.8198 69.4796 27.778 66.0458 22.6389C62.612 17.4999 57.7314 13.4945 52.0212 11.1293C46.3111 8.76403 40.0277 8.14517 33.9658 9.35096C27.9039 10.5568 22.3357 13.533 17.9653 17.9034C13.5949 22.2738 10.6186 27.842 9.41285 33.9039C8.20706 39.9658 8.82592 46.2492 11.1912 51.9594C13.5564 57.6696 17.5618 62.5501 22.7008 65.9839C27.8399 69.4177 33.8817 71.2505 40.0624 71.2505C48.3476 71.2412 56.2907 67.9459 62.1492 62.0874C68.0078 56.2289 71.3031 48.2857 71.3124 40.0005ZM11.3436 41.2505H20.0824C20.1732 45.491 20.8548 49.6982 22.1074 53.7505H14.8211C12.7182 49.9059 11.5283 45.6288 11.3436 41.2505ZM14.8211 26.2505H22.1074C20.8548 30.3028 20.1732 34.51 20.0824 38.7505H11.3436C11.5283 34.3722 12.7182 30.0951 14.8211 26.2505ZM68.7811 38.7505H60.0424C59.9515 34.51 59.27 30.3028 58.0174 26.2505H65.3049C67.4069 30.0955 68.5963 34.3724 68.7811 38.7505ZM57.5436 38.7505H52.4986C52.2067 35.8832 50.9343 33.2045 48.8964 31.1665C46.8584 29.1286 44.1797 27.8562 41.3124 27.5643V26.2505H55.4274C56.741 30.2911 57.454 34.5027 57.5436 38.7505ZM40.0624 50.0005C38.0846 50.0005 36.1512 49.414 34.5067 48.3152C32.8622 47.2164 31.5805 45.6546 30.8236 43.8273C30.0667 42.0001 29.8687 39.9894 30.2545 38.0496C30.6404 36.1098 31.5928 34.328 32.9913 32.9294C34.3898 31.5309 36.1717 30.5785 38.1115 30.1926C40.0513 29.8068 42.062 30.0048 43.8892 30.7617C45.7165 31.5186 47.2783 32.8003 48.3771 34.4448C49.4759 36.0893 50.0624 38.0227 50.0624 40.0005C50.0594 42.6518 49.0049 45.1936 47.1302 47.0683C45.2555 48.943 42.7136 49.9975 40.0624 50.0005ZM41.3124 23.7505V11.3318C46.7761 11.9693 51.5536 16.7393 54.4886 23.7505H41.3124ZM38.8124 11.3318V23.7505H25.6361C28.5711 16.7393 33.3486 11.9693 38.8124 11.3318ZM38.8124 26.2505V27.5643C35.9451 27.8562 33.2664 29.1286 31.2284 31.1665C29.1904 33.2045 27.9181 35.8832 27.6261 38.7505H22.5811C22.6708 34.5027 23.3838 30.2911 24.6974 26.2505H38.8124ZM22.5811 41.2505H27.6261C27.9181 44.1178 29.1904 46.7965 31.2284 48.8345C33.2664 50.8724 35.9451 52.1448 38.8124 52.4368V53.7505H24.6974C23.3838 49.7099 22.6708 45.4983 22.5811 41.2505ZM38.8124 56.2505V68.6693C33.3486 68.0318 28.5711 63.2618 25.6361 56.2505H38.8124ZM41.3124 68.6693V56.2505H54.4886C51.5536 63.2618 46.7761 68.0318 41.3124 68.6693ZM41.3124 53.7505V52.4368C44.1797 52.1448 46.8584 50.8724 48.8964 48.8345C50.9343 46.7965 52.2067 44.1178 52.4986 41.2505H57.5436C57.454 45.4983 56.741 49.7099 55.4274 53.7505H41.3124ZM60.0424 41.2505H68.7811C68.5963 45.6286 67.4069 49.9055 65.3049 53.7505H58.0174C59.27 49.6982 59.9515 45.491 60.0424 41.2505ZM63.7624 23.7505H57.1374C55.6586 19.7406 53.3044 16.1109 50.2461 13.1255C55.7251 15.2139 60.4392 18.9196 63.7624 23.7505ZM29.8786 13.1255C26.8199 16.1108 24.4653 19.7405 22.9861 23.7505H16.3611C19.685 18.9198 24.3994 15.2141 29.8786 13.1255ZM16.3624 56.2505H22.9874C24.4657 60.2627 26.8204 63.8946 29.8799 66.8818C24.3998 64.7914 19.6853 61.0836 16.3624 56.2505ZM50.2461 66.8818C53.3056 63.8946 55.6603 60.2627 57.1386 56.2505H63.7636C60.4411 61.0839 55.7264 64.7919 50.2461 66.8818Z" fill="#1E81CE"/>
</svg>
