<svg width="81" height="80" viewBox="0 0 81 80" fill="none" xmlns="http://www.w3.org/2000/svg">
<path d="M73.8125 11.25H6.3125C5.64946 11.25 5.01357 11.5134 4.54473 11.9822C4.07589 12.4511 3.8125 13.087 3.8125 13.75V53.75H76.3125V13.75C76.3125 13.087 76.0491 12.4511 75.5803 11.9822C75.1114 11.5134 74.4755 11.25 73.8125 11.25ZM72.5625 50H7.5625V15H72.5625V50Z" fill="#9BC9FF"/>
<path d="M3.8125 53.75V58.75C3.8125 59.413 4.07589 60.0489 4.54473 60.5178C5.01357 60.9866 5.64946 61.25 6.3125 61.25H73.8125C74.4755 61.25 75.1114 60.9866 75.5803 60.5178C76.0491 60.0489 76.3125 59.413 76.3125 58.75V53.75H3.8125Z" fill="#9BC9FF"/>
<path d="M32.5625 61.25H47.5625V68.75H32.5625V61.25Z" fill="#9BC9FF"/>
<path d="M26.3125 68.75C25.6495 68.75 25.0136 69.0134 24.5447 69.4822C24.0759 69.9511 23.8125 70.587 23.8125 71.25V76.25H56.3125V71.25C56.3125 70.587 56.0491 69.9511 55.5803 69.4822C55.1114 69.0134 54.4755 68.75 53.8125 68.75H26.3125Z" fill="#9BC9FF"/>
<path d="M20.0618 35C20.561 34.9992 21.0484 34.849 21.4614 34.5687C21.8745 34.2885 22.1941 33.891 22.3793 33.4275C22.5779 32.9305 22.6117 32.383 22.4758 31.8653C22.34 31.3477 22.0416 30.8873 21.6246 30.5519C21.2076 30.2165 20.6939 30.0238 20.1592 30.0021C19.6245 29.9803 19.0969 30.1308 18.654 30.4313C18.2112 30.7318 17.8765 31.1664 17.6991 31.6713C17.5217 32.1762 17.511 32.7247 17.6686 33.2362C17.8262 33.7476 18.1437 34.195 18.5745 34.5125C19.0053 34.83 19.5267 35.0009 20.0618 35Z" fill="#9BC9FF"/>
<path d="M32.5618 40.0002C33.0436 40.0024 33.5157 39.8648 33.9208 39.604C34.3259 39.3431 34.6466 38.9703 34.844 38.5308C35.0413 38.0912 35.1068 37.6038 35.0325 37.1278C34.9583 36.6517 34.7474 36.2075 34.4255 35.8489C34.1449 35.5282 33.7865 35.2851 33.3848 35.1429C32.9831 35.0007 32.5516 34.9642 32.1317 35.0369C31.7118 35.1096 31.3177 35.289 30.9872 35.558C30.6566 35.8269 30.4008 36.1763 30.2443 36.5727C30.0906 36.9516 30.0326 37.3625 30.0753 37.7691C30.118 38.1757 30.2601 38.5656 30.4891 38.9043C30.7182 39.2431 31.027 39.5202 31.3885 39.7113C31.75 39.9024 32.1529 40.0016 32.5618 40.0002Z" fill="#9BC9FF"/>
<path d="M43.8125 30.0001C44.3912 30.0057 44.9543 29.8124 45.4076 29.4524C45.8608 29.0924 46.1766 28.5877 46.3021 28.0227C46.4276 27.4577 46.3551 26.8667 46.0969 26.3487C45.8387 25.8307 45.4104 25.4171 44.8836 25.1773C44.3569 24.9374 43.7637 24.8858 43.2035 25.031C42.6432 25.1763 42.1498 25.5096 41.806 25.9752C41.4622 26.4407 41.2887 27.0103 41.3147 27.5885C41.3407 28.1667 41.5645 28.7185 41.9487 29.1513C42.1812 29.4172 42.4676 29.6304 42.789 29.7767C43.1104 29.9231 43.4593 29.9992 43.8125 30.0001Z" fill="#9BC9FF"/>
<path d="M58.8125 37.5C60.1932 37.5 61.3125 36.3807 61.3125 35C61.3125 33.6193 60.1932 32.5 58.8125 32.5C57.4318 32.5 56.3125 33.6193 56.3125 35C56.3125 36.3807 57.4318 37.5 58.8125 37.5Z" fill="#9BC9FF"/>
<path d="M65.0625 25C66.4432 25 67.5625 23.8807 67.5625 22.5C67.5625 21.1193 66.4432 20 65.0625 20C63.6818 20 62.5625 21.1193 62.5625 22.5C62.5625 23.8807 63.6818 25 65.0625 25Z" fill="#9BC9FF"/>
<path d="M73.8125 10H6.3125C5.31794 10 4.36411 10.3951 3.66085 11.0983C2.95759 11.8016 2.5625 12.7554 2.5625 13.75V58.75C2.5625 59.7446 2.95759 60.6984 3.66085 61.4016C4.36411 62.1049 5.31794 62.5 6.3125 62.5H31.3125V67.5H26.3125C25.3179 67.5 24.3641 67.8951 23.6608 68.5984C22.9576 69.3016 22.5625 70.2554 22.5625 71.25V76.25C22.5625 76.5815 22.6942 76.8995 22.9286 77.1339C23.163 77.3683 23.481 77.5 23.8125 77.5H56.3125C56.644 77.5 56.962 77.3683 57.1964 77.1339C57.4308 76.8995 57.5625 76.5815 57.5625 76.25V71.25C57.5625 70.2554 57.1674 69.3016 56.4641 68.5984C55.7609 67.8951 54.8071 67.5 53.8125 67.5H48.8125V62.5H73.8125C74.8071 62.5 75.7609 62.1049 76.4641 61.4016C77.1674 60.6984 77.5625 59.7446 77.5625 58.75V13.75C77.5625 12.7554 77.1674 11.8016 76.4641 11.0983C75.7609 10.3951 74.8071 10 73.8125 10ZM6.3125 12.5H73.8125C74.144 12.5 74.462 12.6317 74.6964 12.8661C74.9308 13.1005 75.0625 13.4185 75.0625 13.75V52.5H5.0625V13.75C5.0625 13.4185 5.1942 13.1005 5.42862 12.8661C5.66304 12.6317 5.98098 12.5 6.3125 12.5ZM53.8125 70C54.144 70 54.462 70.1317 54.6964 70.3661C54.9308 70.6005 55.0625 70.9185 55.0625 71.25V75H25.0625V71.25C25.0625 70.9185 25.1942 70.6005 25.4286 70.3661C25.663 70.1317 25.981 70 26.3125 70H53.8125ZM46.3125 67.5H33.8125V62.5H46.3125V67.5ZM73.8125 60H6.3125C5.98098 60 5.66304 59.8683 5.42862 59.6339C5.1942 59.3995 5.0625 59.0815 5.0625 58.75V55H75.0625V58.75C75.0625 59.0815 74.9308 59.3995 74.6964 59.6339C74.462 59.8683 74.144 60 73.8125 60Z" fill="#1E81CE"/>
<path d="M7.5625 51.25H72.5625C72.894 51.25 73.212 51.1183 73.4464 50.8839C73.6808 50.6495 73.8125 50.3315 73.8125 50V15C73.8125 14.6685 73.6808 14.3505 73.4464 14.1161C73.212 13.8817 72.894 13.75 72.5625 13.75H7.5625C7.23098 13.75 6.91304 13.8817 6.67862 14.1161C6.4442 14.3505 6.3125 14.6685 6.3125 15V50C6.3125 50.3315 6.4442 50.6495 6.67862 50.8839C6.91304 51.1183 7.23098 51.25 7.5625 51.25ZM8.8125 16.25H71.3125V48.75H8.8125V16.25Z" fill="#1E81CE"/>
<path d="M68.8125 56.25H66.3125C65.981 56.25 65.663 56.3817 65.4286 56.6161C65.1942 56.8505 65.0625 57.1685 65.0625 57.5C65.0625 57.8315 65.1942 58.1495 65.4286 58.3839C65.663 58.6183 65.981 58.75 66.3125 58.75H68.8125C69.144 58.75 69.462 58.6183 69.6964 58.3839C69.9308 58.1495 70.0625 57.8315 70.0625 57.5C70.0625 57.1685 69.9308 56.8505 69.6964 56.6161C69.462 56.3817 69.144 56.25 68.8125 56.25Z" fill="#1E81CE"/>
<path d="M65.0629 18.75C64.3267 18.7485 63.6064 18.9641 62.9921 19.3699C62.3778 19.7757 61.8969 20.3537 61.6095 21.0315C61.3221 21.7093 61.241 22.4569 61.3763 23.1805C61.5117 23.9042 61.8575 24.5719 62.3704 25.1L59.2629 31.295C59.1139 31.2711 58.9637 31.2561 58.8129 31.25C57.8418 31.2512 56.9092 31.6305 56.2129 32.3075L47.5179 27.95C47.5418 27.801 47.5568 27.6508 47.5629 27.5C47.5629 26.5054 47.1678 25.5516 46.4646 24.8484C45.7613 24.1451 44.8075 23.75 43.8129 23.75C42.8184 23.75 41.8645 24.1451 41.1613 24.8484C40.458 25.5516 40.0629 26.5054 40.0629 27.5C40.0639 27.9829 40.159 28.461 40.3429 28.9075L34.3642 34.2313C33.6235 33.809 32.7588 33.658 31.9188 33.8043C31.0789 33.9505 30.3161 34.3848 29.7617 35.0325L23.7979 32.6475C23.7979 32.5975 23.8129 32.5513 23.8129 32.5C23.8228 31.6107 23.5198 30.7462 22.9568 30.0577C22.3939 29.3691 21.607 28.9003 20.7334 28.7331C19.8599 28.566 18.9554 28.7111 18.1781 29.1432C17.4007 29.5753 16.8 30.2668 16.4808 31.097C16.1616 31.9271 16.1443 32.843 16.432 33.6845C16.7196 34.5261 17.2938 35.2398 18.0543 35.701C18.8148 36.1621 19.7132 36.3413 20.5924 36.2072C21.4716 36.0731 22.2757 35.6343 22.8642 34.9675L28.8279 37.3525C28.8279 37.4025 28.8129 37.4488 28.8129 37.5C28.8129 38.4946 29.208 39.4484 29.9113 40.1517C30.6145 40.8549 31.5684 41.25 32.5629 41.25C33.5575 41.25 34.5113 40.8549 35.2146 40.1517C35.9178 39.4484 36.3129 38.4946 36.3129 37.5C36.312 37.0171 36.2168 36.539 36.0329 36.0925L42.0117 30.7688C42.708 31.1649 43.5146 31.3229 44.309 31.2189C45.1033 31.1149 45.842 30.7545 46.4129 30.1925L55.1079 34.55C55.0841 34.699 55.0691 34.8493 55.0629 35C55.0613 35.6147 55.2107 36.2203 55.4981 36.7636C55.7855 37.3069 56.2021 37.7713 56.7111 38.1158C57.2202 38.4603 57.8061 38.6744 58.4173 38.7392C59.0285 38.8041 59.6463 38.7177 60.2163 38.4876C60.7863 38.2576 61.291 37.891 61.686 37.4201C62.081 36.9491 62.3542 36.3883 62.4816 35.787C62.6089 35.1857 62.5865 34.5623 62.4162 33.9717C62.246 33.3811 61.9332 32.8413 61.5054 32.4L64.6129 26.205C64.7619 26.2289 64.9122 26.2439 65.0629 26.25C66.0575 26.25 67.0113 25.8549 67.7146 25.1517C68.4178 24.4484 68.8129 23.4946 68.8129 22.5C68.8129 21.5054 68.4178 20.5516 67.7146 19.8484C67.0113 19.1451 66.0575 18.75 65.0629 18.75ZM20.0629 33.75C19.8157 33.75 19.574 33.6767 19.3685 33.5393C19.1629 33.402 19.0027 33.2068 18.9081 32.9784C18.8135 32.75 18.7887 32.4986 18.8369 32.2561C18.8852 32.0137 19.0042 31.7909 19.179 31.6161C19.3539 31.4413 19.5766 31.3223 19.8191 31.274C20.0615 31.2258 20.3129 31.2505 20.5413 31.3452C20.7697 31.4398 20.9649 31.6 21.1023 31.8055C21.2396 32.0111 21.3129 32.2528 21.3129 32.5C21.3129 32.8315 21.1812 33.1495 20.9468 33.3839C20.7124 33.6183 20.3944 33.75 20.0629 33.75ZM32.5629 38.75C32.3157 38.75 32.074 38.6767 31.8685 38.5393C31.6629 38.402 31.5027 38.2068 31.4081 37.9784C31.3135 37.75 31.2887 37.4986 31.3369 37.2561C31.3852 37.0137 31.5042 36.7909 31.679 36.6161C31.8539 36.4413 32.0766 36.3223 32.3191 36.274C32.5615 36.2258 32.8129 36.2505 33.0413 36.3452C33.2697 36.4398 33.4649 36.6 33.6023 36.8055C33.7396 37.0111 33.8129 37.2528 33.8129 37.5C33.8129 37.8315 33.6812 38.1495 33.4468 38.3839C33.2124 38.6183 32.8944 38.75 32.5629 38.75ZM43.8129 28.75C43.5657 28.75 43.324 28.6767 43.1185 28.5393C42.9129 28.402 42.7527 28.2068 42.6581 27.9784C42.5635 27.75 42.5387 27.4986 42.5869 27.2561C42.6352 27.0137 42.7542 26.7909 42.929 26.6161C43.1039 26.4413 43.3266 26.3223 43.5691 26.274C43.8115 26.2258 44.0629 26.2505 44.2913 26.3452C44.5197 26.4398 44.7149 26.6 44.8523 26.8055C44.9896 27.0111 45.0629 27.2528 45.0629 27.5C45.0629 27.8315 44.9312 28.1495 44.6968 28.3839C44.4624 28.6183 44.1444 28.75 43.8129 28.75ZM58.8129 36.25C58.5657 36.25 58.324 36.1767 58.1185 36.0393C57.9129 35.902 57.7527 35.7068 57.6581 35.4784C57.5635 35.25 57.5387 34.9986 57.5869 34.7561C57.6352 34.5137 57.7542 34.2909 57.929 34.1161C58.1039 33.9413 58.3266 33.8223 58.5691 33.774C58.8115 33.7258 59.0629 33.7505 59.2913 33.8452C59.5197 33.9398 59.7149 34.1 59.8523 34.3055C59.9896 34.5111 60.0629 34.7528 60.0629 35C60.0629 35.3315 59.9312 35.6495 59.6968 35.8839C59.4624 36.1183 59.1444 36.25 58.8129 36.25ZM65.0629 23.75C64.8157 23.75 64.574 23.6767 64.3685 23.5393C64.1629 23.402 64.0027 23.2068 63.9081 22.9784C63.8135 22.75 63.7887 22.4986 63.8369 22.2561C63.8852 22.0137 64.0042 21.7909 64.179 21.6161C64.3539 21.4413 64.5766 21.3223 64.8191 21.274C65.0615 21.2258 65.3129 21.2505 65.5413 21.3452C65.7697 21.4398 65.9649 21.6 66.1023 21.8055C66.2396 22.0111 66.3129 22.2528 66.3129 22.5C66.3129 22.8315 66.1812 23.1495 65.9468 23.3839C65.7124 23.6183 65.3944 23.75 65.0629 23.75Z" fill="#1E81CE"/>
<path d="M67.5625 43.75H13.8125V20C13.8125 19.6685 13.6808 19.3505 13.4464 19.1161C13.212 18.8817 12.894 18.75 12.5625 18.75C12.231 18.75 11.913 18.8817 11.6786 19.1161C11.4442 19.3505 11.3125 19.6685 11.3125 20V45C11.3125 45.3315 11.4442 45.6495 11.6786 45.8839C11.913 46.1183 12.231 46.25 12.5625 46.25H67.5625C67.894 46.25 68.212 46.1183 68.4464 45.8839C68.6808 45.6495 68.8125 45.3315 68.8125 45C68.8125 44.6685 68.6808 44.3505 68.4464 44.1161C68.212 43.8817 67.894 43.75 67.5625 43.75Z" fill="#1E81CE"/>
</svg>
