<svg width="56" height="69" viewBox="0 0 56 69" fill="none" xmlns="http://www.w3.org/2000/svg">
<mask id="path-1-inside-1" fill="white">
<path fill-rule="evenodd" clip-rule="evenodd" d="M38.8436 15.6394C38.8436 22.3679 33.7794 27.4832 27.9374 27.4832C22.0954 27.4832 17.0311 22.3679 17.0311 15.6394C17.0311 8.91091 22.0954 3.79565 27.9374 3.79565C33.7794 3.79565 38.8436 8.91091 38.8436 15.6394ZM32.9374 29.4948C31.3857 30.1332 29.6999 30.4832 27.9374 30.4832C26.1749 30.4832 24.489 30.1332 22.9374 29.4948V31.3332L27.9374 34.3332L32.9374 31.3332V29.4948ZM35.2073 28.2957C39.1886 25.6845 41.8436 20.9929 41.8436 15.6394C41.8436 7.44143 35.6176 0.795654 27.9374 0.795654C20.2572 0.795654 14.0311 7.44143 14.0311 15.6394C14.0311 20.9929 16.6862 25.6845 20.6674 28.2957H20.4374V31.0707L16.3874 32.0832L10.8499 33.4706C7.87356 34.2106 5.23087 35.9263 3.34356 38.3437C1.45625 40.7612 0.4331 43.7412 0.437391 46.8082V67.0457C0.437391 67.3772 0.569088 67.6951 0.803508 67.9296C1.03793 68.164 1.35587 68.2957 1.68739 68.2957H54.1874C54.5189 68.2957 54.8369 68.164 55.0713 67.9296C55.3057 67.6951 55.4374 67.3772 55.4374 67.0457V46.8082C55.4417 43.7412 54.4185 40.7612 52.5312 38.3437C50.6439 35.9263 48.0012 34.2106 45.0249 33.4706L39.4874 32.0832L35.4374 31.0707V28.2957H35.2073ZM33.8999 38.9707L37.1624 34.0832L34.3874 33.3832L30.1249 35.9457L33.8999 38.9707ZM27.9374 40.7332L29.4624 40.2207L29.3249 38.5081L27.9374 37.3957L26.5499 38.5081L26.4124 40.2207L27.9374 40.7332ZM25.7499 35.9457L21.4874 33.3832L18.7124 34.0832L21.9749 38.9707L25.7499 35.9457ZM12.9374 52.0457V65.7957H20.1499L13.8374 35.2957L11.4624 35.8957C9.02542 36.4987 6.86109 37.9015 5.31558 39.8799C3.77008 41.8582 2.9327 44.2977 2.93739 46.8082V65.7957H10.4374V52.0457C10.4374 51.7141 10.5691 51.3962 10.8035 51.1618C11.0379 50.9274 11.3559 50.7957 11.6874 50.7957C12.0189 50.7957 12.3369 50.9274 12.5713 51.1618C12.8057 51.3962 12.9374 51.7141 12.9374 52.0457ZM16.3374 35.0207L22.0499 62.6207L23.8624 40.6582L22.4624 41.7707C22.2436 41.9492 21.9697 42.0463 21.6874 42.0457C21.6246 42.0477 21.5618 42.0435 21.4999 42.0332C21.3267 42.0089 21.1609 41.9471 21.0141 41.8521C20.8673 41.7571 20.743 41.6312 20.6499 41.4832L16.3374 35.0207ZM26.1999 42.7832L24.2999 65.7957H31.5749L29.6749 42.7832L28.3374 43.2332C28.0772 43.3165 27.7975 43.3165 27.5374 43.2332L26.1999 42.7832ZM33.4124 41.7707L32.0124 40.6582L33.8249 62.6207L39.5374 35.0207L35.2249 41.4832C35.1318 41.6312 35.0075 41.7571 34.8607 41.8521C34.7139 41.9471 34.5481 42.0089 34.3749 42.0332C34.313 42.0435 34.2502 42.0477 34.1874 42.0457C33.905 42.0463 33.6312 41.9492 33.4124 41.7707ZM45.4374 65.7957H52.9374V46.8082C52.9421 44.2977 52.1047 41.8582 50.5592 39.8799C49.0137 37.9015 46.8494 36.4987 44.4124 35.8957L42.0374 35.2957L35.7249 65.7957H42.9374V52.0457C42.9374 51.7141 43.0691 51.3962 43.3035 51.1618C43.5379 50.9274 43.8559 50.7957 44.1874 50.7957C44.5189 50.7957 44.8369 50.9274 45.0713 51.1618C45.3057 51.3962 45.4374 51.7141 45.4374 52.0457V65.7957Z"/>
</mask>
<path fill-rule="evenodd" clip-rule="evenodd" d="M38.8436 15.6394C38.8436 22.3679 33.7794 27.4832 27.9374 27.4832C22.0954 27.4832 17.0311 22.3679 17.0311 15.6394C17.0311 8.91091 22.0954 3.79565 27.9374 3.79565C33.7794 3.79565 38.8436 8.91091 38.8436 15.6394ZM32.9374 29.4948C31.3857 30.1332 29.6999 30.4832 27.9374 30.4832C26.1749 30.4832 24.489 30.1332 22.9374 29.4948V31.3332L27.9374 34.3332L32.9374 31.3332V29.4948ZM35.2073 28.2957C39.1886 25.6845 41.8436 20.9929 41.8436 15.6394C41.8436 7.44143 35.6176 0.795654 27.9374 0.795654C20.2572 0.795654 14.0311 7.44143 14.0311 15.6394C14.0311 20.9929 16.6862 25.6845 20.6674 28.2957H20.4374V31.0707L16.3874 32.0832L10.8499 33.4706C7.87356 34.2106 5.23087 35.9263 3.34356 38.3437C1.45625 40.7612 0.4331 43.7412 0.437391 46.8082V67.0457C0.437391 67.3772 0.569088 67.6951 0.803508 67.9296C1.03793 68.164 1.35587 68.2957 1.68739 68.2957H54.1874C54.5189 68.2957 54.8369 68.164 55.0713 67.9296C55.3057 67.6951 55.4374 67.3772 55.4374 67.0457V46.8082C55.4417 43.7412 54.4185 40.7612 52.5312 38.3437C50.6439 35.9263 48.0012 34.2106 45.0249 33.4706L39.4874 32.0832L35.4374 31.0707V28.2957H35.2073ZM33.8999 38.9707L37.1624 34.0832L34.3874 33.3832L30.1249 35.9457L33.8999 38.9707ZM27.9374 40.7332L29.4624 40.2207L29.3249 38.5081L27.9374 37.3957L26.5499 38.5081L26.4124 40.2207L27.9374 40.7332ZM25.7499 35.9457L21.4874 33.3832L18.7124 34.0832L21.9749 38.9707L25.7499 35.9457ZM12.9374 52.0457V65.7957H20.1499L13.8374 35.2957L11.4624 35.8957C9.02542 36.4987 6.86109 37.9015 5.31558 39.8799C3.77008 41.8582 2.9327 44.2977 2.93739 46.8082V65.7957H10.4374V52.0457C10.4374 51.7141 10.5691 51.3962 10.8035 51.1618C11.0379 50.9274 11.3559 50.7957 11.6874 50.7957C12.0189 50.7957 12.3369 50.9274 12.5713 51.1618C12.8057 51.3962 12.9374 51.7141 12.9374 52.0457ZM16.3374 35.0207L22.0499 62.6207L23.8624 40.6582L22.4624 41.7707C22.2436 41.9492 21.9697 42.0463 21.6874 42.0457C21.6246 42.0477 21.5618 42.0435 21.4999 42.0332C21.3267 42.0089 21.1609 41.9471 21.0141 41.8521C20.8673 41.7571 20.743 41.6312 20.6499 41.4832L16.3374 35.0207ZM26.1999 42.7832L24.2999 65.7957H31.5749L29.6749 42.7832L28.3374 43.2332C28.0772 43.3165 27.7975 43.3165 27.5374 43.2332L26.1999 42.7832ZM33.4124 41.7707L32.0124 40.6582L33.8249 62.6207L39.5374 35.0207L35.2249 41.4832C35.1318 41.6312 35.0075 41.7571 34.8607 41.8521C34.7139 41.9471 34.5481 42.0089 34.3749 42.0332C34.313 42.0435 34.2502 42.0477 34.1874 42.0457C33.905 42.0463 33.6312 41.9492 33.4124 41.7707ZM45.4374 65.7957H52.9374V46.8082C52.9421 44.2977 52.1047 41.8582 50.5592 39.8799C49.0137 37.9015 46.8494 36.4987 44.4124 35.8957L42.0374 35.2957L35.7249 65.7957H42.9374V52.0457C42.9374 51.7141 43.0691 51.3962 43.3035 51.1618C43.5379 50.9274 43.8559 50.7957 44.1874 50.7957C44.5189 50.7957 44.8369 50.9274 45.0713 51.1618C45.3057 51.3962 45.4374 51.7141 45.4374 52.0457V65.7957Z" fill="#9BC9FF"/>
<path d="M32.9374 29.4948H34.9374V26.5092L32.1764 27.6452L32.9374 29.4948ZM22.9374 29.4948L23.6984 27.6452L20.9374 26.5092V29.4948H22.9374ZM22.9374 31.3332H20.9374V32.4655L21.9084 33.0481L22.9374 31.3332ZM27.9374 34.3332L26.9084 36.0481L27.9374 36.6655L28.9664 36.0481L27.9374 34.3332ZM32.9374 31.3332L33.9664 33.0481L34.9374 32.4655V31.3332H32.9374ZM35.2073 28.2957L34.1105 26.6233L28.5112 30.2957H35.2073V28.2957ZM20.6674 28.2957V30.2957H27.3635L21.7643 26.6233L20.6674 28.2957ZM20.4374 28.2957V26.2957H18.4374V28.2957H20.4374ZM20.4374 31.0707L20.9225 33.0109L22.4374 32.6322V31.0707H20.4374ZM16.3874 32.0832L15.9023 30.1429L15.9013 30.1431L16.3874 32.0832ZM10.8499 33.4706L11.3324 35.4116L11.336 35.4107L10.8499 33.4706ZM3.34356 38.3437L4.92003 39.5745H4.92003L3.34356 38.3437ZM0.437391 46.8082H2.43739L2.43739 46.8054L0.437391 46.8082ZM0.803508 67.9296L2.21772 66.5153L0.803508 67.9296ZM55.4374 46.8082L53.4374 46.8054V46.8082H55.4374ZM52.5312 38.3437L50.9548 39.5745L52.5312 38.3437ZM45.0249 33.4706L44.5388 35.4107L44.5423 35.4116L45.0249 33.4706ZM39.4874 32.0832L39.9735 30.1431L39.9725 30.1429L39.4874 32.0832ZM35.4374 31.0707H33.4374V32.6322L34.9523 33.0109L35.4374 31.0707ZM35.4374 28.2957H37.4374V26.2957H35.4374V28.2957ZM37.1624 34.0832L38.8258 35.1935L40.3989 32.8369L37.6516 32.1439L37.1624 34.0832ZM33.8999 38.9707L32.6492 40.5314L34.3519 41.8958L35.5633 40.081L33.8999 38.9707ZM34.3874 33.3832L34.8766 31.4439L34.0699 31.2404L33.3569 31.6691L34.3874 33.3832ZM30.1249 35.9457L29.0944 34.2316L26.6336 35.7109L28.8742 37.5064L30.1249 35.9457ZM29.4624 40.2207L30.0995 42.1165L31.5811 41.6186L31.456 40.0606L29.4624 40.2207ZM27.9374 40.7332L27.3003 42.629L27.9374 42.8431L28.5745 42.629L27.9374 40.7332ZM29.3249 38.5081L31.3185 38.3481L31.2494 37.4877L30.576 36.9478L29.3249 38.5081ZM27.9374 37.3957L29.1885 35.8353L27.9374 34.8322L26.6863 35.8353L27.9374 37.3957ZM26.5499 38.5081L25.2988 36.9478L24.6254 37.4877L24.5563 38.3481L26.5499 38.5081ZM26.4124 40.2207L24.4188 40.0606L24.2937 41.6186L25.7753 42.1165L26.4124 40.2207ZM21.4874 33.3832L22.5179 31.6691L21.8049 31.2404L20.9982 31.4439L21.4874 33.3832ZM25.7499 35.9457L27.0005 37.5064L29.2412 35.7109L26.7804 34.2316L25.7499 35.9457ZM18.7124 34.0832L18.2232 32.1439L15.4759 32.8369L17.0489 35.1935L18.7124 34.0832ZM21.9749 38.9707L20.3114 40.081L21.5228 41.8958L23.2255 40.5314L21.9749 38.9707ZM12.9374 65.7957H10.9374V67.7957H12.9374V65.7957ZM20.1499 65.7957V67.7957H22.6062L22.1084 65.3903L20.1499 65.7957ZM13.8374 35.2957L15.7959 34.8903L15.3726 32.845L13.3475 33.3566L13.8374 35.2957ZM11.4624 35.8957L11.9428 37.8371L11.9523 37.8347L11.4624 35.8957ZM5.31558 39.8799L3.73951 38.6486L3.73951 38.6486L5.31558 39.8799ZM2.93739 46.8082H4.93739L4.93739 46.8044L2.93739 46.8082ZM2.93739 65.7957H0.937391V67.7957H2.93739V65.7957ZM10.4374 65.7957V67.7957H12.4374V65.7957H10.4374ZM10.8035 51.1618L12.2177 52.576L12.2177 52.576L10.8035 51.1618ZM12.5713 51.1618L13.9855 49.7476L13.9855 49.7476L12.5713 51.1618ZM22.0499 62.6207L20.0914 63.026L24.0431 62.7852L22.0499 62.6207ZM16.3374 35.0207L18.001 33.9105L14.3789 35.426L16.3374 35.0207ZM23.8624 40.6582L25.8556 40.8226L26.2356 36.2177L22.6181 39.0923L23.8624 40.6582ZM22.4624 41.7707L21.2181 40.2048L21.208 40.2129L21.198 40.221L22.4624 41.7707ZM21.6874 42.0457L21.6922 40.0457L21.6569 40.0456L21.6217 40.0467L21.6874 42.0457ZM21.4999 42.0332L21.8304 40.0606L21.8041 40.0562L21.7776 40.0525L21.4999 42.0332ZM20.6499 41.4832L22.3428 40.4182L22.3285 40.3954L22.3135 40.373L20.6499 41.4832ZM24.2999 65.7957L22.3067 65.6311L22.128 67.7957H24.2999V65.7957ZM26.1999 42.7832L26.8377 40.8876L24.4168 40.0731L24.2067 42.6186L26.1999 42.7832ZM31.5749 65.7957V67.7957H33.7468L33.5681 65.6311L31.5749 65.7957ZM29.6749 42.7832L31.6681 42.6186L31.4579 40.0731L29.0371 40.8876L29.6749 42.7832ZM28.3374 43.2332L28.9475 45.1378L28.9614 45.1334L28.9752 45.1287L28.3374 43.2332ZM27.5374 43.2332L26.8996 45.1287L26.9134 45.1334L26.9273 45.1378L27.5374 43.2332ZM32.0124 40.6582L33.2567 39.0923L29.6391 36.2177L30.0192 40.8226L32.0124 40.6582ZM33.4124 41.7707L34.6768 40.221L34.6668 40.2129L34.6567 40.2048L33.4124 41.7707ZM33.8249 62.6207L31.8317 62.7852L35.7834 63.026L33.8249 62.6207ZM39.5374 35.0207L41.4959 35.426L37.8738 33.9105L39.5374 35.0207ZM35.2249 41.4832L33.5613 40.373L33.5463 40.3954L33.532 40.4182L35.2249 41.4832ZM34.8607 41.8521L35.9472 43.5312L35.9472 43.5312L34.8607 41.8521ZM34.3749 42.0332L34.0972 40.0525L34.0707 40.0562L34.0444 40.0607L34.3749 42.0332ZM34.1874 42.0457L34.2531 40.0467L34.2179 40.0456L34.1826 40.0457L34.1874 42.0457ZM52.9374 65.7957V67.7957H54.9374V65.7957H52.9374ZM45.4374 65.7957H43.4374V67.7957H45.4374V65.7957ZM52.9374 46.8082L50.9374 46.8044V46.8082H52.9374ZM50.5592 39.8799L52.1353 38.6486V38.6486L50.5592 39.8799ZM44.4124 35.8957L43.9225 37.8348L43.932 37.8371L44.4124 35.8957ZM42.0374 35.2957L42.5273 33.3566L40.5022 32.845L40.0789 34.8903L42.0374 35.2957ZM35.7249 65.7957L33.7664 65.3903L33.2686 67.7957H35.7249V65.7957ZM42.9374 65.7957V67.7957H44.9374V65.7957H42.9374ZM27.9374 29.4832C34.9954 29.4832 40.8436 23.3576 40.8436 15.6394H36.8436C36.8436 21.3782 32.5633 25.4832 27.9374 25.4832V29.4832ZM15.0311 15.6394C15.0311 23.3576 20.8794 29.4832 27.9374 29.4832V25.4832C23.3114 25.4832 19.0311 21.3782 19.0311 15.6394H15.0311ZM27.9374 1.79565C20.8794 1.79565 15.0311 7.9212 15.0311 15.6394H19.0311C19.0311 9.90063 23.3114 5.79565 27.9374 5.79565V1.79565ZM40.8436 15.6394C40.8436 7.9212 34.9954 1.79565 27.9374 1.79565V5.79565C32.5633 5.79565 36.8436 9.90063 36.8436 15.6394H40.8436ZM27.9374 32.4832C29.9674 32.4832 31.9114 32.0796 33.6984 31.3443L32.1764 27.6452C30.8601 28.1868 29.4323 28.4832 27.9374 28.4832V32.4832ZM22.1764 31.3444C23.9634 32.0796 25.9074 32.4832 27.9374 32.4832V28.4832C26.4425 28.4832 25.0147 28.1868 23.6984 27.6452L22.1764 31.3444ZM24.9374 31.3332V29.4948H20.9374V31.3332H24.9374ZM28.9664 32.6182L23.9664 29.6182L21.9084 33.0481L26.9084 36.0481L28.9664 32.6182ZM31.9084 29.6182L26.9084 32.6182L28.9664 36.0481L33.9664 33.0481L31.9084 29.6182ZM30.9374 29.4948V31.3332H34.9374V29.4948H30.9374ZM36.3042 29.968C40.8577 26.9815 43.8436 21.6565 43.8436 15.6394H39.8436C39.8436 20.3293 37.5194 24.3874 34.1105 26.6233L36.3042 29.968ZM43.8436 15.6394C43.8436 6.46177 36.8431 -1.20435 27.9374 -1.20435V2.79565C34.3921 2.79565 39.8436 8.42108 39.8436 15.6394H43.8436ZM27.9374 -1.20435C19.0317 -1.20435 12.0311 6.46177 12.0311 15.6394H16.0311C16.0311 8.42108 21.4826 2.79565 27.9374 2.79565V-1.20435ZM12.0311 15.6394C12.0311 21.6565 15.017 26.9815 19.5706 29.968L21.7643 26.6233C18.3554 24.3874 16.0311 20.3293 16.0311 15.6394H12.0311ZM20.6674 26.2957H20.4374V30.2957H20.6674V26.2957ZM18.4374 28.2957V31.0707H22.4374V28.2957H18.4374ZM19.9523 29.1304L15.9023 30.1429L16.8725 34.0234L20.9225 33.0109L19.9523 29.1304ZM15.9013 30.1431L10.3638 31.5306L11.336 35.4107L16.8735 34.0232L15.9013 30.1431ZM10.3673 31.5297C6.95725 32.3776 3.92944 34.3432 1.76708 37.113L4.92003 39.5745C6.5323 37.5093 8.78986 36.0437 11.3324 35.4116L10.3673 31.5297ZM1.76708 37.113C-0.395267 39.8828 -1.56752 43.2971 -1.56261 46.811L2.43739 46.8054C2.43372 44.1854 3.30777 41.6397 4.92003 39.5745L1.76708 37.113ZM-1.56261 46.8082V67.0457H2.43739V46.8082H-1.56261ZM-1.56261 67.0457C-1.56261 67.9076 -1.22019 68.7343 -0.610706 69.3438L2.21772 66.5153C2.35837 66.656 2.43739 66.8467 2.43739 67.0457H-1.56261ZM-0.610706 69.3438C-0.0011985 69.9533 0.825458 70.2957 1.68739 70.2957V66.2957C1.88628 66.2957 2.07706 66.3747 2.21772 66.5153L-0.610706 69.3438ZM1.68739 70.2957H54.1874V66.2957H1.68739V70.2957ZM54.1874 70.2957C55.0493 70.2957 55.876 69.9533 56.4855 69.3438L53.6571 66.5153C53.7977 66.3747 53.9885 66.2957 54.1874 66.2957V70.2957ZM56.4855 69.3438C57.095 68.7343 57.4374 67.9076 57.4374 67.0457H53.4374C53.4374 66.8468 53.5164 66.656 53.6571 66.5153L56.4855 69.3438ZM57.4374 67.0457V46.8082H53.4374V67.0457H57.4374ZM57.4374 46.811C57.4423 43.2971 56.2701 39.8828 54.1077 37.113L50.9548 39.5745C52.567 41.6397 53.4411 44.1854 53.4374 46.8054L57.4374 46.811ZM54.1077 37.113C51.9453 34.3432 48.9175 32.3776 45.5074 31.5297L44.5423 35.4116C47.0849 36.0437 49.3425 37.5093 50.9548 39.5745L54.1077 37.113ZM45.511 31.5306L39.9735 30.1431L39.0013 34.0232L44.5388 35.4107L45.511 31.5306ZM39.9725 30.1429L35.9225 29.1304L34.9523 33.0109L39.0023 34.0234L39.9725 30.1429ZM37.4374 31.0707V28.2957H33.4374V31.0707H37.4374ZM35.4374 26.2957H35.2073V30.2957H35.4374V26.2957ZM35.4989 32.9728L32.2364 37.8603L35.5633 40.081L38.8258 35.1935L35.4989 32.9728ZM33.8982 35.3224L36.6732 36.0224L37.6516 32.1439L34.8766 31.4439L33.8982 35.3224ZM31.1554 37.6598L35.4179 35.0973L33.3569 31.6691L29.0944 34.2316L31.1554 37.6598ZM35.1505 37.4099L31.3755 34.3849L28.8742 37.5064L32.6492 40.5314L35.1505 37.4099ZM28.8253 38.3248L27.3003 38.8373L28.5745 42.629L30.0995 42.1165L28.8253 38.3248ZM27.3313 38.6682L27.4688 40.3807L31.456 40.0606L31.3185 38.3481L27.3313 38.6682ZM26.6863 38.956L28.0738 40.0685L30.576 36.9478L29.1885 35.8353L26.6863 38.956ZM27.801 40.0685L29.1885 38.956L26.6863 35.8353L25.2988 36.9478L27.801 40.0685ZM28.406 40.3807L28.5435 38.6682L24.5563 38.3481L24.4188 40.0606L28.406 40.3807ZM28.5745 38.8373L27.0495 38.3248L25.7753 42.1165L27.3003 42.629L28.5745 38.8373ZM20.4569 35.0973L24.7194 37.6598L26.7804 34.2316L22.5179 31.6691L20.4569 35.0973ZM19.2016 36.0224L21.9766 35.3224L20.9982 31.4439L18.2232 32.1439L19.2016 36.0224ZM23.6383 37.8603L20.3758 32.9728L17.0489 35.1935L20.3114 40.081L23.6383 37.8603ZM24.4992 34.3849L20.7242 37.4099L23.2255 40.5314L27.0005 37.5064L24.4992 34.3849ZM14.9374 65.7957V52.0457H10.9374V65.7957H14.9374ZM20.1499 63.7957H12.9374V67.7957H20.1499V63.7957ZM11.8789 35.701L18.1914 66.201L22.1084 65.3903L15.7959 34.8903L11.8789 35.701ZM11.9523 37.8347L14.3273 37.2347L13.3475 33.3566L10.9725 33.9566L11.9523 37.8347ZM6.89166 41.1111C8.16167 39.4854 9.94021 38.3326 11.9428 37.8371L10.982 33.9542C8.11064 34.6647 5.56051 36.3176 3.73951 38.6486L6.89166 41.1111ZM4.93739 46.8044C4.93353 44.7415 5.62165 42.7368 6.89166 41.1111L3.73951 38.6486C1.91851 40.9796 0.931867 43.8539 0.937395 46.8119L4.93739 46.8044ZM4.93739 65.7957V46.8082H0.937391V65.7957H4.93739ZM10.4374 63.7957H2.93739V67.7957H10.4374V63.7957ZM8.43739 52.0457V65.7957H12.4374V52.0457H8.43739ZM9.38929 49.7476C8.7798 50.3571 8.43739 51.1837 8.43739 52.0457H12.4374C12.4374 52.2446 12.3584 52.4353 12.2177 52.576L9.38929 49.7476ZM11.6874 48.7957C10.8254 48.7957 9.99879 49.1381 9.38929 49.7476L12.2177 52.576C12.0771 52.7167 11.8863 52.7957 11.6874 52.7957V48.7957ZM13.9855 49.7476C13.376 49.1381 12.5493 48.7957 11.6874 48.7957V52.7957C11.4885 52.7957 11.2977 52.7167 11.1571 52.576L13.9855 49.7476ZM14.9374 52.0457C14.9374 51.1837 14.595 50.3571 13.9855 49.7476L11.1571 52.576C11.0164 52.4353 10.9374 52.2446 10.9374 52.0457H14.9374ZM24.0084 62.2153L18.2959 34.6153L14.3789 35.426L20.0914 63.026L24.0084 62.2153ZM21.8692 40.4937L20.0567 62.4562L24.0431 62.7852L25.8556 40.8226L21.8692 40.4937ZM23.7067 43.3365L25.1067 42.224L22.6181 39.0923L21.2181 40.2048L23.7067 43.3365ZM21.6826 44.0456C22.4273 44.0474 23.1497 43.7911 23.7268 43.3203L21.198 40.221C21.3375 40.1072 21.5122 40.0452 21.6922 40.0457L21.6826 44.0456ZM21.1694 44.0057C21.3623 44.038 21.5578 44.051 21.7531 44.0446L21.6217 40.0467C21.6915 40.0444 21.7614 40.0491 21.8304 40.0606L21.1694 44.0057ZM19.9276 43.5312C20.3189 43.7844 20.7607 43.9491 21.2221 44.0138L21.7776 40.0525C21.8928 40.0687 22.003 40.1098 22.1006 40.1729L19.9276 43.5312ZM18.957 42.5481C19.2051 42.9425 19.5364 43.278 19.9276 43.5312L22.1006 40.1729C22.1983 40.2361 22.2809 40.3198 22.3428 40.4182L18.957 42.5481ZM14.6738 36.1308L18.9863 42.5933L22.3135 40.373L18.001 33.9105L14.6738 36.1308ZM26.2931 65.9602L28.1931 42.9477L24.2067 42.6186L22.3067 65.6311L26.2931 65.9602ZM31.5749 63.7957H24.2999V67.7957H31.5749V63.7957ZM27.6817 42.9477L29.5817 65.9602L33.5681 65.6311L31.6681 42.6186L27.6817 42.9477ZM28.9752 45.1287L30.3127 44.6787L29.0371 40.8876L27.6996 41.3376L28.9752 45.1287ZM26.9273 45.1378C27.5842 45.3483 28.2905 45.3483 28.9475 45.1378L27.7273 41.3285C27.8639 41.2847 28.0109 41.2847 28.1475 41.3285L26.9273 45.1378ZM25.5621 44.6787L26.8996 45.1287L28.1752 41.3376L26.8377 40.8876L25.5621 44.6787ZM30.7681 42.224L32.1681 43.3365L34.6567 40.2048L33.2567 39.0923L30.7681 42.224ZM35.8181 62.4562L34.0056 40.4937L30.0192 40.8226L31.8317 62.7852L35.8181 62.4562ZM37.5789 34.6153L31.8664 62.2153L35.7834 63.026L41.4959 35.426L37.5789 34.6153ZM36.8885 42.5933L41.201 36.1308L37.8738 33.9105L33.5613 40.373L36.8885 42.5933ZM35.9472 43.5312C36.3384 43.2781 36.6697 42.9425 36.9178 42.5481L33.532 40.4182C33.5939 40.3198 33.6765 40.2361 33.7742 40.1729L35.9472 43.5312ZM34.6526 44.0138C35.1141 43.9491 35.5559 43.7844 35.9472 43.5312L33.7742 40.1729C33.8718 40.1098 33.982 40.0687 34.0972 40.0525L34.6526 44.0138ZM34.1217 44.0446C34.317 44.051 34.5125 44.038 34.7054 44.0057L34.0444 40.0607C34.1134 40.0491 34.1833 40.0444 34.2531 40.0467L34.1217 44.0446ZM32.148 43.3203C32.7251 43.7911 33.4474 44.0474 34.1922 44.0456L34.1826 40.0457C34.3626 40.0452 34.5373 40.1072 34.6768 40.221L32.148 43.3203ZM52.9374 63.7957H45.4374V67.7957H52.9374V63.7957ZM50.9374 46.8082V65.7957H54.9374V46.8082H50.9374ZM48.9831 41.1111C50.2531 42.7368 50.9413 44.7415 50.9374 46.8044L54.9374 46.8119C54.9429 43.8539 53.9563 40.9796 52.1353 38.6486L48.9831 41.1111ZM43.932 37.8371C45.9346 38.3326 47.7131 39.4854 48.9831 41.1111L52.1353 38.6486C50.3143 36.3176 47.7641 34.6647 44.8928 33.9542L43.932 37.8371ZM41.5475 37.2347L43.9225 37.8347L44.9023 33.9566L42.5273 33.3566L41.5475 37.2347ZM37.6834 66.201L43.9959 35.701L40.0789 34.8903L33.7664 65.3903L37.6834 66.201ZM42.9374 63.7957H35.7249V67.7957H42.9374V63.7957ZM40.9374 52.0457V65.7957H44.9374V52.0457H40.9374ZM41.8893 49.7476C41.2798 50.3571 40.9374 51.1837 40.9374 52.0457H44.9374C44.9374 52.2446 44.8584 52.4353 44.7177 52.576L41.8893 49.7476ZM44.1874 48.7957C43.3254 48.7957 42.4988 49.1381 41.8893 49.7476L44.7177 52.576C44.5771 52.7167 44.3863 52.7957 44.1874 52.7957V48.7957ZM46.4855 49.7476C45.876 49.1381 45.0493 48.7957 44.1874 48.7957V52.7957C43.9885 52.7957 43.7977 52.7167 43.6571 52.576L46.4855 49.7476ZM47.4374 52.0457C47.4374 51.1837 47.095 50.3571 46.4855 49.7476L43.6571 52.576C43.5164 52.4353 43.4374 52.2446 43.4374 52.0457H47.4374ZM47.4374 65.7957V52.0457H43.4374V65.7957H47.4374Z" fill="#1E81CE" mask="url(#path-1-inside-1)"/>
<path d="M19.4999 5.48315L15.2811 13.6863C15.2811 13.6863 19.3992 7.31301 20.828 6.8894C24.4844 5.8054 24.6545 8.02984 28.4374 7.54565C30.0994 7.33293 32.7039 6.5448 34.3436 6.8894C36.439 7.32976 36.6093 8.29565 37.9684 10.1707C38.6412 11.0989 40.828 14.3894 40.828 14.3894L38.4374 8.53003L35.3593 4.3894L30.1249 2.28003L23.7968 3.06128L19.4999 5.48315Z" fill="#1E81CE" stroke="#1E81CE" stroke-width="2"/>
</svg>
