<svg width="81" height="81" viewBox="0 0 81 81" fill="none" xmlns="http://www.w3.org/2000/svg">
<path d="M18.4375 4.29565C16.4484 4.29565 14.5407 5.08583 13.1342 6.49235C11.7277 7.89888 10.9375 9.80653 10.9375 11.7957V64.2957C10.9405 62.3074 11.7316 60.4015 13.1375 58.9956C14.5434 57.5898 16.4493 56.7986 18.4375 56.7957H70.9375V4.29565H18.4375ZM27.1875 49.2957V41.7957H32.1875V49.2957H27.1875ZM37.1875 49.2957V36.7957H42.1875V49.2957H37.1875ZM47.1875 49.2957V31.7957H52.1875V49.2957H47.1875ZM57.1875 49.2957V24.2957H62.1875V49.2957H57.1875Z" fill="#9BC9FF"/>
<path d="M50.9375 64.2957V71.7957V76.7957L54.6875 74.2957L58.4375 76.7957V71.7957V64.2957H50.9375Z" fill="#9BC9FF"/>
<path d="M44.6875 20.5457C43.1613 20.5457 42.1875 19.8057 42.1875 19.2957C42.1875 18.9641 42.0558 18.6462 41.8214 18.4118C41.587 18.1774 41.269 18.0457 40.9375 18.0457C40.606 18.0457 40.288 18.1774 40.0536 18.4118C39.8192 18.6462 39.6875 18.9641 39.6875 19.2957C39.6875 21.0719 41.2612 22.5094 43.4375 22.9207V24.2957C43.4375 24.6272 43.5692 24.9451 43.8036 25.1795C44.038 25.414 44.356 25.5457 44.6875 25.5457C45.019 25.5457 45.337 25.414 45.5714 25.1795C45.8058 24.9451 45.9375 24.6272 45.9375 24.2957V22.9207C48.1138 22.5119 49.6875 21.0744 49.6875 19.2957C49.6875 17.1932 47.4913 15.5457 44.6875 15.5457C43.1613 15.5457 42.1875 14.8057 42.1875 14.2957C42.1875 13.7857 43.1613 13.0457 44.6875 13.0457C46.2137 13.0457 47.1875 13.7857 47.1875 14.2957C47.1875 14.6272 47.3192 14.9451 47.5536 15.1795C47.788 15.414 48.106 15.5457 48.4375 15.5457C48.769 15.5457 49.087 15.414 49.3214 15.1795C49.5558 14.9451 49.6875 14.6272 49.6875 14.2957C49.6875 12.5194 48.1138 11.0819 45.9375 10.6707V9.29565C45.9375 8.96413 45.8058 8.64619 45.5714 8.41177C45.337 8.17735 45.019 8.04565 44.6875 8.04565C44.356 8.04565 44.038 8.17735 43.8036 8.41177C43.5692 8.64619 43.4375 8.96413 43.4375 9.29565V10.6707C41.2612 11.0794 39.6875 12.5169 39.6875 14.2957C39.6875 16.3982 41.8837 18.0457 44.6875 18.0457C46.2137 18.0457 47.1875 18.7857 47.1875 19.2957C47.1875 19.8057 46.2137 20.5457 44.6875 20.5457Z" fill="#1E81CE"/>
<path d="M70.9375 3.04565H18.4375C16.1177 3.0483 13.8936 3.97102 12.2532 5.61139C10.6129 7.25176 9.69015 9.47582 9.6875 11.7957V64.2957C9.69015 66.6155 10.6129 68.8395 12.2532 70.4799C13.8936 72.1203 16.1177 73.043 18.4375 73.0457H49.6875V76.7957C49.6859 77.0222 49.7469 77.2449 49.8638 77.439C49.9807 77.6331 50.149 77.7911 50.35 77.8957C50.547 78.0058 50.771 78.0584 50.9965 78.0473C51.2219 78.0363 51.4397 77.9621 51.625 77.8332L54.6875 75.7957L57.75 77.8332C57.938 77.957 58.1559 78.0277 58.3808 78.0379C58.6057 78.0481 58.8292 77.9974 59.0276 77.8912C59.226 77.7849 59.3921 77.627 59.5083 77.4342C59.6244 77.2414 59.6863 77.0208 59.6875 76.7957V73.0457H70.9375C71.269 73.0457 71.587 72.914 71.8214 72.6795C72.0558 72.4451 72.1875 72.1272 72.1875 71.7957V4.29565C72.1875 3.96413 72.0558 3.64619 71.8214 3.41177C71.587 3.17735 71.269 3.04565 70.9375 3.04565ZM57.1875 74.4582L55.375 73.2581C55.1724 73.1198 54.9328 73.0457 54.6875 73.0457C54.4422 73.0457 54.2026 73.1198 54 73.2581L52.1875 74.4582V65.5457H57.1875V74.4582ZM69.6875 70.5457H59.6875V65.5457H65.9375C66.269 65.5457 66.587 65.414 66.8214 65.1795C67.0558 64.9451 67.1875 64.6272 67.1875 64.2957C67.1875 63.9641 67.0558 63.6462 66.8214 63.4118C66.587 63.1773 66.269 63.0457 65.9375 63.0457H15.9375C15.606 63.0457 15.288 63.1773 15.0536 63.4118C14.8192 63.6462 14.6875 63.9641 14.6875 64.2957C14.6875 64.6272 14.8192 64.9451 15.0536 65.1795C15.288 65.414 15.606 65.5457 15.9375 65.5457H49.6875V70.5457H18.4375C16.7799 70.5457 15.1902 69.8872 14.0181 68.7151C12.846 67.543 12.1875 65.9533 12.1875 64.2957C12.1875 62.6381 12.846 61.0483 14.0181 59.8762C15.1902 58.7041 16.7799 58.0457 18.4375 58.0457H69.6875V70.5457ZM69.6875 55.5457H18.4375C17.2893 55.5393 16.1515 55.7627 15.091 56.2028C14.0305 56.6429 13.0688 57.2907 12.2625 58.1082L12.1875 58.1832V11.7957C12.1875 10.1381 12.846 8.54834 14.0181 7.37624C15.1902 6.20413 16.7799 5.54565 18.4375 5.54565H69.6875V55.5457Z" fill="#1E81CE"/>
<path d="M18.4375 53.0457C18.769 53.0457 19.087 52.914 19.3214 52.6795C19.5558 52.4451 19.6875 52.1272 19.6875 51.7957V9.29565C19.6875 8.96413 19.5558 8.64619 19.3214 8.41177C19.087 8.17735 18.769 8.04565 18.4375 8.04565C18.106 8.04565 17.788 8.17735 17.5536 8.41177C17.3192 8.64619 17.1875 8.96413 17.1875 9.29565V51.7957C17.1875 52.1272 17.3192 52.4451 17.5536 52.6795C17.788 52.914 18.106 53.0457 18.4375 53.0457Z" fill="#1E81CE"/>
<path d="M24.6875 50.5457H64.6875C65.019 50.5457 65.337 50.414 65.5714 50.1795C65.8058 49.9451 65.9375 49.6272 65.9375 49.2957C65.9375 48.9641 65.8058 48.6462 65.5714 48.4118C65.337 48.1773 65.019 48.0457 64.6875 48.0457H63.4375V24.2957C63.4375 23.9641 63.3058 23.6462 63.0714 23.4118C62.837 23.1773 62.519 23.0457 62.1875 23.0457H57.1875C56.856 23.0457 56.538 23.1773 56.3036 23.4118C56.0692 23.6462 55.9375 23.9641 55.9375 24.2957V48.0457H53.4375V31.7957C53.4375 31.4641 53.3058 31.1462 53.0714 30.9118C52.837 30.6773 52.519 30.5457 52.1875 30.5457H47.1875C46.856 30.5457 46.538 30.6773 46.3036 30.9118C46.0692 31.1462 45.9375 31.4641 45.9375 31.7957V48.0457H43.4375V36.7957C43.4375 36.4641 43.3058 36.1462 43.0714 35.9118C42.837 35.6773 42.519 35.5457 42.1875 35.5457H37.1875C36.856 35.5457 36.538 35.6773 36.3036 35.9118C36.0692 36.1462 35.9375 36.4641 35.9375 36.7957V48.0457H33.4375V41.7957C33.4375 41.4641 33.3058 41.1462 33.0714 40.9118C32.837 40.6773 32.519 40.5457 32.1875 40.5457H27.1875C26.856 40.5457 26.538 40.6773 26.3036 40.9118C26.0692 41.1462 25.9375 41.4641 25.9375 41.7957V48.0457H24.6875C24.356 48.0457 24.038 48.1773 23.8036 48.4118C23.5692 48.6462 23.4375 48.9641 23.4375 49.2957C23.4375 49.6272 23.5692 49.9451 23.8036 50.1795C24.038 50.414 24.356 50.5457 24.6875 50.5457ZM58.4375 25.5457H60.9375V48.0457H58.4375V25.5457ZM48.4375 33.0457H50.9375V48.0457H48.4375V33.0457ZM38.4375 38.0457H40.9375V48.0457H38.4375V38.0457ZM28.4375 43.0457H30.9375V48.0457H28.4375V43.0457Z" fill="#1E81CE"/>
</svg>
