<svg width="76" height="76" viewBox="0 0 76 76" fill="none" xmlns="http://www.w3.org/2000/svg">
<path d="M50.4375 16.2957C48.9113 16.2957 47.9375 15.5557 47.9375 15.0457C47.9375 14.7141 47.8058 14.3962 47.5714 14.1618C47.337 13.9274 47.019 13.7957 46.6875 13.7957C46.356 13.7957 46.038 13.9274 45.8036 14.1618C45.5692 14.3962 45.4375 14.7141 45.4375 15.0457C45.4375 16.8219 47.0112 18.2594 49.1875 18.6707V20.0457C49.1875 20.3772 49.3192 20.6951 49.5536 20.9295C49.788 21.164 50.106 21.2957 50.4375 21.2957C50.769 21.2957 51.087 21.164 51.3214 20.9295C51.5558 20.6951 51.6875 20.3772 51.6875 20.0457V18.6707C53.8638 18.2619 55.4375 16.8244 55.4375 15.0457C55.4375 12.9432 53.2413 11.2957 50.4375 11.2957C48.9113 11.2957 47.9375 10.5557 47.9375 10.0457C47.9375 9.53565 48.9113 8.79565 50.4375 8.79565C51.9637 8.79565 52.9375 9.53565 52.9375 10.0457C52.9375 10.3772 53.0692 10.6951 53.3036 10.9295C53.538 11.164 53.856 11.2957 54.1875 11.2957C54.519 11.2957 54.837 11.164 55.0714 10.9295C55.3058 10.6951 55.4375 10.3772 55.4375 10.0457C55.4375 8.2694 53.8638 6.8319 51.6875 6.42065V5.04565C51.6875 4.71413 51.5558 4.39619 51.3214 4.16177C51.087 3.92735 50.769 3.79565 50.4375 3.79565C50.106 3.79565 49.788 3.92735 49.5536 4.16177C49.3192 4.39619 49.1875 4.71413 49.1875 5.04565V6.42065C47.0112 6.8294 45.4375 8.2669 45.4375 10.0457C45.4375 12.1482 47.6337 13.7957 50.4375 13.7957C51.9637 13.7957 52.9375 14.5357 52.9375 15.0457C52.9375 15.5557 51.9637 16.2957 50.4375 16.2957Z" fill="#1E81CE"/>
<path d="M71.6875 10.0457H62.6875C62.1137 7.22001 60.5807 4.67955 58.3481 2.85479C56.1156 1.03003 53.3209 0.0332031 50.4375 0.0332031C47.5541 0.0332031 44.7594 1.03003 42.5269 2.85479C40.2943 4.67955 38.7613 7.22001 38.1875 10.0457H4.1875C3.19385 10.0487 2.24175 10.4447 1.53913 11.1474C0.836509 11.85 0.440468 12.8021 0.4375 13.7957V56.2957C0.440468 57.2894 0.836509 58.2415 1.53913 58.9441C2.24175 59.6467 3.19385 60.0428 4.1875 60.0457H29.1875V65.0457H24.1875C23.1939 65.0487 22.2417 65.4447 21.5391 66.1474C20.8365 66.85 20.4405 67.8021 20.4375 68.7957V73.7957C20.4375 74.1273 20.5692 74.4452 20.8036 74.6796C21.038 74.914 21.356 75.0457 21.6875 75.0457H54.1875C54.519 75.0457 54.837 74.914 55.0714 74.6796C55.3058 74.4452 55.4375 74.1273 55.4375 73.7957V68.7957C55.4345 67.8021 55.0385 66.85 54.3359 66.1474C53.6333 65.4447 52.6811 65.0487 51.6875 65.0457H46.6875V60.0457H71.6875C72.6812 60.0428 73.6333 59.6467 74.3359 58.9441C75.0385 58.2415 75.4345 57.2894 75.4375 56.2957V13.7957C75.4345 12.8021 75.0385 11.85 74.3359 11.1474C73.6333 10.4447 72.6812 10.0487 71.6875 10.0457ZM50.4375 2.54573C52.4153 2.54573 54.3487 3.13222 55.9932 4.23104C57.6377 5.32985 58.9194 6.89164 59.6763 8.7189C60.4332 10.5462 60.6312 12.5568 60.2454 14.4966C59.8595 16.4364 58.9071 18.2183 57.5086 19.6168C56.11 21.0153 54.3282 21.9677 52.3884 22.3536C50.4486 22.7394 48.4379 22.5414 46.6107 21.7845C44.7834 21.0277 43.2216 19.7459 42.1228 18.1014C41.024 16.4569 40.4375 14.5235 40.4375 12.5457C40.4411 9.89469 41.4959 7.35326 43.3704 5.47869C45.245 3.60411 47.7865 2.54937 50.4375 2.54573ZM38.5125 16.2957C39.3101 18.8338 40.8967 21.0511 43.0414 22.6252C45.1861 24.1994 47.7771 25.0482 50.4375 25.0482C53.0979 25.0482 55.6889 24.1994 57.8336 22.6252C59.9783 21.0511 61.5649 18.8338 62.3625 16.2957H69.1875V46.2957H6.6875V43.7957H15.4375C15.769 43.7957 16.087 43.664 16.3214 43.4296C16.5558 43.1952 16.6875 42.8773 16.6875 42.5457V41.2957H20.4375C20.769 41.2957 21.087 41.164 21.3214 40.9296C21.5558 40.6952 21.6875 40.3773 21.6875 40.0457H21.9C22.0646 40.0441 22.2279 40.0753 22.3803 40.1376C22.5327 40.1998 22.6711 40.2918 22.7875 40.4082L23.825 41.4457C24.1711 41.7965 24.5838 42.0746 25.0389 42.2635C25.494 42.4524 25.9823 42.5483 26.475 42.5457H39.675C41.2117 42.5491 42.7217 42.1435 44.05 41.3707L63.9625 29.8832C64.6066 29.5134 65.1263 28.9606 65.4558 28.295C65.7853 27.6294 65.9097 26.881 65.8133 26.1445C65.7169 25.4081 65.404 24.7169 64.9143 24.1586C64.4246 23.6002 63.7801 23.1998 63.0625 23.0082C62.5863 22.8785 62.0891 22.8448 61.5998 22.9092C61.1105 22.9736 60.6389 23.1347 60.2125 23.3832L50.3 29.1082C50.0945 28.3055 49.6282 27.5937 48.9744 27.0846C48.3205 26.5756 47.5161 26.2981 46.6875 26.2957H37.0625L36.8125 26.1332C34.5777 24.6374 31.9524 23.8316 29.2632 23.816C26.5739 23.8005 23.9395 24.5759 21.6875 26.0457V25.0457C21.6875 24.7142 21.5558 24.3963 21.3214 24.1619C21.087 23.9274 20.769 23.7957 20.4375 23.7957H16.6875V22.5457C16.6875 22.2142 16.5558 21.8963 16.3214 21.6619C16.087 21.4274 15.769 21.2957 15.4375 21.2957H6.6875V16.2957H38.5125ZM6.6875 41.2957V23.7957H14.1875V41.2957H6.6875ZM16.6875 38.7957V26.2957H19.1875V38.7957H16.6875ZM39.1875 33.7957H46.6875C47.2375 33.7945 47.7804 33.6717 48.2774 33.4361C48.7745 33.2006 49.2133 32.8581 49.5625 32.4332L61.4625 25.5457C61.7503 25.3805 62.0917 25.3355 62.4125 25.4207C62.7339 25.5091 63.0077 25.72 63.175 26.0082C63.2783 26.2006 63.334 26.4149 63.3375 26.6332C63.3378 26.8517 63.2801 27.0664 63.1703 27.2552C63.0605 27.4441 62.9025 27.6004 62.7125 27.7082L42.8 39.2082C41.8503 39.7578 40.7723 40.0468 39.675 40.0457H26.475C26.3104 40.0474 26.1471 40.0162 25.9947 39.9539C25.8423 39.8917 25.7039 39.7997 25.5875 39.6832L24.55 38.6457C24.2039 38.295 23.7912 38.0169 23.3361 37.828C22.881 37.6391 22.3927 37.5431 21.9 37.5457H21.6875V28.7957C21.9329 28.7963 22.1727 28.7222 22.375 28.5832L22.95 28.2082C24.7959 26.9735 26.9667 26.3144 29.1875 26.3144C31.4083 26.3144 33.5791 26.9735 35.425 28.2082L36 28.5832C36.2023 28.7222 36.4421 28.7963 36.6875 28.7957H46.6875C47.019 28.7957 47.337 28.9274 47.5714 29.1619C47.8058 29.3963 47.9375 29.7142 47.9375 30.0457C47.9375 30.3773 47.8058 30.6952 47.5714 30.9296C47.337 31.164 47.019 31.2957 46.6875 31.2957H39.1875C38.856 31.2957 38.538 31.4274 38.3036 31.6619C38.0692 31.8963 37.9375 32.2142 37.9375 32.5457C37.9375 32.8773 38.0692 33.1952 38.3036 33.4296C38.538 33.664 38.856 33.7957 39.1875 33.7957ZM51.6875 67.5457C52.019 67.5457 52.337 67.6774 52.5714 67.9119C52.8058 68.1463 52.9375 68.4642 52.9375 68.7957V72.5457H22.9375V68.7957C22.9375 68.4642 23.0692 68.1463 23.3036 67.9119C23.538 67.6774 23.856 67.5457 24.1875 67.5457H51.6875ZM31.6875 65.0457V60.0457H44.1875V65.0457H31.6875ZM72.9375 56.2957C72.9375 56.6273 72.8058 56.9452 72.5714 57.1796C72.337 57.414 72.019 57.5457 71.6875 57.5457H4.1875C3.85598 57.5457 3.53804 57.414 3.30362 57.1796C3.0692 56.9452 2.9375 56.6273 2.9375 56.2957V52.5457H72.9375V56.2957ZM72.9375 50.0457H2.9375V13.7957C2.9375 13.4642 3.0692 13.1463 3.30362 12.9119C3.53804 12.6774 3.85598 12.5457 4.1875 12.5457H37.9375C37.9375 12.9707 37.9625 13.3832 38 13.7957H5.4375C5.10598 13.7957 4.78804 13.9274 4.55362 14.1619C4.3192 14.3963 4.1875 14.7142 4.1875 15.0457V47.5457C4.1875 47.8773 4.3192 48.1952 4.55362 48.4296C4.78804 48.664 5.10598 48.7957 5.4375 48.7957H70.4375C70.769 48.7957 71.087 48.664 71.3214 48.4296C71.5558 48.1952 71.6875 47.8773 71.6875 47.5457V15.0457C71.6875 14.7142 71.5558 14.3963 71.3214 14.1619C71.087 13.9274 70.769 13.7957 70.4375 13.7957H62.875C62.9125 13.3832 62.9375 12.9707 62.9375 12.5457H71.6875C72.019 12.5457 72.337 12.6774 72.5714 12.9119C72.8058 13.1463 72.9375 13.4642 72.9375 13.7957V50.0457Z" fill="#1E81CE"/>
<path d="M66.6875 53.7957H64.1875C63.856 53.7957 63.538 53.9273 63.3036 54.1618C63.0692 54.3962 62.9375 54.7141 62.9375 55.0457C62.9375 55.3772 63.0692 55.6951 63.3036 55.9295C63.538 56.164 63.856 56.2957 64.1875 56.2957H66.6875C67.019 56.2957 67.337 56.164 67.5714 55.9295C67.8058 55.6951 67.9375 55.3772 67.9375 55.0457C67.9375 54.7141 67.8058 54.3962 67.5714 54.1618C67.337 53.9273 67.019 53.7957 66.6875 53.7957Z" fill="#1E81CE"/>
</svg>
