<svg width="76" height="66" viewBox="0 0 76 66" fill="none" xmlns="http://www.w3.org/2000/svg">
<path d="M9.1875 11.5457H4.1875C3.52507 11.5476 2.89033 11.8117 2.42192 12.2801C1.95351 12.7485 1.68948 13.3832 1.6875 14.0457V21.5457H9.1875V11.5457Z" fill="#9BC9FF"/>
<path d="M71.6875 1.54565H11.6875C11.0245 1.54565 10.3886 1.80905 9.91973 2.27789C9.45089 2.74673 9.1875 3.38261 9.1875 4.04565V11.5457H74.1875V4.04565C74.1875 3.38261 73.9241 2.74673 73.4553 2.27789C72.9864 1.80905 72.3505 1.54565 71.6875 1.54565Z" fill="#9BC9FF"/>
<path d="M29.1875 39.0457H34.1875V49.0457H29.1875V39.0457Z" fill="#9BC9FF"/>
<path d="M39.1875 36.5457H44.1875V49.0457H39.1875V36.5457Z" fill="#9BC9FF"/>
<path d="M49.1875 31.5457H54.1875V49.0457H49.1875V31.5457Z" fill="#9BC9FF"/>
<path d="M59.1875 26.5457H64.1875V49.0457H59.1875V26.5457Z" fill="#9BC9FF"/>
<path d="M25.4375 29.0457C25.4375 26.9432 23.2413 25.2957 20.4375 25.2957C18.9113 25.2957 17.9375 24.5557 17.9375 24.0457C17.9375 23.5357 18.9113 22.7957 20.4375 22.7957C21.9637 22.7957 22.9375 23.5357 22.9375 24.0457C22.9375 24.3772 23.0692 24.6951 23.3036 24.9295C23.538 25.164 23.856 25.2957 24.1875 25.2957C24.519 25.2957 24.837 25.164 25.0714 24.9295C25.3058 24.6951 25.4375 24.3772 25.4375 24.0457C25.4375 22.2694 23.8638 20.8319 21.6875 20.4207V19.0457C21.6875 18.7141 21.5558 18.3962 21.3214 18.1618C21.087 17.9273 20.769 17.7957 20.4375 17.7957C20.106 17.7957 19.788 17.9273 19.5536 18.1618C19.3192 18.3962 19.1875 18.7141 19.1875 19.0457V20.4207C17.0112 20.8294 15.4375 22.2669 15.4375 24.0457C15.4375 26.1482 17.6337 27.7957 20.4375 27.7957C21.9637 27.7957 22.9375 28.5357 22.9375 29.0457C22.9375 29.5557 21.9637 30.2957 20.4375 30.2957C18.9113 30.2957 17.9375 29.5557 17.9375 29.0457C17.9375 28.7141 17.8058 28.3962 17.5714 28.1618C17.337 27.9273 17.019 27.7957 16.6875 27.7957C16.356 27.7957 16.038 27.9273 15.8036 28.1618C15.5692 28.3962 15.4375 28.7141 15.4375 29.0457C15.4375 30.8219 17.0112 32.2594 19.1875 32.6707V34.0457C19.1875 34.3772 19.3192 34.6951 19.5536 34.9295C19.788 35.164 20.106 35.2957 20.4375 35.2957C20.769 35.2957 21.087 35.164 21.3214 34.9295C21.5558 34.6951 21.6875 34.3772 21.6875 34.0457V32.6707C23.8638 32.2594 25.4375 30.8219 25.4375 29.0457Z" fill="#1E81CE"/>
<path d="M71.6875 0.295654H11.6875C10.6939 0.298622 9.74175 0.694663 9.03913 1.39728C8.33651 2.0999 7.94047 3.05201 7.9375 4.04565V10.2957H4.1875C3.19385 10.2986 2.24175 10.6947 1.53913 11.3973C0.836509 12.0999 0.440468 13.052 0.4375 14.0457V61.5457C0.440468 62.5393 0.836509 63.4914 1.53913 64.194C2.24175 64.8966 3.19385 65.2927 4.1875 65.2957H64.1875C65.1812 65.2927 66.1333 64.8966 66.8359 64.194C67.5385 63.4914 67.9345 62.5393 67.9375 61.5457V57.7957H71.6875C72.6812 57.7927 73.6333 57.3966 74.3359 56.694C75.0385 55.9914 75.4345 55.0393 75.4375 54.0457V4.04565C75.4345 3.05201 75.0385 2.0999 74.3359 1.39728C73.6333 0.694663 72.6812 0.298622 71.6875 0.295654ZM2.9375 14.0457C2.9375 13.7141 3.0692 13.3962 3.30362 13.1618C3.53804 12.9273 3.85598 12.7957 4.1875 12.7957H7.9375V20.2957H2.9375V14.0457ZM65.4375 61.5457C65.4375 61.8772 65.3058 62.1951 65.0714 62.4295C64.837 62.664 64.519 62.7957 64.1875 62.7957H4.1875C3.85598 62.7957 3.53804 62.664 3.30362 62.4295C3.0692 62.1951 2.9375 61.8772 2.9375 61.5457V22.7957H7.9375V54.0457C7.94047 55.0393 8.33651 55.9914 9.03913 56.694C9.74175 57.3966 10.6939 57.7927 11.6875 57.7957H65.4375V61.5457ZM72.9375 54.0457C72.9375 54.3772 72.8058 54.6951 72.5714 54.9295C72.337 55.164 72.019 55.2957 71.6875 55.2957H11.6875C11.356 55.2957 11.038 55.164 10.8036 54.9295C10.5692 54.6951 10.4375 54.3772 10.4375 54.0457V12.7957H72.9375V54.0457ZM72.9375 10.2957H10.4375V4.04565C10.4375 3.71413 10.5692 3.39619 10.8036 3.16177C11.038 2.92735 11.356 2.79565 11.6875 2.79565H71.6875C72.019 2.79565 72.337 2.92735 72.5714 3.16177C72.8058 3.39619 72.9375 3.71413 72.9375 4.04565V10.2957Z" fill="#1E81CE"/>
<path d="M66.6875 47.7957H65.4375V26.5457C65.4375 26.2141 65.3058 25.8962 65.0714 25.6618C64.837 25.4273 64.519 25.2957 64.1875 25.2957H59.1875C58.856 25.2957 58.538 25.4273 58.3036 25.6618C58.0692 25.8962 57.9375 26.2141 57.9375 26.5457V47.7957H55.4375V31.5457C55.4375 31.2141 55.3058 30.8962 55.0714 30.6618C54.837 30.4273 54.519 30.2957 54.1875 30.2957H49.1875C48.856 30.2957 48.538 30.4273 48.3036 30.6618C48.0692 30.8962 47.9375 31.2141 47.9375 31.5457V47.7957H45.4375V36.5457C45.4375 36.2141 45.3058 35.8962 45.0714 35.6618C44.837 35.4273 44.519 35.2957 44.1875 35.2957H39.1875C38.856 35.2957 38.538 35.4273 38.3036 35.6618C38.0692 35.8962 37.9375 36.2141 37.9375 36.5457V47.7957H35.4375V39.0457C35.4375 38.7141 35.3058 38.3962 35.0714 38.1618C34.837 37.9273 34.519 37.7957 34.1875 37.7957H29.1875C28.856 37.7957 28.538 37.9273 28.3036 38.1618C28.0692 38.3962 27.9375 38.7141 27.9375 39.0457V47.7957H26.6875C26.356 47.7957 26.038 47.9273 25.8036 48.1618C25.5692 48.3962 25.4375 48.7141 25.4375 49.0457C25.4375 49.3772 25.5692 49.6951 25.8036 49.9295C26.038 50.164 26.356 50.2957 26.6875 50.2957H66.6875C67.019 50.2957 67.337 50.164 67.5714 49.9295C67.8058 49.6951 67.9375 49.3772 67.9375 49.0457C67.9375 48.7141 67.8058 48.3962 67.5714 48.1618C67.337 47.9273 67.019 47.7957 66.6875 47.7957ZM32.9375 47.7957H30.4375V40.2957H32.9375V47.7957ZM42.9375 47.7957H40.4375V37.7957H42.9375V47.7957ZM52.9375 47.7957H50.4375V32.7957H52.9375V47.7957ZM62.9375 47.7957H60.4375V27.7957H62.9375V47.7957Z" fill="#1E81CE"/>
<path d="M14.1875 7.79565H15.4375C15.769 7.79565 16.087 7.66396 16.3214 7.42954C16.5558 7.19512 16.6875 6.87717 16.6875 6.54565C16.6875 6.21413 16.5558 5.89619 16.3214 5.66177C16.087 5.42735 15.769 5.29565 15.4375 5.29565H14.1875C13.856 5.29565 13.538 5.42735 13.3036 5.66177C13.0692 5.89619 12.9375 6.21413 12.9375 6.54565C12.9375 6.87717 13.0692 7.19512 13.3036 7.42954C13.538 7.66396 13.856 7.79565 14.1875 7.79565Z" fill="#1E81CE"/>
<path d="M20.4375 7.79565H21.6875C22.019 7.79565 22.337 7.66396 22.5714 7.42954C22.8058 7.19512 22.9375 6.87717 22.9375 6.54565C22.9375 6.21413 22.8058 5.89619 22.5714 5.66177C22.337 5.42735 22.019 5.29565 21.6875 5.29565H20.4375C20.106 5.29565 19.788 5.42735 19.5536 5.66177C19.3192 5.89619 19.1875 6.21413 19.1875 6.54565C19.1875 6.87717 19.3192 7.19512 19.5536 7.42954C19.788 7.66396 20.106 7.79565 20.4375 7.79565Z" fill="#1E81CE"/>
<path d="M26.6875 7.79565H27.9375C28.269 7.79565 28.587 7.66396 28.8214 7.42954C29.0558 7.19512 29.1875 6.87717 29.1875 6.54565C29.1875 6.21413 29.0558 5.89619 28.8214 5.66177C28.587 5.42735 28.269 5.29565 27.9375 5.29565H26.6875C26.356 5.29565 26.038 5.42735 25.8036 5.66177C25.5692 5.89619 25.4375 6.21413 25.4375 6.54565C25.4375 6.87717 25.5692 7.19512 25.8036 7.42954C26.038 7.66396 26.356 7.79565 26.6875 7.79565Z" fill="#1E81CE"/>
<path d="M31.6873 35.2957C32.0188 35.2956 32.3367 35.1638 32.571 34.9294L37.9373 29.5632L40.8035 32.4294C41.038 32.6637 41.3558 32.7954 41.6873 32.7954C42.0187 32.7954 42.3366 32.6637 42.571 32.4294L49.1873 25.8132L50.8035 27.4294C51.038 27.6637 51.3558 27.7954 51.6873 27.7954C52.0187 27.7954 52.3366 27.6637 52.571 27.4294L60.4373 19.5632V21.5457C60.4373 21.8772 60.569 22.1951 60.8034 22.4295C61.0378 22.664 61.3558 22.7957 61.6873 22.7957C62.0188 22.7957 62.3368 22.664 62.5712 22.4295C62.8056 22.1951 62.9373 21.8772 62.9373 21.5457V16.5457C62.937 16.2985 62.8635 16.057 62.726 15.8517C62.5885 15.6463 62.3932 15.4863 62.1648 15.3919C62.0134 15.3291 61.8512 15.2964 61.6873 15.2957H56.6873C56.3558 15.2957 56.0378 15.4273 55.8034 15.6618C55.569 15.8962 55.4373 16.2141 55.4373 16.5457C55.4373 16.8772 55.569 17.1951 55.8034 17.4295C56.0378 17.664 56.3558 17.7957 56.6873 17.7957H58.6698L51.6873 24.7782L50.071 23.1619C49.8366 22.9276 49.5187 22.7959 49.1873 22.7959C48.8558 22.7959 48.538 22.9276 48.3035 23.1619L41.6873 29.7782L38.821 26.9119C38.5866 26.6776 38.2687 26.5459 37.9373 26.5459C37.6058 26.5459 37.288 26.6776 37.0535 26.9119L30.8035 33.1619C30.6288 33.3367 30.5098 33.5594 30.4616 33.8019C30.4134 34.0443 30.4381 34.2956 30.5327 34.524C30.6273 34.7523 30.7875 34.9476 30.993 35.0849C31.1985 35.2223 31.4401 35.2956 31.6873 35.2957Z" fill="#1E81CE"/>
</svg>
