<svg width="76" height="76" viewBox="0 0 76 76" fill="none" xmlns="http://www.w3.org/2000/svg">
<path d="M54.1725 52.5457C50.93 61.5107 44.8763 67.5457 37.9375 67.5457C45.894 67.5457 53.5246 64.3849 59.1507 58.7589C64.7768 53.1328 67.9375 45.5021 67.9375 37.5457H56.6875C56.7187 42.6531 55.8678 47.7277 54.1725 52.5457Z" fill="#9BC9FF"/>
<path d="M21.7025 52.5457C20.0072 47.7277 19.1563 42.6531 19.1875 37.5457H7.9375C7.9375 45.5021 11.0982 53.1328 16.7243 58.7589C22.3504 64.3849 29.981 67.5457 37.9375 67.5457C30.9988 67.5457 24.945 61.5107 21.7025 52.5457Z" fill="#9BC9FF"/>
<path d="M37.9375 7.54565C44.8763 7.54565 50.93 13.5807 54.1725 22.5457C55.8678 27.3637 56.7187 32.4382 56.6875 37.5457H67.9375C67.9375 29.5892 64.7768 21.9585 59.1507 16.3325C53.5246 10.7064 45.894 7.54565 37.9375 7.54565Z" fill="#9BC9FF"/>
<path d="M21.7025 22.5457C24.945 13.5807 30.9988 7.54565 37.9375 7.54565C29.981 7.54565 22.3504 10.7064 16.7243 16.3325C11.0982 21.9585 7.9375 29.5892 7.9375 37.5457H19.1875C19.1563 32.4382 20.0072 27.3637 21.7025 22.5457Z" fill="#9BC9FF"/>
<path d="M21.7027 22.5457H37.9377V7.54565C30.999 7.54565 24.9452 13.5807 21.7027 22.5457Z" fill="#9BC9FF"/>
<path d="M54.1725 52.5457H37.9375V67.5457C44.8763 67.5457 50.93 61.5107 54.1725 52.5457Z" fill="#9BC9FF"/>
<path d="M37.938 26.2957V22.5457H21.703C20.0076 27.3637 19.1568 32.4382 19.188 37.5457H26.688C26.688 34.562 27.8732 31.7005 29.983 29.5907C32.0928 27.4809 34.9543 26.2957 37.938 26.2957Z" fill="#9BC9FF"/>
<path d="M21.7027 52.5457C24.9452 61.5107 30.999 67.5457 37.9377 67.5457V52.5457H21.7027Z" fill="#9BC9FF"/>
<path d="M26.688 37.5457H19.188C19.1568 42.6531 20.0076 47.7277 21.703 52.5457H37.938V48.7957C34.9543 48.7957 32.0928 47.6104 29.983 45.5006C27.8732 43.3908 26.688 40.5293 26.688 37.5457Z" fill="#9BC9FF"/>
<path d="M37.9375 26.2957C40.9212 26.2957 43.7827 27.4809 45.8925 29.5907C48.0022 31.7005 49.1875 34.562 49.1875 37.5457H56.6875C56.7187 32.4382 55.8678 27.3637 54.1725 22.5457H37.9375V26.2957Z" fill="#9BC9FF"/>
<path d="M37.9375 48.7957V52.5457H54.1725C55.8678 47.7277 56.7187 42.6531 56.6875 37.5457H49.1875C49.1875 40.5293 48.0022 43.3908 45.8925 45.5006C43.7827 47.6104 40.9212 48.7957 37.9375 48.7957Z" fill="#9BC9FF"/>
<path d="M54.1725 22.5457C50.93 13.5807 44.8763 7.54565 37.9375 7.54565V22.5457H54.1725Z" fill="#9BC9FF"/>
<path d="M37.9375 33.7957C39.4637 33.7957 40.4375 34.5357 40.4375 35.0457C40.4375 35.3772 40.5692 35.6951 40.8036 35.9295C41.038 36.164 41.356 36.2957 41.6875 36.2957C42.019 36.2957 42.337 36.164 42.5714 35.9295C42.8058 35.6951 42.9375 35.3772 42.9375 35.0457C42.9375 33.2694 41.3638 31.8319 39.1875 31.4207V30.0457C39.1875 29.7141 39.0558 29.3962 38.8214 29.1618C38.587 28.9273 38.269 28.7957 37.9375 28.7957C37.606 28.7957 37.288 28.9273 37.0536 29.1618C36.8192 29.3962 36.6875 29.7141 36.6875 30.0457V31.4207C34.5112 31.8294 32.9375 33.2669 32.9375 35.0457C32.9375 37.1482 35.1337 38.7957 37.9375 38.7957C39.4637 38.7957 40.4375 39.5357 40.4375 40.0457C40.4375 40.5557 39.4637 41.2957 37.9375 41.2957C36.4113 41.2957 35.4375 40.5557 35.4375 40.0457C35.4375 39.7141 35.3058 39.3962 35.0714 39.1618C34.837 38.9273 34.519 38.7957 34.1875 38.7957C33.856 38.7957 33.538 38.9273 33.3036 39.1618C33.0692 39.3962 32.9375 39.7141 32.9375 40.0457C32.9375 41.8219 34.5112 43.2594 36.6875 43.6707V45.0457C36.6875 45.3772 36.8192 45.6951 37.0536 45.9295C37.288 46.164 37.606 46.2957 37.9375 46.2957C38.269 46.2957 38.587 46.164 38.8214 45.9295C39.0558 45.6951 39.1875 45.3772 39.1875 45.0457V43.6707C41.3638 43.2619 42.9375 41.8244 42.9375 40.0457C42.9375 37.9432 40.7413 36.2957 37.9375 36.2957C36.4113 36.2957 35.4375 35.5557 35.4375 35.0457C35.4375 34.5357 36.4113 33.7957 37.9375 33.7957Z" fill="#1E81CE"/>
<path d="M34.0375 2.75314C34.0826 2.75314 34.1276 2.75063 34.1725 2.74564C34.9837 2.65814 35.7975 2.59939 36.6062 2.57189C36.7705 2.56625 36.9321 2.52825 37.0817 2.46008C37.2313 2.39191 37.3659 2.2949 37.478 2.17461C37.59 2.05432 37.6772 1.91311 37.7346 1.75907C37.792 1.60503 37.8185 1.44117 37.8125 1.27689C37.7969 0.94687 37.6528 0.636038 37.4111 0.410857C37.1693 0.185676 36.849 0.0640169 36.5187 0.0718931C35.6562 0.103143 34.7787 0.166893 33.9087 0.259393C33.5772 0.276798 33.2662 0.425186 33.0441 0.671913C32.8219 0.918641 32.7069 1.2435 32.7243 1.57502C32.7418 1.90654 32.8901 2.21757 33.1369 2.43968C33.3836 2.66179 33.7085 2.7768 34.04 2.75939L34.0375 2.75314Z" fill="#1E81CE"/>
<path d="M19.729 7.44439C19.9487 7.44362 20.1642 7.38498 20.354 7.27439C21.054 6.86689 21.7778 6.47814 22.5015 6.12189C22.6494 6.04986 22.7817 5.94934 22.8907 5.82609C22.9997 5.70283 23.0832 5.55928 23.1366 5.40365C23.19 5.24803 23.2122 5.08339 23.2018 4.91919C23.1914 4.75499 23.1487 4.59446 23.0761 4.44679C23.0036 4.29913 22.9026 4.16724 22.779 4.05869C22.6553 3.95015 22.5115 3.86707 22.3556 3.81424C22.1998 3.76141 22.0351 3.73986 21.871 3.75083C21.7068 3.76179 21.5464 3.80506 21.399 3.87814C20.6215 4.26064 19.8465 4.67689 19.0953 5.11439C18.8582 5.25253 18.6732 5.46482 18.5687 5.71852C18.4643 5.97223 18.4462 6.25325 18.5173 6.51825C18.5884 6.78324 18.7447 7.01749 18.9621 7.18487C19.1795 7.35224 19.4459 7.44343 19.7203 7.44439H19.729Z" fill="#1E81CE"/>
<path d="M26.6357 4.3431C26.7681 4.34251 26.8997 4.32142 27.0257 4.2806C27.7907 4.0306 28.5794 3.8006 29.3707 3.60185C29.6922 3.52079 29.9684 3.31531 30.1385 3.0306C30.3086 2.7459 30.3586 2.4053 30.2775 2.08372C30.1965 1.76215 29.991 1.48594 29.7063 1.31587C29.4216 1.1458 29.081 1.09579 28.7594 1.17684C27.9119 1.39059 27.0669 1.6356 26.2457 1.90435C25.9624 1.99645 25.7212 2.18672 25.5658 2.44087C25.4104 2.69501 25.3508 2.99631 25.3978 3.29049C25.4449 3.58467 25.5954 3.85237 25.8224 4.04536C26.0493 4.23835 26.3378 4.34394 26.6357 4.3431Z" fill="#1E81CE"/>
<path d="M13.6162 11.9208C13.9263 11.9206 14.2252 11.8052 14.455 11.597C15.0525 11.0558 15.68 10.5258 16.32 10.0233C16.4498 9.92183 16.5584 9.7958 16.6396 9.65239C16.7207 9.50898 16.7728 9.35099 16.7929 9.18744C16.813 9.02389 16.8006 8.85799 16.7566 8.69921C16.7126 8.54043 16.6377 8.39187 16.5362 8.26203C16.4348 8.13218 16.3088 8.02359 16.1654 7.94245C16.0219 7.86131 15.864 7.80922 15.7004 7.78914C15.5369 7.76906 15.371 7.78139 15.2122 7.82542C15.0534 7.86945 14.9048 7.94433 14.775 8.04578C14.0887 8.58453 13.4162 9.15328 12.775 9.73328C12.5879 9.90284 12.4565 10.1251 12.3982 10.3708C12.3399 10.6165 12.3573 10.8741 12.4482 11.1096C12.5392 11.3452 12.6993 11.5477 12.9076 11.6905C13.1159 11.8333 13.3625 11.9097 13.615 11.9095L13.6162 11.9208Z" fill="#1E81CE"/>
<path d="M2.20039 31.3107C2.28513 31.3281 2.37139 31.3369 2.45789 31.337C2.74562 31.3365 3.02437 31.2367 3.24708 31.0545C3.4698 30.8723 3.62284 30.6189 3.68039 30.337C3.84539 29.5482 4.04039 28.7507 4.26289 27.962C4.33265 27.6491 4.27955 27.3214 4.11457 27.0466C3.94959 26.7718 3.68533 26.5708 3.3764 26.4853C3.06748 26.3997 2.7375 26.4361 2.45466 26.587C2.17182 26.7378 1.95773 26.9915 1.85664 27.2957C1.61914 28.1357 1.40914 28.9907 1.23164 29.8357C1.16511 30.1597 1.22971 30.4969 1.41128 30.7734C1.59286 31.0498 1.87662 31.2431 2.20039 31.3107Z" fill="#1E81CE"/>
<path d="M4.27229 24.0168C4.43146 24.0884 4.604 24.1255 4.77854 24.1256C5.02123 24.125 5.25849 24.0537 5.46137 23.9205C5.66424 23.7874 5.82397 23.598 5.92104 23.3756C6.24854 22.6381 6.60854 21.8981 6.98979 21.1781C7.14494 20.885 7.17732 20.5423 7.0798 20.2254C6.98228 19.9084 6.76285 19.6432 6.46979 19.4881C6.17673 19.3329 5.83403 19.3005 5.5171 19.3981C5.20016 19.4956 4.93494 19.715 4.77979 20.0081C4.37104 20.7793 3.98729 21.5718 3.63604 22.3631C3.56883 22.5134 3.53198 22.6755 3.5276 22.8401C3.52322 23.0047 3.5514 23.1685 3.61052 23.3222C3.66964 23.4758 3.75854 23.6163 3.87211 23.7355C3.98567 23.8547 4.12167 23.9503 4.27229 24.0168Z" fill="#1E81CE"/>
<path d="M8.56306 17.5558C8.76083 17.556 8.95584 17.5094 9.13207 17.4196C9.3083 17.3299 9.46072 17.1996 9.57681 17.0395C10.0531 16.3808 10.5581 15.732 11.0768 15.1108C11.2893 14.8558 11.3918 14.5269 11.3618 14.1964C11.3318 13.8658 11.1718 13.5608 10.9168 13.3483C10.6619 13.1358 10.333 13.0332 10.0024 13.0632C9.67189 13.0932 9.36682 13.2533 9.15431 13.5083C8.59806 14.1733 8.05806 14.8683 7.54681 15.5733C7.44988 15.7064 7.38022 15.8574 7.34182 16.0175C7.30343 16.1777 7.29705 16.3438 7.32307 16.5065C7.34909 16.6691 7.40699 16.825 7.49344 16.9651C7.57989 17.1053 7.69318 17.227 7.82681 17.3233C8.04111 17.4774 8.29912 17.5588 8.56306 17.5558Z" fill="#1E81CE"/>
<path d="M63.0315 13.147C63.1455 13.2666 63.282 13.3625 63.4333 13.429C63.5845 13.4955 63.7474 13.5314 63.9126 13.5346C64.0778 13.5377 64.2419 13.5081 64.3956 13.4475C64.5493 13.3868 64.6894 13.2963 64.8079 13.1811C64.9263 13.0659 65.0208 12.9284 65.0858 12.7765C65.1508 12.6246 65.185 12.4614 65.1865 12.2962C65.188 12.131 65.1568 11.9671 65.0945 11.814C65.0323 11.661 64.9404 11.5218 64.824 11.4045C64.2215 10.7795 63.5878 10.1757 62.9365 9.59324C62.689 9.37574 62.3656 9.26476 62.0367 9.28446C61.7078 9.30416 61.3999 9.45295 61.1801 9.69844C60.9603 9.94394 60.8464 10.2663 60.863 10.5954C60.8797 10.9245 61.0256 11.2337 61.269 11.4557C61.8765 11.9995 62.469 12.5695 63.0315 13.147Z" fill="#1E81CE"/>
<path d="M41.4905 2.72301C42.2917 2.80426 43.1055 2.91426 43.908 3.05176C44.0709 3.08225 44.2382 3.08002 44.4003 3.04523C44.5623 3.01043 44.7158 2.94375 44.8519 2.84907C44.9879 2.7544 45.1038 2.63361 45.1927 2.49374C45.2816 2.35387 45.3418 2.19772 45.3699 2.03436C45.3979 1.871 45.3931 1.7037 45.3559 1.5422C45.3186 1.38069 45.2496 1.22821 45.1529 1.09361C45.0562 0.95902 44.9337 0.845007 44.7925 0.758207C44.6513 0.671407 44.4942 0.613554 44.3305 0.588014C43.4717 0.440514 42.5992 0.321764 41.7392 0.235514C41.5759 0.219099 41.4109 0.235015 41.2537 0.282353C41.0966 0.329692 40.9502 0.407526 40.8231 0.511411C40.696 0.615297 40.5906 0.743199 40.513 0.887816C40.4353 1.03243 40.3869 1.19093 40.3705 1.35426C40.354 1.5176 40.37 1.68256 40.4173 1.83974C40.4646 1.99692 40.5425 2.14324 40.6464 2.27034C40.7502 2.39744 40.8781 2.50283 41.0228 2.5805C41.1674 2.65817 41.3259 2.7066 41.4892 2.72301H41.4905Z" fill="#1E81CE"/>
<path d="M72.1492 30.1283C72.3192 30.9158 72.4642 31.7245 72.5804 32.532C72.6231 32.8296 72.7716 33.1018 72.9986 33.2987C73.2257 33.4957 73.5161 33.6043 73.8167 33.6045C73.8769 33.6042 73.9371 33.5996 73.9967 33.5908C74.1601 33.5681 74.3175 33.5133 74.4596 33.4295C74.6018 33.3457 74.726 33.2346 74.825 33.1026C74.924 32.9706 74.9959 32.8203 75.0365 32.6604C75.0771 32.5004 75.0857 32.334 75.0617 32.1708C74.9367 31.3058 74.7817 30.4395 74.5992 29.597C74.5256 29.2768 74.329 28.9983 74.0517 28.822C73.7745 28.6456 73.4389 28.5856 73.1177 28.6547C72.7965 28.7239 72.5154 28.9168 72.3353 29.1916C72.1552 29.4665 72.0906 29.8012 72.1554 30.1233L72.1492 30.1283Z" fill="#1E81CE"/>
<path d="M67.5545 18.8907C67.7312 19.1715 68.0122 19.3706 68.3357 19.4442C68.6592 19.5178 68.9987 19.4599 69.2794 19.2832C69.5602 19.1065 69.7593 18.8255 69.833 18.502C69.9066 18.1785 69.8486 17.839 69.6719 17.5582C69.2107 16.8269 68.7144 16.0994 68.1995 15.3957C68.1057 15.2551 67.9845 15.1349 67.843 15.0425C67.7016 14.95 67.5429 14.8872 67.3765 14.8579C67.2101 14.8285 67.0394 14.8332 66.8749 14.8716C66.7103 14.9101 66.5553 14.9815 66.4191 15.0816C66.2829 15.1816 66.1685 15.3082 66.0826 15.4538C65.9968 15.5993 65.9413 15.7608 65.9196 15.9283C65.8979 16.0959 65.9104 16.2662 65.9564 16.4288C66.0023 16.5914 66.0808 16.743 66.187 16.8744C66.6645 17.5307 67.127 18.2082 67.5545 18.8907Z" fill="#1E81CE"/>
<path d="M69.8665 23.1869C70.1978 23.9206 70.5078 24.6806 70.7903 25.4444C70.8441 25.6024 70.929 25.748 71.04 25.8726C71.151 25.9973 71.2858 26.0984 71.4366 26.1701C71.5873 26.2418 71.7508 26.2826 71.9176 26.29C72.0843 26.2975 72.2509 26.2715 72.4074 26.2136C72.5639 26.1556 72.7073 26.0669 72.8289 25.9527C72.9506 25.8385 73.0482 25.701 73.116 25.5485C73.1837 25.3959 73.2202 25.2314 73.2233 25.0645C73.2264 24.8976 73.196 24.7318 73.134 24.5769C72.8328 23.7594 72.499 22.9519 72.1465 22.1606C72.0791 22.0109 71.9829 21.8759 71.8634 21.7634C71.7438 21.6509 71.6033 21.563 71.4498 21.5048C71.2963 21.4466 71.1328 21.4192 70.9687 21.4242C70.8046 21.4291 70.6431 21.4664 70.4934 21.5337C70.3437 21.6011 70.2087 21.6973 70.0962 21.8169C69.9837 21.9364 69.8958 22.077 69.8376 22.2305C69.7794 22.384 69.752 22.5475 69.7569 22.7115C69.7619 22.8756 69.7991 23.0372 69.8665 23.1869Z" fill="#1E81CE"/>
<path d="M2.9375 37.5456C2.9375 36.749 2.96375 35.9598 3.01625 35.1781C3.0382 34.8475 2.92794 34.5216 2.70972 34.2722C2.49149 34.0228 2.18316 33.8703 1.8525 33.8481C1.68841 33.8351 1.52336 33.8549 1.36707 33.9066C1.21078 33.9583 1.06642 34.0407 0.942475 34.1491C0.818534 34.2574 0.717526 34.3894 0.645399 34.5374C0.573272 34.6854 0.531485 34.8463 0.5225 35.0106C0.46625 35.8481 0.4375 36.7006 0.4375 37.5106V37.6169C0.438274 37.779 0.471424 37.9394 0.535002 38.0885C0.598581 38.2377 0.691308 38.3726 0.807743 38.4854C0.924177 38.5983 1.06197 38.6867 1.21305 38.7455C1.36412 38.8044 1.52543 38.8325 1.6875 38.8282C2.02198 38.8197 2.3399 38.6808 2.57343 38.4412C2.80696 38.2016 2.93761 37.8802 2.9375 37.5456Z" fill="#1E81CE"/>
<path d="M48.6465 4.21311C49.4215 4.46311 50.1965 4.74062 50.9465 5.04187C51.0996 5.10695 51.2641 5.14083 51.4304 5.14152C51.5968 5.14221 51.7616 5.10969 51.9152 5.04588C52.0688 4.98206 52.2081 4.88822 52.325 4.76987C52.4419 4.65152 52.534 4.51103 52.5959 4.35663C52.6578 4.20224 52.6882 4.03704 52.6855 3.87072C52.6827 3.70441 52.6467 3.54032 52.5797 3.38807C52.5128 3.23582 52.416 3.09847 52.2953 2.98407C52.1745 2.86968 52.0322 2.78053 51.8765 2.72186C51.0715 2.39811 50.2415 2.09686 49.4115 1.83311C49.1033 1.7546 48.7767 1.79655 48.4983 1.9504C48.2199 2.10425 48.0107 2.35844 47.9132 2.6612C47.8156 2.96395 47.8372 3.29249 47.9735 3.5799C48.1097 3.86731 48.3504 4.09197 48.6465 4.20811V4.21311Z" fill="#1E81CE"/>
<path d="M55.3392 7.17052C56.0417 7.57302 56.7392 8.00802 57.4129 8.45927C57.5492 8.55119 57.7022 8.61538 57.8633 8.64817C58.0243 8.68096 58.1902 8.6817 58.3516 8.65036C58.5129 8.61902 58.6665 8.55621 58.8036 8.46552C58.9407 8.37482 59.0585 8.25801 59.1504 8.12177C59.2424 7.98552 59.3066 7.8325 59.3394 7.67145C59.3721 7.51039 59.3729 7.34446 59.3415 7.18312C59.3102 7.02178 59.2474 6.86819 59.1567 6.73112C59.066 6.59405 58.9492 6.47619 58.8129 6.38427C58.0904 5.90052 57.3442 5.43552 56.5904 5.00927C56.3028 4.84351 55.9612 4.79878 55.6406 4.88493C55.32 4.97108 55.0468 5.18105 54.8811 5.46864C54.7153 5.75623 54.6706 6.0979 54.7567 6.41847C54.8429 6.73904 55.0528 7.01226 55.3404 7.17802L55.3392 7.17052Z" fill="#1E81CE"/>
<path d="M48.7814 70.8331C48.0064 71.0831 47.2164 71.3118 46.4364 71.5056C46.2761 71.5442 46.125 71.6142 45.9919 71.7114C45.8587 71.8087 45.7461 71.9313 45.6606 72.0723C45.575 72.2132 45.5182 72.3697 45.4934 72.5327C45.4686 72.6957 45.4763 72.862 45.516 73.0221C45.5557 73.1821 45.6267 73.3327 45.7249 73.4651C45.8231 73.5976 45.9465 73.7093 46.0881 73.7939C46.2296 73.8785 46.3865 73.9342 46.5497 73.9579C46.7129 73.9815 46.8791 73.9727 47.0389 73.9318C47.8764 73.7243 48.7239 73.4818 49.5551 73.2106C49.7174 73.1651 49.8687 73.0872 50.0001 72.9817C50.1315 72.8762 50.2402 72.7452 50.3196 72.5966C50.3991 72.448 50.4477 72.2849 50.4626 72.1171C50.4774 71.9492 50.4581 71.7801 50.4059 71.6199C50.3537 71.4597 50.2697 71.3117 50.1588 71.1847C50.048 71.0578 49.9126 70.9547 49.7609 70.8814C49.6091 70.8081 49.4441 70.7663 49.2758 70.7584C49.1075 70.7506 48.9393 70.7768 48.7814 70.8356V70.8331Z" fill="#1E81CE"/>
<path d="M66.2614 58.1119C65.7876 58.7632 65.2814 59.4107 64.7614 60.0382C64.6525 60.1635 64.5697 60.3093 64.5179 60.467C64.466 60.6247 64.446 60.7912 64.4592 60.9567C64.4723 61.1222 64.5183 61.2834 64.5945 61.4309C64.6706 61.5784 64.7754 61.7093 64.9026 61.8159C65.0299 61.9225 65.1771 62.0027 65.3357 62.0518C65.4943 62.1009 65.6611 62.1179 65.8263 62.1018C65.9916 62.0857 66.152 62.0369 66.2981 61.9581C66.4443 61.8794 66.5733 61.7723 66.6776 61.6432C67.2389 60.9719 67.7814 60.2794 68.2876 59.5819C68.3889 59.4495 68.4626 59.2982 68.5046 59.1369C68.5465 58.9755 68.5557 58.8074 68.5317 58.6425C68.5077 58.4775 68.4509 58.319 68.3648 58.1763C68.2786 58.0337 68.1648 57.9096 68.03 57.8116C67.8951 57.7135 67.7421 57.6435 67.5798 57.6054C67.4175 57.5674 67.2492 57.5623 67.0849 57.5903C66.9206 57.6182 66.7635 57.6788 66.6229 57.7684C66.4823 57.858 66.3611 57.9748 66.2663 58.1119H66.2614Z" fill="#1E81CE"/>
<path d="M71.5748 51.1445C71.272 51.0098 70.928 51.0009 70.6186 51.1197C70.3092 51.2386 70.0596 51.4755 69.9248 51.7783C69.5961 52.5133 69.2348 53.252 68.8511 53.9745C68.6957 54.2673 68.6629 54.6098 68.7599 54.9267C68.857 55.2436 69.0759 55.509 69.3686 55.6645C69.5485 55.7609 69.7495 55.8112 69.9536 55.8108C70.1806 55.8111 70.4034 55.7496 70.598 55.6329C70.7927 55.5161 70.9519 55.3486 71.0586 55.1483C71.4698 54.3758 71.8573 53.5845 72.2073 52.7945C72.3421 52.4918 72.3512 52.148 72.2326 51.8386C72.114 51.5292 71.8774 51.2796 71.5748 51.1445Z" fill="#1E81CE"/>
<path d="M73.6614 43.8556C73.3372 43.7875 72.9992 43.8508 72.7217 44.0318C72.4442 44.2127 72.2499 44.4964 72.1814 44.8206C72.0152 45.6081 71.8177 46.4043 71.5927 47.1956C71.5017 47.5142 71.5408 47.8559 71.7016 48.1456C71.8624 48.4353 72.1317 48.6493 72.4502 48.7406C72.5627 48.7732 72.6793 48.7896 72.7964 48.7893C73.0679 48.7892 73.332 48.7007 73.5487 48.5372C73.7654 48.3737 73.923 48.1441 73.9977 47.8831C74.2377 47.0418 74.4489 46.1868 74.6227 45.3418C74.6574 45.1811 74.66 45.0151 74.6304 44.8534C74.6009 44.6916 74.5397 44.5373 74.4504 44.3992C74.3611 44.2612 74.2455 44.1421 74.1101 44.0488C73.9747 43.9555 73.8222 43.8898 73.6614 43.8556Z" fill="#1E81CE"/>
<path d="M61.3661 63.5456C60.7636 64.0894 60.1336 64.6181 59.4911 65.1181C59.3555 65.2169 59.2412 65.342 59.155 65.4859C59.0688 65.6298 59.0124 65.7896 58.9893 65.9558C58.9661 66.1219 58.9767 66.2911 59.0203 66.4531C59.0638 66.6151 59.1396 66.7666 59.243 66.8987C59.3464 67.0308 59.4753 67.1408 59.6221 67.222C59.7689 67.3032 59.9305 67.3541 60.0974 67.3715C60.2642 67.3889 60.4329 67.3726 60.5933 67.3235C60.7537 67.2744 60.9026 67.1935 61.0311 67.0856C61.7148 66.5506 62.3886 65.9844 63.0311 65.4044C63.255 65.1779 63.384 64.8746 63.3919 64.5563C63.3998 64.2379 63.2858 63.9286 63.0734 63.6914C62.8609 63.4542 62.5659 63.307 62.2486 63.2799C61.9313 63.2528 61.6157 63.3479 61.3661 63.5456Z" fill="#1E81CE"/>
<path d="M41.6295 72.3531C40.822 72.4381 40.0045 72.4943 39.1957 72.5218C38.8642 72.5273 38.5484 72.6643 38.3179 72.9025C38.0873 73.1408 37.9609 73.4609 37.9664 73.7925C37.9718 74.124 38.1088 74.4398 38.3471 74.6703C38.5853 74.9009 38.9055 75.0273 39.237 75.0218H39.2807C40.147 74.9931 41.0245 74.9318 41.8907 74.8406C42.2187 74.8038 42.5188 74.6388 42.7255 74.3816C42.9323 74.1245 43.029 73.7959 42.9945 73.4678C42.96 73.1396 42.7972 72.8383 42.5415 72.6298C42.2857 72.4212 41.9579 72.3222 41.6295 72.3543V72.3531Z" fill="#1E81CE"/>
<path d="M74.187 36.1443C73.8555 36.1443 73.5375 36.276 73.3031 36.5104C73.0687 36.7448 72.937 37.0628 72.937 37.3943V37.5455C72.937 38.3568 72.9095 39.1793 72.8533 39.9855C72.8419 40.1494 72.8629 40.3139 72.9151 40.4696C72.9673 40.6253 73.0497 40.7692 73.1575 40.893C73.2654 41.0169 73.3965 41.1183 73.5436 41.1914C73.6906 41.2646 73.8507 41.308 74.0145 41.3193H74.102C74.4191 41.32 74.7247 41.2003 74.9568 40.9842C75.1888 40.7681 75.3301 40.4719 75.352 40.1555C75.407 39.2955 75.437 38.4205 75.437 37.5455V37.3943C75.437 37.0628 75.3053 36.7448 75.0709 36.5104C74.8365 36.276 74.5185 36.1443 74.187 36.1443Z" fill="#1E81CE"/>
<path d="M55.4567 67.853C54.7542 68.2592 54.0305 68.6455 53.3042 69.0017C53.0492 69.1252 52.8437 69.3318 52.7214 69.5874C52.5992 69.8431 52.5674 70.1327 52.6313 70.4087C52.6953 70.6848 52.8511 70.931 53.0733 71.1069C53.2955 71.2827 53.5709 71.3779 53.8543 71.3767C54.0444 71.3779 54.2322 71.3351 54.403 71.2517C55.1817 70.8767 55.9567 70.458 56.7092 70.023C56.9856 69.852 57.1845 69.5801 57.2638 69.2649C57.3431 68.9497 57.2965 68.6161 57.134 68.3347C56.9714 68.0533 56.7056 67.8462 56.393 67.7575C56.0803 67.6687 55.7454 67.7052 55.4592 67.8592L55.4567 67.853Z" fill="#1E81CE"/>
<path d="M27.1585 70.8545C26.386 70.6045 25.6135 70.3257 24.861 70.022C24.7082 69.9576 24.5441 69.9244 24.3783 69.9241C24.2125 69.9238 24.0483 69.9565 23.8953 70.0202C23.7423 70.084 23.6034 70.1776 23.4869 70.2955C23.3704 70.4134 23.2785 70.5534 23.2166 70.7071C23.1546 70.8609 23.1239 71.0255 23.1262 71.1913C23.1285 71.357 23.1637 71.5207 23.2298 71.6727C23.296 71.8247 23.3917 71.9621 23.5114 72.0768C23.6311 72.1914 23.7725 72.2812 23.9272 72.3407C24.7335 72.6657 25.5622 72.9657 26.3897 73.2344C26.5142 73.2742 26.644 73.2949 26.7747 73.2957C27.0735 73.2969 27.3628 73.1911 27.5902 72.9974C27.8177 72.8037 27.9682 72.5349 28.0146 72.2398C28.061 71.9447 28.0002 71.6427 27.8431 71.3886C27.6861 71.1344 27.4432 70.945 27.1585 70.8545Z" fill="#1E81CE"/>
<path d="M34.3123 72.3606C33.5123 72.2781 32.6986 72.1656 31.8936 72.0269C31.5669 71.9703 31.2311 72.0459 30.9601 72.237C30.6891 72.428 30.5051 72.7189 30.4486 73.0456C30.392 73.3723 30.4676 73.7081 30.6587 73.9791C30.8497 74.2501 31.1406 74.4341 31.4673 74.4906C32.3286 74.6393 33.1998 74.7593 34.0573 74.8468C34.0988 74.8517 34.1405 74.8542 34.1823 74.8543C34.5138 74.8709 34.8384 74.7551 35.0845 74.5324C35.3306 74.3097 35.4782 73.9984 35.4948 73.6668C35.5114 73.3353 35.3956 73.0108 35.1729 72.7647C34.9502 72.5185 34.6388 72.3709 34.3073 72.3544L34.3123 72.3606Z" fill="#1E81CE"/>
<path d="M12.793 61.892C12.5619 61.6561 12.2469 61.5213 11.9167 61.517C11.5866 61.5126 11.2681 61.639 11.0308 61.8687C10.7936 62.0984 10.6569 62.4126 10.6505 62.7427C10.6441 63.0728 10.7686 63.3921 10.9968 63.6307C11.603 64.2557 12.2355 64.8657 12.8805 65.4457C13.1281 65.6604 13.45 65.7694 13.777 65.7491C14.1041 65.7288 14.4101 65.5809 14.6292 65.3373C14.8483 65.0936 14.9629 64.7736 14.9484 64.4463C14.934 64.1189 14.7915 63.8103 14.5518 63.587C13.9505 63.0457 13.358 62.4745 12.793 61.892Z" fill="#1E81CE"/>
<path d="M5.97834 51.8381C5.64584 51.0981 5.33709 50.3381 5.05959 49.5793C5.00312 49.4252 4.91685 49.2837 4.80569 49.1629C4.69453 49.0421 4.56067 48.9444 4.41175 48.8753C4.26283 48.8062 4.10176 48.7672 3.93775 48.7604C3.77373 48.7535 3.60998 48.7791 3.45584 48.8356C3.3017 48.892 3.16019 48.9783 3.0394 49.0895C2.9186 49.2006 2.82088 49.3345 2.75182 49.4834C2.68275 49.6323 2.6437 49.7934 2.63688 49.9574C2.63006 50.1214 2.65562 50.2852 2.71209 50.4393C3.01084 51.2518 3.33709 52.0643 3.69584 52.8593C3.7944 53.0799 3.95477 53.2671 4.15753 53.3985C4.36029 53.5298 4.59676 53.5996 4.83834 53.5993C5.04688 53.5992 5.25207 53.5469 5.43524 53.4472C5.61841 53.3475 5.77372 53.2036 5.88703 53.0285C6.00035 52.8535 6.06806 52.6528 6.08401 52.4449C6.09996 52.237 6.06363 52.0284 5.97834 51.8381Z" fill="#1E81CE"/>
<path d="M8.27916 56.1382C8.0995 55.8648 7.81984 55.6728 7.50019 55.6033C7.18055 55.5337 6.84639 55.5923 6.56942 55.7664C6.29246 55.9404 6.09477 56.2161 6.01877 56.5343C5.94277 56.8525 5.99451 57.1877 6.16291 57.4682C6.62416 58.2032 7.11791 58.9319 7.62916 59.6319C7.72479 59.7672 7.84637 59.8822 7.98682 59.9701C8.12728 60.058 8.28381 60.1171 8.44731 60.144C8.61082 60.1708 8.77803 60.1649 8.93923 60.1266C9.10042 60.0882 9.25239 60.0182 9.38628 59.9206C9.52018 59.823 9.63333 59.6997 9.71917 59.558C9.805 59.4163 9.8618 59.2589 9.88626 59.095C9.91072 58.9311 9.90235 58.764 9.86165 58.6034C9.82095 58.4428 9.74872 58.2919 9.64916 58.1594C9.17166 57.5044 8.71041 56.8244 8.27916 56.1382Z" fill="#1E81CE"/>
<path d="M3.70906 44.8907C3.54031 44.1045 3.39781 43.2957 3.28281 42.4882C3.26163 42.3241 3.20808 42.1658 3.12525 42.0225C3.04242 41.8793 2.93197 41.7539 2.80031 41.6536C2.66865 41.5534 2.51839 41.4803 2.35825 41.4386C2.19812 41.3969 2.03129 41.3873 1.86745 41.4106C1.70361 41.4338 1.54602 41.4894 1.40382 41.574C1.26161 41.6587 1.13763 41.7707 1.03906 41.9036C0.940482 42.0365 0.869283 42.1877 0.829587 42.3483C0.789892 42.509 0.78249 42.6759 0.807811 42.8395C0.932811 43.7045 1.08406 44.5707 1.26406 45.4132C1.32382 45.6928 1.47766 45.9435 1.6999 46.1235C1.92214 46.3034 2.19936 46.4017 2.48531 46.4019C2.57357 46.4027 2.66163 46.3935 2.74781 46.3745C2.90836 46.3402 3.06058 46.2746 3.19578 46.1814C3.33098 46.0883 3.4465 45.9695 3.53577 45.8317C3.62503 45.6939 3.68628 45.5399 3.71601 45.3784C3.74574 45.217 3.74338 45.0512 3.70906 44.8907Z" fill="#1E81CE"/>
<path d="M20.4721 67.8844C19.7721 67.4794 19.0746 67.0444 18.3996 66.5894C18.2634 66.4977 18.1105 66.4336 17.9496 66.401C17.7887 66.3683 17.6229 66.3677 17.4617 66.3991C17.3006 66.4304 17.1472 66.4933 17.0103 66.584C16.8734 66.6746 16.7557 66.7914 16.6639 66.9276C16.5722 67.0637 16.5081 67.2166 16.4755 67.3776C16.4428 67.5385 16.4421 67.7042 16.4735 67.8654C16.5049 68.0266 16.5678 68.18 16.6585 68.3169C16.7491 68.4538 16.8659 68.5714 17.0021 68.6632C17.7258 69.1507 18.4733 69.6169 19.2221 70.0494C19.3643 70.1328 19.5216 70.1872 19.6849 70.2096C19.8482 70.2319 20.0144 70.2217 20.1737 70.1796C20.3331 70.1374 20.4826 70.0642 20.6135 69.9641C20.7445 69.8639 20.8543 69.7389 20.9368 69.5961C21.0192 69.4533 21.0726 69.2957 21.0938 69.1322C21.1151 68.9687 21.1038 68.8027 21.0606 68.6436C21.0174 68.4845 20.9432 68.3355 20.8422 68.2052C20.7411 68.0749 20.6154 67.9659 20.4721 67.8844Z" fill="#1E81CE"/>
<path d="M69.1874 37.5457C69.1874 31.365 67.3546 25.3231 63.9208 20.1841C60.4871 15.0451 55.6065 11.0397 49.8963 8.67443C44.1861 6.30919 37.9028 5.69034 31.8409 6.89613C25.7789 8.10192 20.2107 11.0782 15.8403 15.4486C11.4699 19.819 8.49367 25.3872 7.28788 31.4491C6.08209 37.511 6.70095 43.7943 9.06619 49.5045C11.4314 55.2147 15.4368 60.0953 20.5759 63.5291C25.7149 66.9629 31.7568 68.7957 37.9374 68.7957C46.2226 68.7864 54.1658 65.491 60.0243 59.6325C65.8828 53.774 69.1782 45.8308 69.1874 37.5457ZM9.21867 38.7957H17.9574C18.0483 43.0362 18.7298 47.2433 19.9824 51.2957H12.6962C10.5932 47.451 9.40333 43.174 9.21867 38.7957ZM12.6962 23.7957H19.9824C18.7298 27.848 18.0483 32.0551 17.9574 36.2957H9.21867C9.40333 31.9174 10.5932 27.6403 12.6962 23.7957ZM66.6562 36.2957H57.9174C57.8266 32.0551 57.145 27.848 55.8924 23.7957H63.1799C65.2819 27.6406 66.4713 31.9176 66.6562 36.2957ZM55.4187 36.2957H50.3737C50.0817 33.4284 48.8094 30.7496 46.7714 28.7117C44.7334 26.6737 42.0547 25.4014 39.1874 25.1094V23.7957H53.3024C54.616 27.8363 55.3291 32.0479 55.4187 36.2957ZM37.9374 47.5457C35.9596 47.5457 34.0262 46.9592 32.3817 45.8604C30.7372 44.7616 29.4555 43.1998 28.6986 41.3725C27.9417 39.5452 27.7437 37.5346 28.1296 35.5948C28.5154 33.655 29.4678 31.8731 30.8664 30.4746C32.2649 29.0761 34.0467 28.1237 35.9865 27.7378C37.9263 27.352 39.937 27.55 41.7643 28.3069C43.5915 29.0637 45.1533 30.3455 46.2521 31.99C47.3509 33.6345 47.9374 35.5679 47.9374 37.5457C47.9344 40.1969 46.8799 42.7387 45.0052 44.6134C43.1305 46.4882 40.5887 47.5427 37.9374 47.5457ZM39.1874 21.2957V8.87692C44.6512 9.51442 49.4287 14.2844 52.3637 21.2957H39.1874ZM36.6874 8.87692V21.2957H23.5112C26.4462 14.2844 31.2237 9.51442 36.6874 8.87692ZM36.6874 23.7957V25.1094C33.8201 25.4014 31.1414 26.6737 29.1034 28.7117C27.0655 30.7496 25.7931 33.4284 25.5012 36.2957H20.4562C20.5458 32.0479 21.2588 27.8363 22.5724 23.7957H36.6874ZM20.4562 38.7957H25.5012C25.7931 41.663 27.0655 44.3417 29.1034 46.3797C31.1414 48.4176 33.8201 49.69 36.6874 49.9819V51.2957H22.5724C21.2588 47.2551 20.5458 43.0435 20.4562 38.7957ZM36.6874 53.7957V66.2144C31.2237 65.5769 26.4462 60.8069 23.5112 53.7957H36.6874ZM39.1874 66.2144V53.7957H52.3637C49.4287 60.8069 44.6512 65.5769 39.1874 66.2144ZM39.1874 51.2957V49.9819C42.0547 49.69 44.7334 48.4176 46.7714 46.3797C48.8094 44.3417 50.0817 41.663 50.3737 38.7957H55.4187C55.3291 43.0435 54.616 47.2551 53.3024 51.2957H39.1874ZM57.9174 38.7957H66.6562C66.4713 43.1738 65.2819 47.4507 63.1799 51.2957H55.8924C57.145 47.2433 57.8266 43.0362 57.9174 38.7957ZM61.6374 21.2957H55.0124C53.5336 17.2858 51.1794 13.6561 48.1212 10.6707C53.6002 12.7591 58.3142 16.4648 61.6374 21.2957ZM27.7537 10.6707C24.695 13.656 22.3403 17.2857 20.8612 21.2957H14.2362C17.56 16.4649 22.2745 12.7593 27.7537 10.6707ZM14.2374 53.7957H20.8624C22.3408 57.8079 24.6954 61.4398 27.7549 64.4269C22.2749 62.3366 17.5604 58.6287 14.2374 53.7957ZM48.1212 64.4269C51.1807 61.4398 53.5353 57.8079 55.0137 53.7957H61.6387C58.3161 58.6291 53.6015 62.337 48.1212 64.4269Z" fill="#1E81CE"/>
</svg>
