<svg width="81" height="81" viewBox="0 0 81 81" fill="none" xmlns="http://www.w3.org/2000/svg">
<path d="M34.8563 62.4207H34.85H34.8563C37.0925 61.5669 38.4375 60.4807 38.4375 59.2957V53.0457C38.4375 55.8082 31.1625 58.0457 22.1875 58.0457C13.2125 58.0457 5.9375 55.8082 5.9375 53.0457V59.2957C5.9375 60.4807 7.2825 61.5669 9.51875 62.4207C13.6036 63.7644 17.8885 64.3985 22.1875 64.2957C26.4865 64.3985 30.7714 63.7644 34.8563 62.4207Z" fill="#9BC9FF"/>
<path d="M22.1875 76.7957C31.1625 76.7957 38.4375 74.5582 38.4375 71.7957V65.5457C38.4375 68.3082 31.1625 70.5457 22.1875 70.5457C13.2125 70.5457 5.9375 68.3082 5.9375 65.5457V71.7957C5.9375 74.5582 13.2125 76.7957 22.1875 76.7957Z" fill="#9BC9FF"/>
<path d="M59.6875 45.5457C50.7125 45.5457 43.4375 43.3082 43.4375 40.5457V46.7957C43.4375 47.9807 44.7825 49.0669 47.0188 49.9207C51.1036 51.2644 55.3885 51.8985 59.6875 51.7957C63.9865 51.8985 68.2714 51.2644 72.3562 49.9207C74.5925 49.0669 75.9375 47.9807 75.9375 46.7957V40.5457C75.9375 43.3082 68.6625 45.5457 59.6875 45.5457Z" fill="#9BC9FF"/>
<path d="M59.6875 70.5457C50.7125 70.5457 43.4375 68.3082 43.4375 65.5457V71.7957C43.4375 74.5582 50.7125 76.7957 59.6875 76.7957C68.6625 76.7957 75.9375 74.5582 75.9375 71.7957V65.5457C75.9375 68.3082 68.6625 70.5457 59.6875 70.5457Z" fill="#9BC9FF"/>
<path d="M59.6875 58.0457C50.7125 58.0457 43.4375 55.8082 43.4375 53.0457V59.2957C43.4375 60.4807 44.7825 61.5669 47.0188 62.4207C51.1036 63.7644 55.3885 64.3985 59.6875 64.2957C63.9865 64.3985 68.2714 63.7644 72.3562 62.4207C74.5925 61.5669 75.9375 60.4807 75.9375 59.2957V53.0457C75.9375 55.8082 68.6625 58.0457 59.6875 58.0457Z" fill="#9BC9FF"/>
<path d="M59.6875 33.0457C50.7125 33.0457 43.4375 30.8082 43.4375 28.0457V34.2957C43.4375 35.4807 44.7825 36.5669 47.0188 37.4207C51.1036 38.7644 55.3885 39.3985 59.6875 39.2957C63.9865 39.3985 68.2714 38.7644 72.3562 37.4207C74.5925 36.5669 75.9375 35.4807 75.9375 34.2957V28.0457C75.9375 30.8082 68.6625 33.0457 59.6875 33.0457Z" fill="#9BC9FF"/>
<path d="M59.6875 29.2957C66.5911 29.2957 72.1875 23.6992 72.1875 16.7957C72.1875 9.89209 66.5911 4.29565 59.6875 4.29565C52.7839 4.29565 47.1875 9.89209 47.1875 16.7957C47.1875 23.6992 52.7839 29.2957 59.6875 29.2957Z" fill="#9BC9FF"/>
<path d="M22.1875 54.2957C29.0911 54.2957 34.6875 48.6992 34.6875 41.7957C34.6875 34.8921 29.0911 29.2957 22.1875 29.2957C15.2839 29.2957 9.6875 34.8921 9.6875 41.7957C9.6875 48.6992 15.2839 54.2957 22.1875 54.2957Z" fill="#9BC9FF"/>
<path d="M24.6875 21.7957C27.3397 21.7957 29.8832 20.7421 31.7586 18.8667C33.6339 16.9914 34.6875 14.4478 34.6875 11.7957V9.29565H32.1875C29.5353 9.29565 26.9918 10.3492 25.1164 12.2246C23.2411 14.0999 22.1875 16.6435 22.1875 19.2957V21.7957H24.6875Z" fill="#9BC9FF"/>
<path d="M12.1875 4.29565H9.6875V6.79565C9.6875 9.44782 10.7411 11.9914 12.6164 13.8667C14.4918 15.7421 17.0353 16.7957 19.6875 16.7957H22.1875V14.2957C22.1875 11.6435 21.1339 9.09995 19.2586 7.22459C17.3832 5.34922 14.8397 4.29565 12.1875 4.29565Z" fill="#9BC9FF"/>
<path d="M77.1875 34.2956V28.0456C77.1875 26.1181 75.3125 24.5218 71.7513 23.3843C72.8969 21.2904 73.4778 18.9343 73.4367 16.5477C73.3956 14.1612 72.734 11.8265 71.5169 9.77322C70.2998 7.71996 68.5692 6.01888 66.4953 4.83732C64.4214 3.65576 62.0756 3.03442 59.6887 3.03442C57.3019 3.03442 54.9561 3.65576 52.8822 4.83732C50.8083 6.01888 49.0777 7.71996 47.8606 9.77322C46.6435 11.8265 45.9819 14.1612 45.9408 16.5477C45.8997 18.9343 46.4806 21.2904 47.6263 23.3843C44.0625 24.5218 42.1875 26.1181 42.1875 28.0456V34.2956C42.237 34.9483 42.4507 35.5779 42.8086 36.126C43.1666 36.6741 43.6572 37.1228 44.235 37.4306C43.6559 37.7315 43.1636 38.1758 42.8052 38.7212C42.4467 39.2665 42.2341 39.8946 42.1875 40.5456V46.7956C42.237 47.4483 42.4507 48.0779 42.8086 48.626C43.1666 49.1741 43.6572 49.6228 44.235 49.9306C43.6559 50.2315 43.1636 50.6758 42.8052 51.2212C42.4467 51.7665 42.2341 52.3946 42.1875 53.0456V59.2956C42.237 59.9483 42.4507 60.5779 42.8086 61.126C43.1666 61.6741 43.6572 62.1228 44.235 62.4306C43.6559 62.7315 43.1636 63.1758 42.8052 63.7212C42.4467 64.2665 42.2341 64.8946 42.1875 65.5456V71.7956C42.1875 76.0906 51.2587 78.0456 59.6875 78.0456C68.1162 78.0456 77.1875 76.0906 77.1875 71.7956V65.5456C77.1409 64.8946 76.9283 64.2665 76.5698 63.7212C76.2114 63.1758 75.7191 62.7315 75.14 62.4306C75.7178 62.1228 76.2084 61.6741 76.5664 61.126C76.9243 60.5779 77.138 59.9483 77.1875 59.2956V53.0456C77.1409 52.3946 76.9283 51.7665 76.5698 51.2212C76.2114 50.6758 75.7191 50.2315 75.14 49.9306C75.7178 49.6228 76.2084 49.1741 76.5664 48.626C76.9243 48.0779 77.138 47.4483 77.1875 46.7956V40.5456C77.1409 39.8946 76.9283 39.2665 76.5698 38.7212C76.2114 38.1758 75.7191 37.7315 75.14 37.4306C75.7178 37.1228 76.2084 36.6741 76.5664 36.126C76.9243 35.5779 77.138 34.9483 77.1875 34.2956ZM59.6875 38.0456C50.3825 38.0456 44.6875 35.6181 44.6875 34.2956V31.4731C47.9637 33.3918 53.9688 34.2956 59.6875 34.2956C65.4062 34.2956 71.4112 33.3918 74.6875 31.4731V34.2956C74.6875 35.6181 68.9925 38.0456 59.6875 38.0456ZM59.6875 5.54557C61.9125 5.54557 64.0876 6.20537 65.9377 7.44153C67.7877 8.6777 69.2297 10.4347 70.0811 12.4904C70.9326 14.546 71.1554 16.808 70.7213 18.9903C70.2873 21.1726 69.2158 23.1772 67.6425 24.7505C66.0691 26.3239 64.0646 27.3953 61.8823 27.8294C59.7 28.2635 57.438 28.0407 55.3823 27.1892C53.3266 26.3377 51.5696 24.8958 50.3335 23.0457C49.0973 21.1957 48.4375 19.0206 48.4375 16.7956C48.4408 13.8129 49.6271 10.9533 51.7362 8.84427C53.8453 6.7352 56.7048 5.54888 59.6875 5.54557ZM49.1025 25.5606C50.3907 27.1199 52.0076 28.3753 53.8374 29.2371C55.6672 30.0989 57.6649 30.5458 59.6875 30.5458C61.7101 30.5458 63.7078 30.0989 65.5376 29.2371C67.3674 28.3753 68.9843 27.1199 70.2725 25.5606C73.4525 26.4606 74.6875 27.5381 74.6875 28.0456C74.6875 29.3681 68.9925 31.7956 59.6875 31.7956C50.3825 31.7956 44.6875 29.3681 44.6875 28.0456C44.6875 27.5381 45.9225 26.4606 49.1025 25.5606ZM59.6875 50.5456C50.3825 50.5456 44.6875 48.1181 44.6875 46.7956V43.9731C47.9637 45.8918 53.9688 46.7956 59.6875 46.7956C65.4062 46.7956 71.4112 45.8918 74.6875 43.9731V46.7956C74.6875 48.1181 68.9925 50.5456 59.6875 50.5456ZM59.6875 63.0456C50.3825 63.0456 44.6875 60.6181 44.6875 59.2956V56.4731C47.9637 58.3918 53.9688 59.2956 59.6875 59.2956C65.4062 59.2956 71.4112 58.3918 74.6875 56.4731V59.2956C74.6875 60.6181 68.9925 63.0456 59.6875 63.0456ZM59.6875 75.5456C50.3825 75.5456 44.6875 73.1181 44.6875 71.7956V68.9731C47.9637 70.8918 53.9688 71.7956 59.6875 71.7956C65.4062 71.7956 71.4112 70.8918 74.6875 68.9731V71.7956C74.6875 73.1181 68.9925 75.5456 59.6875 75.5456ZM74.6875 65.5456C74.6875 66.8681 68.9925 69.2956 59.6875 69.2956C50.3825 69.2956 44.6875 66.8681 44.6875 65.5456C44.6875 65.2131 45.33 64.4906 47.025 63.7731C51.1258 65.0286 55.3996 65.6268 59.6875 65.5456C63.9754 65.6268 68.2492 65.0286 72.35 63.7731C74.045 64.4906 74.6875 65.2131 74.6875 65.5456ZM74.6875 53.0456C74.6875 54.3681 68.9925 56.7956 59.6875 56.7956C50.3825 56.7956 44.6875 54.3681 44.6875 53.0456C44.6875 52.7131 45.33 51.9906 47.025 51.2731C51.1258 52.5286 55.3996 53.1268 59.6875 53.0456C63.9754 53.1268 68.2492 52.5286 72.35 51.2731C74.045 51.9906 74.6875 52.7131 74.6875 53.0456ZM74.6875 40.5456C74.6875 41.8681 68.9925 44.2956 59.6875 44.2956C50.3825 44.2956 44.6875 41.8681 44.6875 40.5456C44.6875 40.2131 45.33 39.4906 47.025 38.7731C51.1258 40.0286 55.3996 40.6268 59.6875 40.5456C63.9754 40.6268 68.2492 40.0286 72.35 38.7731C74.045 39.4906 74.6875 40.2131 74.6875 40.5456Z" fill="#1E81CE"/>
<path d="M59.6875 20.5457C58.1613 20.5457 57.1875 19.8057 57.1875 19.2957C57.1875 18.9641 57.0558 18.6462 56.8214 18.4118C56.587 18.1774 56.269 18.0457 55.9375 18.0457C55.606 18.0457 55.288 18.1774 55.0536 18.4118C54.8192 18.6462 54.6875 18.9641 54.6875 19.2957C54.6875 21.0719 56.2612 22.5094 58.4375 22.9207V24.2957C58.4375 24.6272 58.5692 24.9451 58.8036 25.1795C59.038 25.414 59.356 25.5457 59.6875 25.5457C60.019 25.5457 60.337 25.414 60.5714 25.1795C60.8058 24.9451 60.9375 24.6272 60.9375 24.2957V22.9207C63.1138 22.5119 64.6875 21.0744 64.6875 19.2957C64.6875 17.1932 62.4913 15.5457 59.6875 15.5457C58.1613 15.5457 57.1875 14.8057 57.1875 14.2957C57.1875 13.7857 58.1613 13.0457 59.6875 13.0457C61.2137 13.0457 62.1875 13.7857 62.1875 14.2957C62.1875 14.6272 62.3192 14.9451 62.5536 15.1795C62.788 15.414 63.106 15.5457 63.4375 15.5457C63.769 15.5457 64.087 15.414 64.3214 15.1795C64.5558 14.9451 64.6875 14.6272 64.6875 14.2957C64.6875 12.5194 63.1138 11.0819 60.9375 10.6707V9.29565C60.9375 8.96413 60.8058 8.64619 60.5714 8.41177C60.337 8.17735 60.019 8.04565 59.6875 8.04565C59.356 8.04565 59.038 8.17735 58.8036 8.41177C58.5692 8.64619 58.4375 8.96413 58.4375 9.29565V10.6707C56.2612 11.0794 54.6875 12.5169 54.6875 14.2957C54.6875 16.3982 56.8837 18.0457 59.6875 18.0457C61.2137 18.0457 62.1875 18.7857 62.1875 19.2957C62.1875 19.8057 61.2137 20.5457 59.6875 20.5457Z" fill="#1E81CE"/>
<path d="M67.1875 18.0457H68.4375C68.769 18.0457 69.087 17.914 69.3214 17.6795C69.5558 17.4451 69.6875 17.1272 69.6875 16.7957C69.6875 16.4641 69.5558 16.1462 69.3214 15.9118C69.087 15.6774 68.769 15.5457 68.4375 15.5457H67.1875C66.856 15.5457 66.538 15.6774 66.3036 15.9118C66.0692 16.1462 65.9375 16.4641 65.9375 16.7957C65.9375 17.1272 66.0692 17.4451 66.3036 17.6795C66.538 17.914 66.856 18.0457 67.1875 18.0457Z" fill="#1E81CE"/>
<path d="M53.4375 16.7957C53.4375 16.4641 53.3058 16.1462 53.0714 15.9118C52.837 15.6774 52.519 15.5457 52.1875 15.5457H50.9375C50.606 15.5457 50.288 15.6774 50.0536 15.9118C49.8192 16.1462 49.6875 16.4641 49.6875 16.7957C49.6875 17.1272 49.8192 17.4451 50.0536 17.6795C50.288 17.914 50.606 18.0457 50.9375 18.0457H52.1875C52.519 18.0457 52.837 17.914 53.0714 17.6795C53.3058 17.4451 53.4375 17.1272 53.4375 16.7957Z" fill="#1E81CE"/>
<path d="M39.6875 59.2957V53.0457C39.6875 51.1207 37.8125 49.5207 34.25 48.3832C35.3448 46.3834 35.9246 44.1426 35.9371 41.8628C35.9496 39.583 35.3944 37.336 34.3216 35.3244C33.2488 33.3127 31.6922 31.5998 29.792 30.34C27.8919 29.0802 25.7081 28.3132 23.4375 28.1082V23.0457H24.6875C27.6698 23.041 30.5286 21.8543 32.6373 19.7455C34.7461 17.6367 35.9329 14.7779 35.9375 11.7957V9.29565C35.9375 8.96413 35.8058 8.64619 35.5714 8.41177C35.337 8.17735 35.019 8.04565 34.6875 8.04565H32.1875C30.4631 8.04891 28.7626 8.44852 27.2172 9.21361C25.6718 9.9787 24.323 11.0888 23.275 12.4582C22.8362 9.83247 21.4822 7.44686 19.4528 5.72402C17.4234 4.00119 14.8496 3.05236 12.1875 3.04565H9.6875C9.35598 3.04565 9.03804 3.17735 8.80362 3.41177C8.5692 3.64619 8.4375 3.96413 8.4375 4.29565V6.79565C8.44213 9.77792 9.62888 12.6367 11.7377 14.7455C13.8464 16.8543 16.7052 18.041 19.6875 18.0457H20.9375V28.1082C18.6669 28.3132 16.4831 29.0802 14.583 30.34C12.6828 31.5998 11.1262 33.3127 10.0534 35.3244C8.98061 37.336 8.42543 39.583 8.43793 41.8628C8.45043 44.1426 9.03021 46.3834 10.125 48.3832C6.5625 49.5207 4.6875 51.1207 4.6875 53.0457V59.2957C4.73812 59.9487 4.95248 60.5785 5.31077 61.1269C5.66906 61.6753 6.15974 62.1245 6.7375 62.4332C6.15807 62.7332 5.66533 63.177 5.3064 63.7219C4.94748 64.2669 4.73439 64.8948 4.6875 65.5457V71.7957C4.6875 76.0957 13.7625 78.0457 22.1875 78.0457C30.6125 78.0457 39.6875 76.0957 39.6875 71.7957V65.5457C39.6406 64.8948 39.4275 64.2669 39.0686 63.7219C38.7097 63.177 38.2169 62.7332 37.6375 62.4332C38.2153 62.1245 38.7059 61.6753 39.0642 61.1269C39.4225 60.5785 39.6369 59.9487 39.6875 59.2957ZM23.4375 19.2957C23.4401 16.9758 24.3629 14.7518 26.0032 13.1114C27.6436 11.471 29.8677 10.5483 32.1875 10.5457H33.4375V11.7957C33.4349 14.1155 32.5121 16.3395 30.8718 17.9799C29.2314 19.6203 27.0073 20.543 24.6875 20.5457H23.4375V19.2957ZM19.6875 15.5457C17.3677 15.543 15.1436 14.6203 13.5032 12.9799C11.8629 11.3395 10.9401 9.11549 10.9375 6.79565V5.54565H12.1875C14.5073 5.5483 16.7314 6.47102 18.3718 8.11139C20.0121 9.75176 20.9349 11.9758 20.9375 14.2957V15.5457H19.6875ZM22.1875 30.5457C24.4125 30.5457 26.5876 31.2055 28.4377 32.4416C30.2877 33.6778 31.7297 35.4348 32.5811 37.4905C33.4326 39.5461 33.6554 41.8081 33.2213 43.9904C32.7873 46.1727 31.7158 48.1773 30.1425 49.7506C28.5691 51.3239 26.5646 52.3954 24.3823 52.8295C22.2 53.2636 19.938 53.0408 17.8823 52.1893C15.8266 51.3378 14.0696 49.8959 12.8335 48.0458C11.5973 46.1958 10.9375 44.0207 10.9375 41.7957C10.9421 38.8134 12.1289 35.9546 14.2377 33.8458C16.3464 31.737 19.2052 30.5503 22.1875 30.5457ZM37.1875 71.7957C37.1875 73.1207 31.4875 75.5457 22.1875 75.5457C12.8875 75.5457 7.1875 73.1207 7.1875 71.7957V68.9707C10.4625 70.8957 16.475 71.7957 22.1875 71.7957C27.9 71.7957 33.9125 70.8957 37.1875 68.9707V71.7957ZM22.1875 69.2957C12.8875 69.2957 7.1875 66.8707 7.1875 65.5457C7.1875 65.2082 7.825 64.4957 9.525 63.7707C13.6254 65.0282 17.8994 65.6274 22.1875 65.5457C26.4756 65.6274 30.7496 65.0282 34.85 63.7707C36.55 64.4957 37.1875 65.2082 37.1875 65.5457C37.1875 66.8707 31.4875 69.2957 22.1875 69.2957ZM37.1875 59.2957C37.1875 60.6207 31.4875 63.0457 22.1875 63.0457C12.8875 63.0457 7.1875 60.6207 7.1875 59.2957V56.4707C10.4625 58.3957 16.475 59.2957 22.1875 59.2957C27.9 59.2957 33.9125 58.3957 37.1875 56.4707V59.2957ZM22.1875 56.7957C12.8875 56.7957 7.1875 54.3707 7.1875 53.0457C7.1875 52.5332 8.425 51.4582 11.6 50.5582C12.8883 52.1182 14.5055 53.3742 16.3358 54.2364C18.1661 55.0986 20.1643 55.5457 22.1875 55.5457C24.2107 55.5457 26.2089 55.0986 28.0392 54.2364C29.8695 53.3742 31.4867 52.1182 32.775 50.5582C35.95 51.4582 37.1875 52.5332 37.1875 53.0457C37.1875 54.3707 31.4875 56.7957 22.1875 56.7957Z" fill="#1E81CE"/>
<path d="M22.1875 45.5457C20.6613 45.5457 19.6875 44.8057 19.6875 44.2957C19.6875 43.9641 19.5558 43.6462 19.3214 43.4118C19.087 43.1773 18.769 43.0457 18.4375 43.0457C18.106 43.0457 17.788 43.1773 17.5536 43.4118C17.3192 43.6462 17.1875 43.9641 17.1875 44.2957C17.1875 46.0719 18.7612 47.5094 20.9375 47.9207V49.2957C20.9375 49.6272 21.0692 49.9451 21.3036 50.1795C21.538 50.414 21.856 50.5457 22.1875 50.5457C22.519 50.5457 22.837 50.414 23.0714 50.1795C23.3058 49.9451 23.4375 49.6272 23.4375 49.2957V47.9207C25.6138 47.5119 27.1875 46.0744 27.1875 44.2957C27.1875 42.1932 24.9913 40.5457 22.1875 40.5457C20.6613 40.5457 19.6875 39.8057 19.6875 39.2957C19.6875 38.7857 20.6613 38.0457 22.1875 38.0457C23.7137 38.0457 24.6875 38.7857 24.6875 39.2957C24.6875 39.6272 24.8192 39.9451 25.0536 40.1795C25.288 40.414 25.606 40.5457 25.9375 40.5457C26.269 40.5457 26.587 40.414 26.8214 40.1795C27.0558 39.9451 27.1875 39.6272 27.1875 39.2957C27.1875 37.5194 25.6138 36.0819 23.4375 35.6707V34.2957C23.4375 33.9641 23.3058 33.6462 23.0714 33.4118C22.837 33.1773 22.519 33.0457 22.1875 33.0457C21.856 33.0457 21.538 33.1773 21.3036 33.4118C21.0692 33.6462 20.9375 33.9641 20.9375 34.2957V35.6707C18.7612 36.0794 17.1875 37.5169 17.1875 39.2957C17.1875 41.3982 19.3837 43.0457 22.1875 43.0457C23.7137 43.0457 24.6875 43.7857 24.6875 44.2957C24.6875 44.8057 23.7137 45.5457 22.1875 45.5457Z" fill="#1E81CE"/>
<path d="M29.6875 43.0457H30.9375C31.269 43.0457 31.587 42.914 31.8214 42.6795C32.0558 42.4451 32.1875 42.1272 32.1875 41.7957C32.1875 41.4641 32.0558 41.1462 31.8214 40.9118C31.587 40.6773 31.269 40.5457 30.9375 40.5457H29.6875C29.356 40.5457 29.038 40.6773 28.8036 40.9118C28.5692 41.1462 28.4375 41.4641 28.4375 41.7957C28.4375 42.1272 28.5692 42.4451 28.8036 42.6795C29.038 42.914 29.356 43.0457 29.6875 43.0457Z" fill="#1E81CE"/>
<path d="M15.9375 41.7957C15.9375 41.4641 15.8058 41.1462 15.5714 40.9118C15.337 40.6773 15.019 40.5457 14.6875 40.5457H13.4375C13.106 40.5457 12.788 40.6773 12.5536 40.9118C12.3192 41.1462 12.1875 41.4641 12.1875 41.7957C12.1875 42.1272 12.3192 42.4451 12.5536 42.6795C12.788 42.914 13.106 43.0457 13.4375 43.0457H14.6875C15.019 43.0457 15.337 42.914 15.5714 42.6795C15.8058 42.4451 15.9375 42.1272 15.9375 41.7957Z" fill="#1E81CE"/>
</svg>
