<svg width="81" height="81" viewBox="0 0 81 81" fill="none" xmlns="http://www.w3.org/2000/svg">
<path d="M29.6875 10.5457H23.4375V16.7957H54.6875L64.6875 26.7957V70.5457H70.9375V64.2957V10.5457H29.6875Z" fill="#9BC9FF"/>
<path d="M29.6875 10.5457H70.9375V64.2957H77.1875V4.29565H29.6875V10.5457Z" fill="#9BC9FF"/>
<path d="M54.6875 25.5457C54.6875 25.8772 54.8192 26.1951 55.0536 26.4295C55.288 26.664 55.606 26.7957 55.9375 26.7957H64.6875L54.6875 16.7957V25.5457Z" fill="#9BC9FF"/>
<path d="M4.6875 61.7957V66.7957H8.8C8.9717 67.3719 9.20207 67.929 9.4875 68.4582V68.4707L6.575 71.3707L10.1125 74.9082L13.025 71.9957C13.5542 72.2811 14.1113 72.5115 14.6875 72.6832V76.7957H19.6875V72.6832C20.2637 72.5115 20.8208 72.2811 21.35 71.9957L24.2625 74.9082L27.8 71.3707L24.8875 68.4707V68.4582C25.1729 67.929 25.4033 67.3719 25.575 66.7957H29.6875V61.7957H25.575C25.4033 61.2194 25.1729 60.6623 24.8875 60.1332L27.8 57.2207L24.2625 53.6832L21.3625 56.5957H21.35C20.8208 56.3102 20.2637 56.0799 19.6875 55.9082V51.7957H14.6875V55.9082C14.1113 56.0799 13.5542 56.3102 13.025 56.5957H13.0125L10.1125 53.6832L6.575 57.2207L9.4875 60.1332C9.20207 60.6623 8.9717 61.2194 8.8 61.7957H4.6875ZM17.1875 60.5457C17.9292 60.5457 18.6542 60.7656 19.2709 61.1776C19.8876 61.5897 20.3682 62.1754 20.652 62.8606C20.9359 63.5458 21.0101 64.2998 20.8654 65.0272C20.7208 65.7547 20.3636 66.4229 19.8392 66.9473C19.3147 67.4717 18.6465 67.8289 17.9191 67.9736C17.1917 68.1183 16.4377 68.044 15.7524 67.7602C15.0672 67.4764 14.4815 66.9957 14.0695 66.379C13.6574 65.7624 13.4375 65.0373 13.4375 64.2957C13.4375 63.3011 13.8326 62.3473 14.5358 61.644C15.2391 60.9407 16.1929 60.5457 17.1875 60.5457Z" fill="#9BC9FF"/>
<path d="M49.6875 59.2957H59.6875V69.2957H49.6875V59.2957Z" fill="#9BC9FF"/>
<path d="M40.9375 33.0457C39.4113 33.0457 38.4375 32.3057 38.4375 31.7957C38.4375 31.4641 38.3058 31.1462 38.0714 30.9118C37.837 30.6773 37.519 30.5457 37.1875 30.5457C36.856 30.5457 36.538 30.6773 36.3036 30.9118C36.0692 31.1462 35.9375 31.4641 35.9375 31.7957C35.9375 33.5719 37.5112 35.0094 39.6875 35.4207V36.7957C39.6875 37.1272 39.8192 37.4451 40.0536 37.6795C40.288 37.914 40.606 38.0457 40.9375 38.0457C41.269 38.0457 41.587 37.914 41.8214 37.6795C42.0558 37.4451 42.1875 37.1272 42.1875 36.7957V35.4207C44.3638 35.0119 45.9375 33.5744 45.9375 31.7957C45.9375 29.6932 43.7413 28.0457 40.9375 28.0457C39.4113 28.0457 38.4375 27.3057 38.4375 26.7957C38.4375 26.2857 39.4113 25.5457 40.9375 25.5457C42.4637 25.5457 43.4375 26.2857 43.4375 26.7957C43.4375 27.1272 43.5692 27.4451 43.8036 27.6795C44.038 27.914 44.356 28.0457 44.6875 28.0457C45.019 28.0457 45.337 27.914 45.5714 27.6795C45.8058 27.4451 45.9375 27.1272 45.9375 26.7957C45.9375 25.0194 44.3638 23.5819 42.1875 23.1707V21.7957C42.1875 21.4641 42.0558 21.1462 41.8214 20.9118C41.587 20.6773 41.269 20.5457 40.9375 20.5457C40.606 20.5457 40.288 20.6773 40.0536 20.9118C39.8192 21.1462 39.6875 21.4641 39.6875 21.7957V23.1707C37.5112 23.5794 35.9375 25.0169 35.9375 26.7957C35.9375 28.8982 38.1337 30.5457 40.9375 30.5457C42.4637 30.5457 43.4375 31.2857 43.4375 31.7957C43.4375 32.3057 42.4637 33.0457 40.9375 33.0457Z" fill="#1E81CE"/>
<path d="M17.1875 59.2957C16.1986 59.2957 15.2319 59.5889 14.4097 60.1383C13.5874 60.6877 12.9465 61.4686 12.5681 62.3822C12.1897 63.2959 12.0906 64.3012 12.2836 65.2711C12.4765 66.241 12.9527 67.1319 13.652 67.8312C14.3512 68.5304 15.2421 69.0067 16.2121 69.1996C17.182 69.3925 18.1873 69.2935 19.1009 68.9151C20.0146 68.5366 20.7954 67.8958 21.3449 67.0735C21.8943 66.2513 22.1875 65.2846 22.1875 64.2957C22.1875 62.9696 21.6607 61.6978 20.723 60.7601C19.7854 59.8224 18.5136 59.2957 17.1875 59.2957ZM17.1875 66.7957C16.693 66.7957 16.2097 66.649 15.7986 66.3743C15.3875 66.0996 15.067 65.7092 14.8778 65.2524C14.6886 64.7955 14.6391 64.2929 14.7355 63.8079C14.832 63.323 15.0701 62.8775 15.4197 62.5279C15.7694 62.1783 16.2148 61.9402 16.6998 61.8437C17.1847 61.7472 17.6874 61.7967 18.1442 61.986C18.601 62.1752 18.9915 62.4956 19.2662 62.9067C19.5409 63.3179 19.6875 63.8012 19.6875 64.2957C19.6875 64.9587 19.4241 65.5946 18.9553 66.0634C18.4864 66.5323 17.8505 66.7957 17.1875 66.7957Z" fill="#1E81CE"/>
<path d="M29.05 71.3694C29.0498 71.2052 29.0172 71.0426 28.9542 70.891C28.8911 70.7393 28.7988 70.6016 28.6825 70.4857L26.3937 68.2057L26.46 68.0457H29.6875C30.019 68.0457 30.337 67.914 30.5714 67.6795C30.8058 67.4451 30.9375 67.1272 30.9375 66.7957V61.7957C30.9375 61.4641 30.8058 61.1462 30.5714 60.9118C30.337 60.6773 30.019 60.5457 29.6875 60.5457H26.46C26.4387 60.4932 26.4188 60.4419 26.3963 60.3919L28.6838 58.1044C28.9181 57.87 29.0497 57.5521 29.0497 57.2207C29.0497 56.8892 28.9181 56.5713 28.6838 56.3369L25.1463 52.7994C24.9119 52.565 24.594 52.4332 24.2625 52.4332C24.0981 52.4332 23.9352 52.4657 23.7834 52.5287C23.6315 52.5918 23.4936 52.6842 23.3775 52.8007L21.1 55.0894L20.9375 55.0232V51.7957C20.9375 51.4641 20.8058 51.1462 20.5714 50.9118C20.337 50.6773 20.019 50.5457 19.6875 50.5457H14.6875C14.356 50.5457 14.038 50.6773 13.8036 50.9118C13.5692 51.1462 13.4375 51.4641 13.4375 51.7957V55.0232L13.2763 55.0894L10.9987 52.7957C10.8827 52.6792 10.7447 52.5868 10.5929 52.5237C10.441 52.4607 10.2782 52.4282 10.1137 52.4282C9.78226 52.4282 9.46437 52.56 9.23 52.7944L5.6875 56.3369C5.45316 56.5713 5.32152 56.8892 5.32152 57.2207C5.32152 57.5521 5.45316 57.87 5.6875 58.1044L7.975 60.3919C7.9525 60.4419 7.9325 60.4932 7.91125 60.5457H4.6875C4.35598 60.5457 4.03804 60.6773 3.80362 60.9118C3.5692 61.1462 3.4375 61.4641 3.4375 61.7957V66.7957C3.4375 67.1272 3.5692 67.4451 3.80362 67.6795C4.03804 67.914 4.35598 68.0457 4.6875 68.0457H7.915L7.98125 68.2057L5.6875 70.4857C5.57128 70.6017 5.47908 70.7396 5.41618 70.8914C5.35327 71.0431 5.32089 71.2058 5.32089 71.37C5.32089 71.5343 5.35327 71.697 5.41618 71.8487C5.47908 72.0005 5.57128 72.1383 5.6875 72.2544L9.225 75.7919C9.45941 76.0262 9.77729 76.1579 10.1087 76.1579C10.4402 76.1579 10.7581 76.0262 10.9925 75.7919L13.28 73.5044L13.4338 73.5682V76.7957C13.4338 77.1272 13.5654 77.4451 13.7999 77.6795C14.0343 77.914 14.3522 78.0457 14.6838 78.0457H19.6838C20.0153 78.0457 20.3332 77.914 20.5676 77.6795C20.8021 77.4451 20.9338 77.1272 20.9338 76.7957V73.5682L21.0875 73.5044L23.375 75.7919C23.6094 76.0262 23.9273 76.1579 24.2587 76.1579C24.5902 76.1579 24.9081 76.0262 25.1425 75.7919L28.68 72.2544C28.7969 72.1385 28.8898 72.0007 28.9533 71.8488C29.0168 71.6969 29.0496 71.534 29.05 71.3694ZM24.2625 73.1407L22.2338 71.1119C22.0426 70.9209 21.7948 70.7969 21.5273 70.7586C21.2598 70.7203 20.9871 70.7697 20.75 70.8994C20.2958 71.1433 19.8179 71.3402 19.3237 71.4869C19.0673 71.5649 18.8427 71.7233 18.6831 71.9387C18.5235 72.1541 18.4374 72.4151 18.4375 72.6832V75.5457H15.9375V72.6832C15.9376 72.4151 15.8515 72.1541 15.6919 71.9387C15.5323 71.7233 15.3077 71.5649 15.0513 71.4869C14.5571 71.3402 14.0792 71.1433 13.625 70.8994C13.3879 70.7697 13.1152 70.7203 12.8477 70.7586C12.5802 70.7969 12.3324 70.9209 12.1413 71.1119L10.1125 73.1407L8.345 71.3732L10.37 69.3557C10.6057 69.1164 10.7377 68.794 10.7375 68.4582C10.7376 68.249 10.6851 68.0431 10.585 67.8594C10.3401 67.4051 10.1428 66.9268 9.99625 66.4319C9.91824 66.1754 9.75985 65.9508 9.54446 65.7913C9.32906 65.6317 9.06807 65.5456 8.8 65.5457H5.9375V63.0457H8.8C9.06807 63.0457 9.32906 62.9596 9.54446 62.8C9.75985 62.6405 9.91824 62.4159 9.99625 62.1594C10.1428 61.6646 10.3401 61.1862 10.585 60.7319C10.7143 60.4949 10.7633 60.2223 10.7248 59.9551C10.6862 59.6879 10.5622 59.4403 10.3713 59.2494L8.3425 57.2207L10.11 55.4519L12.1263 57.4769C12.322 57.6657 12.5723 57.7881 12.8415 57.8267C13.1108 57.8653 13.3853 57.8181 13.6263 57.6919C14.0804 57.448 14.5583 57.2511 15.0525 57.1044C15.3087 57.0262 15.5331 56.8677 15.6924 56.6523C15.8517 56.4369 15.9377 56.1761 15.9375 55.9082V53.0457H18.4375V55.9082C18.4374 56.1762 18.5235 56.4372 18.6831 56.6526C18.8427 56.868 19.0673 57.0264 19.3237 57.1044C19.8179 57.2511 20.2958 57.448 20.75 57.6919C20.9909 57.8181 21.2655 57.8653 21.5347 57.8267C21.804 57.7881 22.0542 57.6657 22.25 57.4769L24.2663 55.4519L26.0337 57.2207L24.005 59.2494C23.814 59.4403 23.69 59.6879 23.6515 59.9551C23.613 60.2223 23.662 60.4949 23.7913 60.7319C24.0362 61.1862 24.2335 61.6646 24.38 62.1594C24.4579 62.4157 24.6161 62.6401 24.8313 62.7997C25.0464 62.9592 25.3071 63.0455 25.575 63.0457H28.4375V65.5457H25.575C25.3069 65.5456 25.0459 65.6317 24.8305 65.7913C24.6151 65.9508 24.4568 66.1754 24.3787 66.4319C24.2322 66.9268 24.0349 67.4051 23.79 67.8594C23.6898 68.0476 23.6374 68.2575 23.6375 68.4707C23.6375 68.6351 23.67 68.7979 23.7331 68.9498C23.7961 69.1016 23.8885 69.2396 24.005 69.3557L26.03 71.3732L24.2625 73.1407Z" fill="#1E81CE"/>
<path d="M77.1875 3.04565H29.6875C29.356 3.04565 29.038 3.17735 28.8036 3.41177C28.5692 3.64619 28.4375 3.96413 28.4375 4.29565V9.29565H23.4375C23.106 9.29565 22.788 9.42735 22.5536 9.66177C22.3192 9.89619 22.1875 10.2141 22.1875 10.5457V15.5457H17.1875C16.856 15.5457 16.538 15.6774 16.3036 15.9118C16.0692 16.1462 15.9375 16.4641 15.9375 16.7957V46.7957C15.9375 47.1272 16.0692 47.4451 16.3036 47.6795C16.538 47.914 16.856 48.0457 17.1875 48.0457C17.519 48.0457 17.837 47.914 18.0714 47.6795C18.3058 47.4451 18.4375 47.1272 18.4375 46.7957V18.0457H53.4375V25.5457C53.4395 26.2081 53.7035 26.8428 54.1719 27.3112C54.6403 27.7796 55.2751 28.0437 55.9375 28.0457H63.4375V75.5457H29.6875C29.356 75.5457 29.038 75.6774 28.8036 75.9118C28.5692 76.1462 28.4375 76.4641 28.4375 76.7957C28.4375 77.1272 28.5692 77.4451 28.8036 77.6795C29.038 77.914 29.356 78.0457 29.6875 78.0457H64.6875C65.019 78.0457 65.337 77.914 65.5714 77.6795C65.8058 77.4451 65.9375 77.1272 65.9375 76.7957V71.7957H70.9375C71.269 71.7957 71.587 71.664 71.8214 71.4295C72.0558 71.1951 72.1875 70.8772 72.1875 70.5457V65.5457H77.1875C77.519 65.5457 77.837 65.414 78.0714 65.1795C78.3058 64.9451 78.4375 64.6272 78.4375 64.2957V4.29565C78.4375 3.96413 78.3058 3.64619 78.0714 3.41177C77.837 3.17735 77.519 3.04565 77.1875 3.04565ZM55.9375 25.5457V19.8082L61.675 25.5457H55.9375ZM69.6875 69.2957H65.9375V26.7957C65.935 26.4643 65.8052 26.1465 65.575 25.9082L55.575 15.9082C55.3366 15.6779 55.0189 15.5481 54.6875 15.5457H24.6875V11.7957H69.6875V69.2957ZM75.9375 63.0457H72.1875V10.5457C72.1875 10.2141 72.0558 9.89619 71.8214 9.66177C71.587 9.42735 71.269 9.29565 70.9375 9.29565H30.9375V5.54565H75.9375V63.0457Z" fill="#1E81CE"/>
<path d="M59.6875 58.0457H49.6875C49.356 58.0457 49.038 58.1773 48.8036 58.4118C48.5692 58.6462 48.4375 58.9641 48.4375 59.2957V69.2957C48.4375 69.6272 48.5692 69.9451 48.8036 70.1795C49.038 70.414 49.356 70.5457 49.6875 70.5457H59.6875C60.019 70.5457 60.337 70.414 60.5714 70.1795C60.8058 69.9451 60.9375 69.6272 60.9375 69.2957V59.2957C60.9375 58.9641 60.8058 58.6462 60.5714 58.4118C60.337 58.1773 60.019 58.0457 59.6875 58.0457ZM58.4375 68.0457H50.9375V60.5457H58.4375V68.0457Z" fill="#1E81CE"/>
<path d="M23.4375 41.7957C23.4375 42.1272 23.5692 42.4451 23.8036 42.6795C24.038 42.914 24.356 43.0457 24.6875 43.0457H59.6875C60.019 43.0457 60.337 42.914 60.5714 42.6795C60.8058 42.4451 60.9375 42.1272 60.9375 41.7957C60.9375 41.4641 60.8058 41.1462 60.5714 40.9118C60.337 40.6773 60.019 40.5457 59.6875 40.5457H24.6875C24.356 40.5457 24.038 40.6773 23.8036 40.9118C23.5692 41.1462 23.4375 41.4641 23.4375 41.7957Z" fill="#1E81CE"/>
<path d="M24.6875 48.0457H59.6875C60.019 48.0457 60.337 47.914 60.5714 47.6795C60.8058 47.4451 60.9375 47.1272 60.9375 46.7957C60.9375 46.4641 60.8058 46.1462 60.5714 45.9118C60.337 45.6773 60.019 45.5457 59.6875 45.5457H24.6875C24.356 45.5457 24.038 45.6773 23.8036 45.9118C23.5692 46.1462 23.4375 46.4641 23.4375 46.7957C23.4375 47.1272 23.5692 47.4451 23.8036 47.6795C24.038 47.914 24.356 48.0457 24.6875 48.0457Z" fill="#1E81CE"/>
<path d="M59.6875 50.5457H30.9375C30.606 50.5457 30.288 50.6773 30.0536 50.9118C29.8192 51.1462 29.6875 51.4641 29.6875 51.7957C29.6875 52.1272 29.8192 52.4451 30.0536 52.6795C30.288 52.914 30.606 53.0457 30.9375 53.0457H59.6875C60.019 53.0457 60.337 52.914 60.5714 52.6795C60.8058 52.4451 60.9375 52.1272 60.9375 51.7957C60.9375 51.4641 60.8058 51.1462 60.5714 50.9118C60.337 50.6773 60.019 50.5457 59.6875 50.5457Z" fill="#1E81CE"/>
<path d="M44.6875 58.0457H34.6875C34.356 58.0457 34.038 58.1773 33.8036 58.4118C33.5692 58.6462 33.4375 58.9641 33.4375 59.2957C33.4375 59.6272 33.5692 59.9451 33.8036 60.1795C34.038 60.414 34.356 60.5457 34.6875 60.5457H44.6875C45.019 60.5457 45.337 60.414 45.5714 60.1795C45.8058 59.9451 45.9375 59.6272 45.9375 59.2957C45.9375 58.9641 45.8058 58.6462 45.5714 58.4118C45.337 58.1773 45.019 58.0457 44.6875 58.0457Z" fill="#1E81CE"/>
<path d="M44.6875 63.0457H34.6875C34.356 63.0457 34.038 63.1773 33.8036 63.4118C33.5692 63.6462 33.4375 63.9641 33.4375 64.2957C33.4375 64.6272 33.5692 64.9451 33.8036 65.1795C34.038 65.414 34.356 65.5457 34.6875 65.5457H44.6875C45.019 65.5457 45.337 65.414 45.5714 65.1795C45.8058 64.9451 45.9375 64.6272 45.9375 64.2957C45.9375 63.9641 45.8058 63.6462 45.5714 63.4118C45.337 63.1773 45.019 63.0457 44.6875 63.0457Z" fill="#1E81CE"/>
<path d="M44.6875 68.0457H34.6875C34.356 68.0457 34.038 68.1773 33.8036 68.4118C33.5692 68.6462 33.4375 68.9641 33.4375 69.2957C33.4375 69.6272 33.5692 69.9451 33.8036 70.1795C34.038 70.414 34.356 70.5457 34.6875 70.5457H44.6875C45.019 70.5457 45.337 70.414 45.5714 70.1795C45.8058 69.9451 45.9375 69.6272 45.9375 69.2957C45.9375 68.9641 45.8058 68.6462 45.5714 68.4118C45.337 68.1773 45.019 68.0457 44.6875 68.0457Z" fill="#1E81CE"/>
</svg>
