<svg width="81" height="81" viewBox="0 0 81 81" fill="none" xmlns="http://www.w3.org/2000/svg">
<path d="M4.6875 54.2957C4.6875 56.2848 5.47768 58.1924 6.8842 59.599C8.29072 61.0055 10.1984 61.7957 12.1875 61.7957C14.1766 61.7957 16.0843 61.0055 17.4908 59.599C18.8973 58.1924 19.6875 56.2848 19.6875 54.2957V39.2957H4.6875V54.2957Z" fill="#9BC9FF"/>
<path d="M75.875 45.1707L70.9375 40.2457V4.29572C70.9392 4.1311 70.908 3.96781 70.8457 3.81539C70.7835 3.66298 70.6915 3.52452 70.5751 3.40811C70.4587 3.2917 70.3202 3.19969 70.1678 3.13746C70.0154 3.07524 69.8521 3.04405 69.6875 3.04572L19.6875 3.08322C19.356 3.08322 19.038 3.21491 18.8036 3.44933C18.5692 3.68376 18.4375 4.0017 18.4375 4.33322V38.0457H4.6875C4.35598 38.0457 4.03804 38.1774 3.80362 38.4118C3.5692 38.6463 3.4375 38.9642 3.4375 39.2957V54.2957C3.44015 56.6156 4.36287 58.8396 6.00324 60.48C7.64361 62.1204 9.86767 63.0431 12.1875 63.0457H54.525C54.0188 66.4076 54.7903 69.8371 56.6875 72.6582L57.1875 73.4207V76.7957C57.1875 77.1272 57.3192 77.4452 57.5536 77.6796C57.788 77.914 58.106 78.0457 58.4375 78.0457C58.769 78.0457 59.087 77.914 59.3214 77.6796C59.5558 77.4452 59.6875 77.1272 59.6875 76.7957V73.0457C59.6881 72.8003 59.614 72.5605 59.475 72.3582L58.7625 71.2707C57.1481 68.8543 56.5425 65.9026 57.075 63.0457H63.675C63.7992 64.8875 64.4791 66.6484 65.625 68.0957L66.2125 68.8207C66.3289 68.968 66.477 69.0872 66.6458 69.1695C66.8146 69.2517 66.9997 69.2949 67.1875 69.2957C67.4701 69.2981 67.7446 69.2007 67.9625 69.0207C68.0926 68.9204 68.2012 68.7951 68.2819 68.652C68.3627 68.509 68.4139 68.3512 68.4325 68.188C68.4512 68.0248 68.4369 67.8596 68.3905 67.702C68.3441 67.5444 68.2666 67.3978 68.1625 67.2707L67.575 66.5332C66.5541 65.2553 66.0406 63.6456 66.1329 62.0126C66.2252 60.3796 66.9167 58.838 68.075 57.6832C68.3092 57.4472 68.4406 57.1282 68.4406 56.7957C68.4406 56.4632 68.3092 56.1442 68.075 55.9082L61.85 49.6832C61.5992 49.4579 61.442 49.1467 61.4096 48.811C61.3772 48.4754 61.4719 48.1399 61.675 47.8707C61.7899 47.7347 61.9337 47.626 62.0958 47.5525C62.258 47.479 62.4345 47.4425 62.6125 47.4457C62.7773 47.4428 62.9409 47.4734 63.0935 47.5357C63.2461 47.5981 63.3844 47.6908 63.5 47.8082L71.325 55.6332C71.5604 55.8686 71.8796 56.0008 72.2125 56.0008C72.5454 56.0008 72.8646 55.8686 73.1 55.6332C73.3354 55.3978 73.4676 55.0786 73.4676 54.7457C73.4676 54.4128 73.3354 54.0936 73.1 53.8582L70.9375 51.7082V43.7707L74.1 46.9457C74.6854 47.5239 75.1494 48.2131 75.4649 48.9729C75.7805 49.7328 75.9411 50.548 75.9375 51.3707V76.7957C75.9375 77.1272 76.0692 77.4452 76.3036 77.6796C76.538 77.914 76.856 78.0457 77.1875 78.0457C77.519 78.0457 77.837 77.914 78.0714 77.6796C78.3058 77.4452 78.4375 77.1272 78.4375 76.7957V51.3707C78.4392 50.2195 78.2138 49.0793 77.774 48.0154C77.3343 46.9515 76.689 45.9848 75.875 45.1707ZM12.1875 60.5457C11.3667 60.5457 10.554 60.3841 9.79573 60.07C9.03744 59.7559 8.34845 59.2955 7.76808 58.7151C7.18772 58.1348 6.72734 57.4458 6.41325 56.6875C6.09916 55.9292 5.9375 55.1165 5.9375 54.2957V40.5457H18.4375V54.2957C18.4375 55.1165 18.2758 55.9292 17.9617 56.6875C17.6477 57.4458 17.1873 58.1348 16.6069 58.7151C16.0266 59.2955 15.3376 59.7559 14.5793 60.07C13.821 60.3841 13.0083 60.5457 12.1875 60.5457ZM68.4375 49.2082L65.275 46.0332C64.9198 45.6866 64.4995 45.4137 64.0383 45.2304C63.5771 45.0471 63.0841 44.957 62.5879 44.9653C62.0917 44.9735 61.602 45.08 61.1472 45.2786C60.6923 45.4772 60.2813 45.7639 59.9379 46.1222C59.5945 46.4804 59.3254 46.9032 59.1463 47.366C58.9672 47.8289 58.8815 48.3226 58.8943 48.8188C58.907 49.3149 59.0179 49.8036 59.2206 50.2566C59.4232 50.7096 59.7136 51.118 60.075 51.4582L65.475 56.8582C64.6589 57.9486 64.0991 59.2091 63.8375 60.5457H18.3C19.1352 59.7333 19.799 58.7615 20.252 57.688C20.7051 56.6144 20.9381 55.4609 20.9375 54.2957V5.58322L68.4375 5.54572V49.2082Z" fill="#1E81CE"/>
<path d="M44.6875 23.0457C43.1613 23.0457 42.1875 22.3057 42.1875 21.7957C42.1875 21.4641 42.0558 21.1462 41.8214 20.9118C41.587 20.6773 41.269 20.5457 40.9375 20.5457C40.606 20.5457 40.288 20.6773 40.0536 20.9118C39.8192 21.1462 39.6875 21.4641 39.6875 21.7957C39.6875 23.5719 41.2612 25.0094 43.4375 25.4207V26.7957C43.4375 27.1272 43.5692 27.4451 43.8036 27.6795C44.038 27.914 44.356 28.0457 44.6875 28.0457C45.019 28.0457 45.337 27.914 45.5714 27.6795C45.8058 27.4451 45.9375 27.1272 45.9375 26.7957V25.4207C48.1138 25.0119 49.6875 23.5744 49.6875 21.7957C49.6875 19.6932 47.4913 18.0457 44.6875 18.0457C43.1613 18.0457 42.1875 17.3057 42.1875 16.7957C42.1875 16.2857 43.1613 15.5457 44.6875 15.5457C46.2137 15.5457 47.1875 16.2857 47.1875 16.7957C47.1875 17.1272 47.3192 17.4451 47.5536 17.6795C47.788 17.914 48.106 18.0457 48.4375 18.0457C48.769 18.0457 49.087 17.914 49.3214 17.6795C49.5558 17.4451 49.6875 17.1272 49.6875 16.7957C49.6875 15.0194 48.1138 13.5819 45.9375 13.1707V11.7957C45.9375 11.4641 45.8058 11.1462 45.5714 10.9118C45.337 10.6774 45.019 10.5457 44.6875 10.5457C44.356 10.5457 44.038 10.6774 43.8036 10.9118C43.5692 11.1462 43.4375 11.4641 43.4375 11.7957V13.1707C41.2612 13.5794 39.6875 15.0169 39.6875 16.7957C39.6875 18.8982 41.8837 20.5457 44.6875 20.5457C46.2137 20.5457 47.1875 21.2857 47.1875 21.7957C47.1875 22.3057 46.2137 23.0457 44.6875 23.0457Z" fill="#1E81CE"/>
<path d="M62.1875 30.5457H34.6875C34.356 30.5457 34.038 30.6773 33.8036 30.9118C33.5692 31.1462 33.4375 31.4641 33.4375 31.7957C33.4375 32.1272 33.5692 32.4451 33.8036 32.6795C34.038 32.914 34.356 33.0457 34.6875 33.0457H62.1875C62.519 33.0457 62.837 32.914 63.0714 32.6795C63.3058 32.4451 63.4375 32.1272 63.4375 31.7957C63.4375 31.4641 63.3058 31.1462 63.0714 30.9118C62.837 30.6773 62.519 30.5457 62.1875 30.5457Z" fill="#1E81CE"/>
<path d="M62.1875 35.5457H34.6875C34.356 35.5457 34.038 35.6773 33.8036 35.9118C33.5692 36.1462 33.4375 36.4641 33.4375 36.7957C33.4375 37.1272 33.5692 37.4451 33.8036 37.6795C34.038 37.914 34.356 38.0457 34.6875 38.0457H62.1875C62.519 38.0457 62.837 37.914 63.0714 37.6795C63.3058 37.4451 63.4375 37.1272 63.4375 36.7957C63.4375 36.4641 63.3058 36.1462 63.0714 35.9118C62.837 35.6773 62.519 35.5457 62.1875 35.5457Z" fill="#1E81CE"/>
<path d="M29.6875 30.5457H27.1875C26.856 30.5457 26.538 30.6773 26.3036 30.9118C26.0692 31.1462 25.9375 31.4641 25.9375 31.7957C25.9375 32.1272 26.0692 32.4451 26.3036 32.6795C26.538 32.914 26.856 33.0457 27.1875 33.0457H29.6875C30.019 33.0457 30.337 32.914 30.5714 32.6795C30.8058 32.4451 30.9375 32.1272 30.9375 31.7957C30.9375 31.4641 30.8058 31.1462 30.5714 30.9118C30.337 30.6773 30.019 30.5457 29.6875 30.5457Z" fill="#1E81CE"/>
<path d="M29.6875 35.5457H27.1875C26.856 35.5457 26.538 35.6773 26.3036 35.9118C26.0692 36.1462 25.9375 36.4641 25.9375 36.7957C25.9375 37.1272 26.0692 37.4451 26.3036 37.6795C26.538 37.914 26.856 38.0457 27.1875 38.0457H29.6875C30.019 38.0457 30.337 37.914 30.5714 37.6795C30.8058 37.4451 30.9375 37.1272 30.9375 36.7957C30.9375 36.4641 30.8058 36.1462 30.5714 35.9118C30.337 35.6773 30.019 35.5457 29.6875 35.5457Z" fill="#1E81CE"/>
<path d="M62.1875 40.5457H34.6875C34.356 40.5457 34.038 40.6773 33.8036 40.9118C33.5692 41.1462 33.4375 41.4641 33.4375 41.7957C33.4375 42.1272 33.5692 42.4451 33.8036 42.6795C34.038 42.914 34.356 43.0457 34.6875 43.0457H62.1875C62.519 43.0457 62.837 42.914 63.0714 42.6795C63.3058 42.4451 63.4375 42.1272 63.4375 41.7957C63.4375 41.4641 63.3058 41.1462 63.0714 40.9118C62.837 40.6773 62.519 40.5457 62.1875 40.5457Z" fill="#1E81CE"/>
<path d="M54.6875 45.5457H34.6875C34.356 45.5457 34.038 45.6773 33.8036 45.9118C33.5692 46.1462 33.4375 46.4641 33.4375 46.7957C33.4375 47.1272 33.5692 47.4451 33.8036 47.6795C34.038 47.914 34.356 48.0457 34.6875 48.0457H54.6875C55.019 48.0457 55.337 47.914 55.5714 47.6795C55.8058 47.4451 55.9375 47.1272 55.9375 46.7957C55.9375 46.4641 55.8058 46.1462 55.5714 45.9118C55.337 45.6773 55.019 45.5457 54.6875 45.5457Z" fill="#1E81CE"/>
<path d="M54.6875 50.5457H34.6875C34.356 50.5457 34.038 50.6773 33.8036 50.9118C33.5692 51.1462 33.4375 51.4641 33.4375 51.7957C33.4375 52.1272 33.5692 52.4451 33.8036 52.6795C34.038 52.914 34.356 53.0457 34.6875 53.0457H54.6875C55.019 53.0457 55.337 52.914 55.5714 52.6795C55.8058 52.4451 55.9375 52.1272 55.9375 51.7957C55.9375 51.4641 55.8058 51.1462 55.5714 50.9118C55.337 50.6773 55.019 50.5457 54.6875 50.5457Z" fill="#1E81CE"/>
<path d="M29.6875 40.5457H27.1875C26.856 40.5457 26.538 40.6773 26.3036 40.9118C26.0692 41.1462 25.9375 41.4641 25.9375 41.7957C25.9375 42.1272 26.0692 42.4451 26.3036 42.6795C26.538 42.914 26.856 43.0457 27.1875 43.0457H29.6875C30.019 43.0457 30.337 42.914 30.5714 42.6795C30.8058 42.4451 30.9375 42.1272 30.9375 41.7957C30.9375 41.4641 30.8058 41.1462 30.5714 40.9118C30.337 40.6773 30.019 40.5457 29.6875 40.5457Z" fill="#1E81CE"/>
<path d="M29.6875 45.5457H27.1875C26.856 45.5457 26.538 45.6773 26.3036 45.9118C26.0692 46.1462 25.9375 46.4641 25.9375 46.7957C25.9375 47.1272 26.0692 47.4451 26.3036 47.6795C26.538 47.914 26.856 48.0457 27.1875 48.0457H29.6875C30.019 48.0457 30.337 47.914 30.5714 47.6795C30.8058 47.4451 30.9375 47.1272 30.9375 46.7957C30.9375 46.4641 30.8058 46.1462 30.5714 45.9118C30.337 45.6773 30.019 45.5457 29.6875 45.5457Z" fill="#1E81CE"/>
<path d="M29.6875 50.5457H27.1875C26.856 50.5457 26.538 50.6773 26.3036 50.9118C26.0692 51.1462 25.9375 51.4641 25.9375 51.7957C25.9375 52.1272 26.0692 52.4451 26.3036 52.6795C26.538 52.914 26.856 53.0457 27.1875 53.0457H29.6875C30.019 53.0457 30.337 52.914 30.5714 52.6795C30.8058 52.4451 30.9375 52.1272 30.9375 51.7957C30.9375 51.4641 30.8058 51.1462 30.5714 50.9118C30.337 50.6773 30.019 50.5457 29.6875 50.5457Z" fill="#1E81CE"/>
</svg>
